<svg width="1918" height="1245" viewBox="0 0 1918 1245" fill="none" xmlns="http://www.w3.org/2000/svg">
<g clip-path="url(#clip0_2634_2158)">
<mask id="mask0_2634_2158" style="mask-type:luminance" maskUnits="userSpaceOnUse" x="0" y="0" width="1918" height="1245">
<path d="M0.283447 1245L1917.72 1245L1917.72 0L0.283447 0L0.283447 1245Z" fill="white"/>
</mask>
<g mask="url(#mask0_2634_2158)">
<g opacity="0.52">
<path d="M-44.991 1398.22C-6.45056 1439.08 71.0981 1471.84 116.043 1448.54C149.943 1430.93 165.144 1390.85 196.227 1378C248.604 1356.38 320.29 1389.11 381.479 1437.57C437.66 1481.37 493.394 1534.09 542.219 1578.63C576.861 1608.92 627.248 1647.84 633.279 1605.58C645.697 1533.57 582.304 1378.3 552.645 1283.29C528.925 1199.92 505.031 1100.9 537.566 1040.31C560.238 998.266 617.825 999.962 673.706 1013.78C797.215 1043.74 942.045 1094.71 1061.78 1158.23C1219.9 1241.47 1331.88 1371.52 1434.19 1450.81C1523.31 1516.53 1617.65 1558.84 1762.26 1444.53C1862.48 1364.53 1958.46 1230.22 2040.56 1101.14C2122.88 970.605 2191.33 845.291 2241.65 749.856" stroke="#ECECEC" stroke-width="2" stroke-miterlimit="10"/>
<path opacity="0.9783" d="M-60.0594 1383.14C-22.0048 1423.34 54.9865 1454.9 100.133 1431.21C134.386 1413.19 150.216 1373 181.729 1359.97C233.704 1338.41 307.037 1369.19 368.722 1418.12C424.558 1461.71 478.66 1512.76 527.866 1555.05C563.566 1584.66 611.932 1618.32 617.669 1576.34C629.432 1504 568.161 1354.75 539.386 1260.39C519.108 1188.13 502.193 1110.96 517.64 1050.96C520.166 1041.24 523.727 1032.85 528.015 1025.82C552.341 985.724 609.649 988.107 665.083 1002C788.377 1032.33 932.023 1082.02 1052.61 1142.05C1212.33 1221.02 1328.25 1346.2 1432.22 1426.09C1524 1493.3 1619.31 1539.89 1763.91 1431.02C1864.33 1354.53 1961.58 1219.32 2045.27 1088.38C2129.14 956.001 2199.44 827.903 2250.3 732.162" stroke="#ECECEC" stroke-width="2" stroke-miterlimit="10"/>
<path opacity="0.9565" d="M-75.1382 1368.03C-33.4762 1404.3 35.7406 1439.47 83.9678 1413.64C118.54 1395.37 135.061 1354.97 167 1341.78C219.827 1319.89 293.64 1350.01 355.724 1398.32C412.036 1441.54 464.364 1489.85 513.294 1531.25C548.764 1560.34 596.27 1588.84 601.741 1547.32C612.906 1474.77 553.949 1331.38 526.138 1237.73C506.948 1167.86 491.169 1093.03 507.736 1035.58C510.443 1026.28 514.161 1018.26 518.601 1011.56C544.001 973.062 601.611 976.411 656.626 990.388C779.919 1021.1 920.58 1070.3 1043.45 1126.38C1205.65 1199.91 1325.23 1321.68 1429.89 1401.31C1524.51 1469.99 1620.92 1520.6 1765.46 1417.39C1865.84 1344.76 1964.4 1208.61 2049.79 1075.71C2135.31 941.36 2207.67 810.261 2258.94 714.458" stroke="#ECECEC" stroke-width="2" stroke-miterlimit="10"/>
<path opacity="0.9348" d="M-90.2015 1352.92C-53.2897 1391.63 22.3953 1419.93 67.5802 1395.86C102.47 1377.19 119.699 1336.82 152.052 1323.48C205.735 1301.25 280.149 1330.62 342.476 1378.22C398.227 1420.26 449.599 1467.39 498.517 1507.26C534.345 1535.69 580.299 1559.46 585.525 1518.49C596.155 1445.88 539.647 1308.17 512.913 1215.34C494.853 1147.84 480.258 1075.36 497.957 1020.47C500.849 1011.57 504.466 1003.12 509.324 997.549C538.479 964.076 588.319 963.889 648.33 978.939C771.199 1009.44 910.696 1058.47 1034.31 1111.25C1197.25 1180.39 1320.79 1296.67 1427.16 1376.54C1524.82 1446.67 1622.44 1501.02 1766.87 1403.66C1866.97 1335.19 1966.84 1198.14 2054.04 1063.17C2141.33 926.778 2215.93 792.463 2267.54 696.772" stroke="#ECECEC" stroke-width="2" stroke-miterlimit="10"/>
<path opacity="0.913" d="M-105.221 1337.84C-68.6854 1375.58 11.2 1402.97 51.0085 1377.93C82.4314 1357.74 105.714 1319.18 136.909 1305.11C188.366 1281.35 266.487 1310.91 328.98 1357.86C384.187 1398.63 434.692 1444.71 483.561 1483.09C519.675 1510.81 564.05 1530.16 569.053 1489.86C579.225 1417.32 525.095 1284.9 499.729 1193.22C482.97 1128.23 469.546 1057.98 488.314 1005.62C491.379 997.118 495.204 989.063 500.189 983.789C530.359 951.87 580.22 952.971 640.208 967.664C763.642 997.586 902.942 1046.7 1025.24 1096.65C1187.07 1162.48 1314.94 1271.21 1424.05 1351.84C1524.89 1423.41 1623.94 1481.18 1768.15 1389.88C1867.61 1325.9 1968.86 1187.95 2058.03 1050.76C2147.22 912.204 2224.34 774.398 2276.1 679.128" stroke="#ECECEC" stroke-width="2" stroke-miterlimit="10"/>
<path opacity="0.8913" d="M-120.167 1322.83C-84.1373 1359.83 -5.4944 1385.06 34.2859 1359.89C66.0182 1339.38 90.0449 1300.9 121.596 1286.72C173.867 1262.65 252.475 1291.26 315.236 1337.28C369.893 1376.69 419.705 1421.87 468.454 1458.76C504.783 1485.73 547.583 1501.01 552.366 1461.41C562.104 1388.95 510.597 1262.19 486.611 1171.4C471.116 1108.65 458.91 1040.87 478.813 991.05C482.068 982.95 486.089 975.276 491.203 970.294C522.393 939.911 572.742 941.823 632.259 956.564C756.161 986.934 892.959 1035.63 1016.24 1082.59C1178.13 1144.08 1309.6 1246.63 1420.55 1327.28C1524.76 1400.26 1625.48 1461.12 1769.29 1376.06C1867.79 1316.8 1970.44 1177.95 2061.72 1038.42C2152.95 897.586 2232.82 756.076 2284.6 661.536" stroke="#ECECEC" stroke-width="2" stroke-miterlimit="10"/>
<path opacity="0.8696" d="M-135.016 1307.89C-99.4998 1344.13 -22.2195 1367.03 17.4458 1341.79C49.5155 1321.01 73.9104 1285 106.126 1268.34C157.922 1240.89 243.194 1274.62 301.239 1316.51C354.106 1353.51 405.481 1399.85 453.222 1434.29C496.308 1465.36 526.757 1464.4 535.498 1433.13C552.788 1373.49 496.352 1239.42 473.572 1149.87C459.289 1089.42 448.429 1024.03 469.464 976.755C472.913 969.046 477.129 961.753 482.372 957.057C514.756 928.061 565.507 931.088 625.029 946.063C749.678 977.141 883.274 1025.06 1007.37 1069.06C1168.93 1126.27 1303.87 1222.5 1416.68 1302.91C1524.51 1377.19 1626.78 1440.94 1770.27 1362.21C1867.56 1307.87 1971.7 1168.03 2065.24 1026.01C2158.65 882.785 2241.46 737.386 2293.04 644.009" stroke="#ECECEC" stroke-width="2" stroke-miterlimit="10"/>
<path opacity="0.8478" d="M-149.734 1293.07C-114.742 1328.52 -38.9294 1348.93 0.533931 1323.68C32.8721 1302.6 57.97 1266.75 90.5382 1250.03C143.13 1222.38 228.619 1254.75 287.001 1295.62C339.434 1331.24 390.238 1376.65 437.903 1409.72C480.743 1439.47 510.011 1435.8 518.494 1405.04C535.495 1345.2 481.886 1216.85 460.644 1128.67C447.592 1070.5 438.128 1007.51 460.283 962.776C463.929 955.453 468.342 948.533 473.718 944.114C507.447 916.39 559.483 921.061 618.492 936.322C742.788 968.16 872.69 1015.64 998.645 1056.09C1160.14 1107.92 1299 1199.65 1412.45 1278.82C1524.16 1354.34 1627.87 1420.73 1771.1 1348.4C1866.95 1299.08 1972.66 1158.16 2068.6 1013.53C2164.32 867.808 2250.26 718.373 2301.4 626.586" stroke="#ECECEC" stroke-width="2" stroke-miterlimit="10"/>
<path opacity="0.8261" d="M-164.299 1278.4C-129.844 1313 -55.5931 1330.78 -16.4213 1305.59C16.1598 1284.23 41.9505 1248.59 74.8409 1231.84C128.189 1204 213.788 1234.9 272.513 1274.65C324.383 1308.71 375.129 1353.49 422.507 1385.07C465.021 1413.47 493.13 1407.32 501.375 1377.15C518.131 1317.27 467.419 1194.47 447.823 1107.82C436.014 1051.89 428.001 991.324 451.256 949.114C455.099 942.169 460.122 936.35 465.22 931.467C495.173 902.493 561.503 913.761 612.274 927.082C736.557 958.742 864.008 1006.02 990.08 1043.65C1150.42 1091.56 1292.51 1176.47 1407.85 1255.07C1523.58 1331.72 1628.84 1400.51 1771.75 1334.63C1865.96 1290.37 1973.4 1148.18 2071.91 1000.78C2170.09 852.402 2259.34 698.811 2309.68 609.271" stroke="#ECECEC" stroke-width="2" stroke-miterlimit="10"/>
<path opacity="0.8043" d="M-178.677 1263.89C-146.022 1296.31 -72.0166 1313.65 -33.3765 1287.58C-0.424754 1264.98 25.9054 1230.61 59.0719 1213.81C113.133 1185.8 198.72 1215.13 257.795 1253.66C309.192 1286.17 359.958 1330.27 407.086 1360.38C449.198 1387.37 476.198 1378.97 484.2 1349.45C500.682 1289.72 452.762 1171.97 435.147 1087.33C424.877 1034.53 417.78 974.82 442.413 935.772C446.537 929.261 451.706 923.73 456.909 919.119C486.716 892.329 557.809 905.546 606.387 918.312C730.639 949.793 855.638 996.759 981.728 1031.73C1140.61 1075.93 1285.68 1153.86 1402.94 1231.73C1522.86 1309.39 1629.68 1380.35 1772.24 1320.95C1864.62 1281.74 1973.94 1138.08 2075.18 987.743C2175.98 836.578 2268.7 678.727 2317.86 592.077" stroke="#ECECEC" stroke-width="2" stroke-miterlimit="10"/>
<path opacity="0.7826" d="M-192.843 1249.58C-160.73 1281.24 -91.1245 1295.38 -50.2985 1269.7C-15.2452 1247.3 10.658 1210.21 43.2492 1195.99C100.532 1170.63 178.607 1194.04 242.836 1232.68C293.421 1262.65 343.977 1306.07 391.649 1335.71C433.774 1362.03 459.158 1350.82 466.984 1321.98C483.308 1262.56 438.381 1150.04 422.612 1067.23C413.585 1016.58 408.109 959.342 433.736 922.782C438.056 916.639 443.011 910.999 448.766 907.097C482.702 883.833 549.692 896.766 600.788 910.003C724.971 941.29 848.385 987.26 973.593 1020.35C1130.58 1062.03 1277.29 1131.23 1397.7 1208.91C1521.83 1287.91 1636.27 1355 1772.54 1307.4C1840.45 1284.03 1935.61 1167.26 2005.15 1073.61C2130.37 903.454 2236.26 729.082 2325.94 575.036" stroke="#ECECEC" stroke-width="2" stroke-miterlimit="10"/>
<path opacity="0.7609" d="M-206.774 1235.49C-175.162 1266.22 -107.256 1277.39 -67.1514 1251.98C-31.9883 1229.33 -5.41774 1192.74 27.3985 1178.43C85.2283 1152.84 163.219 1174.74 227.65 1211.8C277.621 1240.05 329.226 1283.39 376.228 1311.09C414.393 1333.47 444.034 1326.61 449.771 1294.77C462.137 1227.69 424.069 1128.35 410.238 1047.56C402.461 999 398.667 944.263 425.238 910.147C429.758 904.366 435.058 899.51 441.687 896.547C481.943 878.395 543.017 888.758 595.47 902.12C719.49 933.125 842.666 981.575 965.721 1009.56C1118.76 1044.59 1270.48 1111.09 1392.17 1186.66C1521.08 1265.34 1633.54 1345.83 1772.65 1294C1944.95 1225.87 2228.87 729.553 2333.9 558.146" stroke="#ECECEC" stroke-width="2" stroke-miterlimit="10"/>
<path opacity="0.7391" d="M-220.434 1221.66C-187.298 1253.36 -122.875 1257.37 -83.8919 1234.49C-49.0994 1213.54 -21.4859 1175.53 11.5528 1161.18C69.8581 1135.38 147.652 1155.69 212.252 1191.06C261.663 1217.6 314.53 1260.87 360.858 1286.58C398.435 1307.31 426.57 1298.7 432.603 1267.83C445.57 1202.52 409.975 1105.66 398.043 1028.34C391.337 981.947 389.466 929.612 416.931 897.894C421.651 892.459 428.72 890.056 435.548 887.384C477.19 870.95 537.753 881.333 590.418 894.645C713.957 925.314 833.674 976.626 958.384 1001.27C1112.51 1031.95 1264.62 1092.55 1386.38 1165.09C1457.66 1207.69 1523.63 1247.63 1589.8 1270.65C1644.44 1289.52 1703.67 1308.92 1773.2 1278.01C1966.63 1186.48 2228.64 724.683 2341.74 541.441" stroke="#ECECEC" stroke-width="2" stroke-miterlimit="10"/>
<path opacity="0.7174" d="M-233.802 1208.1C-201.331 1238.59 -138.536 1239.83 -100.489 1217.25C-65.3337 1195.93 -39.5455 1158.5 -4.26725 1144.27C57.3821 1119.26 131.85 1137.1 196.636 1170.52C246.024 1195.71 298.311 1238.15 345.547 1262.24C388.298 1284.25 406.953 1268.19 415.492 1241.21C432.966 1186.38 395.533 1084.37 386.02 1009.6C380.838 966.15 378.143 912.102 410.254 888.111C415.63 884.109 422.622 881.134 429.648 878.731C472.591 863.91 532.691 874.286 585.602 887.551C708.484 917.834 827.988 969.643 951.399 993.44C1105.37 1023.28 1254.43 1072.53 1380.35 1144.29C1453.34 1186.01 1520.93 1227.13 1587.73 1251.52C1644.31 1271.87 1701.47 1292.49 1774.13 1260.77C1970.89 1169.02 2231.77 713.818 2349.44 524.922" stroke="#ECECEC" stroke-width="2" stroke-miterlimit="10"/>
<path opacity="0.6957" d="M-246.846 1194.86C-216.882 1225.21 -152.257 1221.14 -116.9 1200.33C-81.8671 1179.04 -55.363 1142.08 -20.0286 1127.78C41.8687 1102.58 115.979 1118.72 180.826 1150.26C230.721 1174.24 283.453 1215.32 330.325 1238.15C371.521 1258.38 390.067 1241.23 398.481 1214.96C415.863 1160.9 381.548 1063.8 374.188 991.389C370.366 951.101 368.868 899.249 403.952 879.063C410.016 875.594 416.76 872.721 423.97 870.567C468.142 857.263 527.501 867.873 581.005 880.823C704.13 910.175 822.392 962.903 944.765 986.055C1098.13 1015.19 1244.8 1054.05 1374.12 1124.35C1448.76 1165.06 1517.96 1207.22 1585.38 1232.86C1643.69 1254.61 1699.76 1275.26 1775.31 1242.89C1975 1151.3 2234.76 703.032 2356.99 508.613" stroke="#ECECEC" stroke-width="2" stroke-miterlimit="10"/>
<path opacity="0.6739" d="M-259.542 1181.95C-230.218 1210.91 -167.313 1204.13 -133.086 1183.76C-98.1448 1162.28 -71.0399 1126.09 -35.6978 1111.74C26.3452 1086.38 99.9951 1100.76 164.838 1130.33C215.371 1153.09 268.755 1192.84 315.218 1214.37C354.72 1232.78 373.28 1214.69 381.602 1189.13C398.913 1136 367.702 1043.62 362.561 973.737C359.851 932.812 361.086 889.862 397.885 870.532C404.118 867.287 411.115 864.777 418.504 862.855C463.824 850.963 522.853 861.511 576.623 874.436C699.037 903.442 817.199 956.302 938.481 979.086C1090.18 1007.68 1235.62 1037.26 1367.75 1105.59C1502.09 1173.48 1625.68 1290.4 1776.69 1224.48C1979.42 1132.87 2237.64 692.288 2364.4 492.522" stroke="#ECECEC" stroke-width="2" stroke-miterlimit="10"/>
<path opacity="0.6522" d="M-271.859 1169.4C-243.174 1196.89 -182.008 1187.45 -149.008 1167.6C-114.208 1145.95 -86.5456 1110.59 -51.247 1096.19C10.837 1070.71 83.9193 1083.29 148.685 1110.8C199.742 1132.22 253.543 1170.2 299.999 1190.69C338.345 1207.7 356.645 1188.57 364.872 1163.78C382.121 1111.73 353.976 1023.92 351.13 956.693C349.706 916.273 354.39 880.133 392.012 862.489C398.414 859.516 405.649 857.28 413.209 855.569C459.606 844.989 518.366 855.465 572.42 868.37C694.141 897.023 812.546 950.194 932.524 972.507C1080.33 1000.17 1228.84 1023.01 1361.3 1087.84C1500.13 1154.26 1623.06 1272.2 1778.22 1205.66C1983.85 1114.08 2240.36 681.638 2371.65 476.676" stroke="#ECECEC" stroke-width="2" stroke-miterlimit="10"/>
<path opacity="0.6304" d="M-283.773 1157.25C-255.722 1183.17 -196.32 1171.14 -164.629 1151.89C-129.99 1130.15 -102.501 1097.45 -66.6452 1081.2C-7.17157 1053.89 71.2438 1066.25 132.384 1091.76C184.508 1113 236.897 1146.75 284.309 1166.89C322.762 1183.38 340.196 1162.87 348.315 1138.98C365.47 1088.12 343.243 1007.07 339.907 940.299C338.087 900.805 350.128 869.72 386.316 854.9C392.938 852.201 400.347 850.191 408.073 848.68C455.477 839.312 514.34 849.469 568.391 862.601C688.345 891.301 808.568 944.154 926.889 966.292C1070.79 993.443 1222.52 1011.59 1354.79 1071.42C1498.11 1134.81 1620.86 1253.67 1779.87 1186.55C1988.25 1095 2242.93 671.09 2378.73 461.071" stroke="#ECECEC" stroke-width="2" stroke-miterlimit="10"/>
<path opacity="0.6087" d="M-295.254 1145.51C-264.489 1167.25 -212.93 1157.22 -179.907 1136.67C-145.503 1114.84 -117.559 1082.97 -81.8543 1066.81C-22.4062 1039.55 54.8357 1049.84 115.963 1073.26C168.222 1092.86 219.781 1123.31 268.402 1143.43C303.174 1157.83 326.646 1140.79 331.948 1114.82C343.402 1057.88 326.477 985.938 328.888 924.607C330.494 888.499 343.141 860.798 380.769 847.735C387.684 845.355 395.18 843.492 403.064 842.163C451.427 833.926 510.124 844.015 564.505 857.115C683.899 885.449 804.215 938.307 921.559 960.418C1063.19 987.293 1214 1002.65 1348.34 1056.85C1498.53 1115.63 1617.82 1234.99 1781.57 1167.24C1992.58 1075.7 2245.33 660.662 2385.63 445.732" stroke="#ECECEC" stroke-width="2" stroke-miterlimit="10"/>
<path opacity="0.587" d="M-306.276 1134.22C-276.691 1154.7 -226.326 1142.21 -194.801 1121.99C-160.52 1099.57 -132.331 1069.13 -96.8409 1053.06C-37.5181 1025.89 38.4173 1034.12 99.4429 1055.38C151.807 1073.25 203.309 1100.87 252.26 1120.37C287.42 1134.41 310.23 1116.73 315.78 1091.37C327.605 1036.48 311.854 966.063 318.071 909.659C321.809 877.013 338.808 852.018 375.341 840.958C382.451 838.814 390.121 837.14 398.164 835.98C447.437 828.789 506.026 838.814 560.749 851.884C679.633 879.866 800.058 932.632 916.517 954.853C1056.18 981.658 1206.25 994.593 1342.1 1043.5C1497.9 1097.59 1615.8 1216.03 1783.29 1147.84C1996.64 1056.43 2247.55 650.381 2392.34 430.67" stroke="#ECECEC" stroke-width="2" stroke-miterlimit="10"/>
<path opacity="0.5652" d="M-316.814 1123.41C-287.764 1141.88 -237.818 1127.37 -209.277 1107.91C-177.002 1085.3 -144.764 1056.18 -111.572 1040.01C-55.6263 1012.15 22.0885 1019 82.8533 1038.21C135.276 1054.28 186.942 1079.75 235.882 1097.82C271.426 1110.98 293.845 1094.29 299.825 1068.74C312.04 1015.93 299.904 950.264 307.459 895.521C311.649 865.387 336.936 843.189 370.016 834.544C377.315 832.619 385.156 831.123 393.352 830.117C443.489 823.892 502.027 833.852 557.106 846.892C675.529 874.536 796.074 927.127 911.757 949.577C1049.74 976.486 1198.88 987.462 1336.12 1031.33C1496.47 1080.52 1614.71 1197.05 1785.01 1128.43C2000.79 1036.87 2249.58 640.122 2398.87 415.89" stroke="#ECECEC" stroke-width="2" stroke-miterlimit="10"/>
<path opacity="0.5435" d="M-326.836 1113.1C-298.33 1129.5 -250.553 1113.11 -223.284 1094.46C-191.207 1071.86 -158.329 1042.02 -126.004 1027.7C-68.4093 1001.75 2.64057 1005.35 66.2303 1021.81C117.727 1034.9 170.211 1059.37 219.27 1075.87C255.583 1088.1 278.265 1073.56 284.086 1047.03C295.238 996.065 284.565 935.747 298.219 884.598C306.063 855.552 331.664 836.038 364.764 828.461C372.25 826.735 380.26 825.403 388.607 824.539C439.572 819.208 498.113 829.103 553.56 842.118C671.6 869.448 792.227 921.766 907.262 944.567C1043.83 971.743 1192.04 981.142 1330.38 1020.28C1494.24 1064.61 1614.32 1178.13 1786.7 1109.1C2004.72 1017.33 2251.43 630.115 2405.19 401.413" stroke="#ECECEC" stroke-width="2" stroke-miterlimit="10"/>
<path opacity="0.5217" d="M-336.321 1103.33C-308.349 1117.53 -262.768 1099.51 -236.791 1081.69C-204.938 1059.2 -172.217 1030.45 -140.103 1016.18C-82.9792 990.398 -13.2153 992.185 49.6024 1006.26C101.038 1017.57 153.359 1039.73 202.419 1054.63C238.723 1065.66 262.31 1053.46 268.56 1026.36C279.61 978.388 272.043 920.907 289.184 874.486C299.495 846.782 326.354 829.315 359.559 822.681C367.226 821.137 375.402 819.957 383.898 819.227C435.661 814.718 494.255 824.559 550.083 837.551C667.803 864.585 788.504 916.549 903.008 939.803C1038.41 967.39 1185.68 975.567 1324.88 1010.29C1491.47 1049.95 1614.45 1159.38 1788.32 1089.94C2008.45 997.865 2253.09 620.259 2411.3 387.255" stroke="#ECECEC" stroke-width="2" stroke-miterlimit="10"/>
<path opacity="0.5" d="M-345.235 1094.11C-317.798 1106 -274.446 1086.63 -249.747 1069.65C-218.163 1047.32 -185.677 1019.7 -153.825 1005.5C-97.2781 979.94 -28.9076 979.95 33.0153 991.645C84.4255 1000.99 141.514 1025.89 185.346 1034.2C224.971 1041.74 242.102 1035.26 253.241 1006.86C268.295 968.954 260.551 907.366 280.259 865.021C292.531 838.704 320.993 822.977 354.385 817.178C362.233 815.801 370.573 814.765 379.217 814.158C431.752 810.408 490.448 820.196 546.667 833.169C664.137 859.927 784.905 911.462 898.992 935.261C1033.44 963.384 1179.78 970.674 1319.65 1001.3C1491.05 1037.2 1617.8 1136.35 1789.86 1071.03C2004.5 986.488 2254.07 611.502 2417.19 373.423" stroke="#ECECEC" stroke-width="2" stroke-miterlimit="10"/>
<path opacity="0.4783" d="M-353.562 1085.46C-326.68 1094.97 -286.069 1074.54 -262.113 1058.37C-230.192 1036.28 -198.736 1009.89 -167.126 995.704C-111.242 970.336 -44.2419 968.643 16.5151 978.04C68.0174 985.65 124.669 1006.81 168.077 1014.69C206.983 1021.74 226.226 1015.98 238.127 988.667C253.548 953.563 249.317 894.645 271.401 856.132C285.73 831.14 315.561 816.984 349.218 811.915C357.246 810.69 365.749 809.788 374.541 809.293C427.828 806.243 486.672 815.983 543.298 828.941C660.589 855.445 781.412 906.477 895.193 930.904C1028.89 959.669 1174.29 966.387 1314.67 993.244C1487.03 1024.83 1618.51 1118.41 1791.3 1052.4C2008.06 966.992 2255.37 601.906 2422.87 359.915" stroke="#ECECEC" stroke-width="2" stroke-miterlimit="10"/>
<path opacity="0.4565" d="M-361.549 1077.11C-345.719 1085.37 -304.202 1068.69 -273.846 1047.92C-242.635 1026.27 -213.487 1002.23 -181.193 986.386C-124.552 958.473 -57.4978 958.434 0.150505 965.53C51.4866 971.514 107.115 989.501 150.631 996.229C189.391 1002.21 210.449 997.484 223.199 971.937C239.28 939.876 238.311 882.792 262.56 847.773C278.953 824.058 310.023 811.3 344.038 806.875C352.245 805.792 360.912 805.015 369.852 804.624C423.873 802.223 482.909 811.925 539.959 824.868C657.14 851.14 778.015 901.602 891.601 926.728C1024.73 956.23 1169.19 962.674 1309.95 986.073C1482.81 1013.69 1619.28 1100.94 1792.63 1034.16C2011.39 947.727 2256.49 592.473 2428.32 346.765" stroke="#ECECEC" stroke-width="2" stroke-miterlimit="10"/>
<path opacity="0.4348" d="M-369.331 1068.96C-354.186 1075.94 -314.605 1058.79 -284.967 1038.27C-254.638 1017.01 -226.582 993.373 -195.221 977.507C-140.152 949.524 -74.9516 947.498 -18.8117 953.028C32.8286 957.784 88.6591 973.266 133.039 978.934C161.647 982.23 199.2 983.52 208.261 956.706C221.205 918.369 228.56 871.991 253.691 839.875C271.275 817.355 304.35 805.856 338.82 802.019C347.208 801.066 356.036 800.403 365.125 800.112C419.874 798.312 479.138 807.98 536.625 820.913C653.775 846.971 774.793 896.916 888.188 922.695C1020.79 952.888 1164.65 959.544 1305.46 979.708C1478.21 1003.56 1619.5 1082.92 1793.81 1016.33C2014.26 930.264 2259.29 580.23 2433.53 333.957" stroke="#ECECEC" stroke-width="2" stroke-miterlimit="10"/>
<path opacity="0.413" d="M-376.922 1061C-362.406 1066.73 -324.468 1049.33 -295.835 1029.03C-266.58 1008.04 -239.363 984.937 -209.019 969.086C-156.412 941.454 -93.0445 937.055 -38.4258 941.068C14.3496 944.627 69.9552 958.406 115.347 962.941C143.948 965.465 182.053 966.603 192.921 942.647C208.729 907.687 217.49 862.016 244.751 832.387C264.38 811.013 298.536 800.65 333.543 797.328C342.113 796.494 351.105 795.944 360.344 795.742C415.812 794.502 475.347 804.143 533.284 817.071C650.477 842.94 771.521 892.205 884.938 918.79C1017.26 949.851 1160.17 956.77 1301.21 974.103C1473.85 994.686 1620.11 1066.64 1794.84 998.973C2017.03 911.515 2259.92 571.264 2438.49 321.517" stroke="#ECECEC" stroke-width="2" stroke-miterlimit="10"/>
<path opacity="0.3913" d="M-384.328 1053.21C-370.395 1057.74 -334.071 1040.17 -306.442 1020.13C-278.276 999.434 -251.187 975.162 -222.584 961.103C-170.887 935.603 -113.602 928.262 -57.958 929.881C-5.9342 931.218 50.0881 943.182 95.7051 947.401C124.51 949.739 162.654 951.494 175.966 928.97C195.481 895.907 206.285 852.768 235.711 825.256C257.383 804.985 292.567 795.633 328.2 792.777C336.954 792.057 346.109 791.606 355.502 791.492C411.69 790.775 471.524 800.396 529.929 813.324C647.235 839.028 768.31 887.563 881.848 914.996C1014.03 946.97 1155.97 954.407 1297.18 969.198C1469.45 986.842 1620.51 1051.01 1795.71 982.144C2019.52 893.133 2260.36 562.467 2443.21 309.453" stroke="#ECECEC" stroke-width="2" stroke-miterlimit="10"/>
<path opacity="0.3696" d="M-391.561 1045.59C-378.159 1048.97 -343.431 1031.3 -316.809 1011.56C-289.714 991.214 -263.548 967.592 -235.934 953.523C-186.247 928.125 -131.135 919.56 -77.4033 919.428C-26.4533 919.146 28.145 928.591 73.381 931.758C102.72 933.521 140.747 935.154 157.216 915.366C181.977 885.579 194.9 844.068 226.52 818.433C250.235 799.225 286.413 790.767 322.757 788.344C331.698 787.729 341.07 787.273 350.565 787.343C407.349 787.731 467.329 796.661 526.532 809.661C644.014 835.216 765.129 882.986 878.882 911.295C1011.02 944.211 1152.02 952.405 1293.36 964.937C1382.74 972.719 1461.52 983.941 1546.72 995.061C1628.12 1005.31 1707.19 1001.08 1796.4 965.886C2021.69 875.168 2260.58 553.858 2447.66 297.784" stroke="#ECECEC" stroke-width="2" stroke-miterlimit="10"/>
<path opacity="0.3478" d="M-398.63 1038.14C-385.719 1040.4 -353.13 1022.75 -326.948 1003.29C-300.677 983.593 -277.003 960.846 -249.075 946.322C-200.776 921.208 -148.515 911.44 -96.7413 909.669C-47.0465 907.854 6.01013 914.953 50.6377 917.042C80.4091 918.178 118.011 919.455 137.053 902.038C166.573 874.999 183.332 835.766 217.145 811.86C242.905 793.678 280.062 786.018 317.202 783.994C326.331 783.479 335.87 783.123 345.529 783.262C403.026 784.056 463.436 793.053 523.088 806.051C640.811 831.478 761.985 878.452 876.034 907.655C1008.23 941.529 1148.28 950.707 1289.74 961.247C1377.86 967.729 1459.66 975.171 1545.19 984.048C1627.39 992.308 1707.49 986.07 1796.92 950.214C2023.55 857.641 2260.6 545.42 2451.86 286.492" stroke="#ECECEC" stroke-width="2" stroke-miterlimit="10"/>
<path opacity="0.3261" d="M-405.543 1030.83C-393.082 1032.01 -362.004 1014.41 -336.87 995.311C-311.642 976.001 -289.259 955.037 -262.011 939.477C-215.76 913.093 -164.396 903.708 -115.954 900.571C-67.7982 897.339 -16.6743 902.663 27.5417 903.233C57.9266 903.425 94.4601 904.455 115.616 889.047C149.956 864.048 171.18 828.037 207.555 805.485C235.361 788.292 273.507 781.355 311.521 779.709C320.845 779.288 330.555 779.032 340.375 779.236C398.598 780.416 459.458 789.485 519.581 802.485C637.602 827.801 758.858 873.96 873.283 904.06C1005.62 938.89 1144.75 949.266 1286.31 958.075C1373.32 963.456 1457.96 967.223 1543.8 973.819C1626.67 980.015 1707.7 971.723 1797.25 935.177C2025.08 840.604 2260.4 537.185 2455.79 275.608" stroke="#ECECEC" stroke-width="2" stroke-miterlimit="10"/>
<path opacity="0.3043" d="M-412.312 1023.66C-400.261 1023.78 -370.676 1006.3 -346.596 987.589C-322.415 968.673 -300.848 948.347 -274.756 932.956C-231.281 907.306 -181.875 896.101 -135.036 892.088C-87.5989 887.942 -40.246 888.704 4.15154 890.302C32.844 891.077 72.5476 888.629 93.0386 876.458C131.957 853.117 158.502 820.659 197.72 799.263C227.573 783.028 266.735 776.743 305.7 775.461C315.221 775.132 325.104 774.968 335.09 775.237C394.053 776.791 455.38 785.931 515.999 798.947C634.376 824.173 755.742 869.501 870.614 900.489C1003.16 936.26 1141.38 948.028 1283.03 955.358C1369.23 959.826 1456.35 960.07 1542.54 964.37C1625.95 968.438 1707.77 958.045 1797.38 920.79C2026.35 824.066 2260 528.998 2459.45 265.128" stroke="#ECECEC" stroke-width="2" stroke-miterlimit="10"/>
<path opacity="0.2826" d="M-418.947 1016.63C-407.268 1015.73 -379.166 998.418 -356.132 980.114C-333 961.618 -312.248 941.93 -287.316 926.741C-245.907 901.51 -198.843 889.463 -153.975 884.192C-108.225 878.746 -62.5573 877.979 -19.479 878.233C9.20326 878.178 47.6235 875.362 69.4464 864.329C112.801 842.213 145.318 813.501 187.604 793.152C219.515 777.846 259.73 772.164 299.715 771.238C309.44 770.999 319.5 770.927 329.657 771.255C389.374 773.17 451.187 782.393 512.322 795.426C631.111 820.577 752.612 865.069 867.998 896.931C1000.81 933.613 1138.14 946.955 1279.9 953.045C1365.69 956.753 1454.4 954.323 1541.4 955.697C1625.65 956.952 1707.47 945.182 1797.3 907.085C2027.19 808.092 2259.34 521.202 2462.81 255.071" stroke="#ECECEC" stroke-width="2" stroke-miterlimit="10"/>
<path opacity="0.2609" d="M-425.458 1009.72C-414.123 1007.82 -387.491 990.734 -365.496 972.863C-343.413 954.791 -323.019 934.517 -299.7 920.802C-258.905 896.863 -217.427 884.145 -172.761 876.834C-129.788 869.832 -85.4719 867.618 -43.2859 866.978C-14.394 866.351 22.1574 862.813 44.9698 852.691C92.7803 831.314 131.543 806.494 177.181 787.092C211.51 772.558 252.712 768.033 293.556 767C303.363 766.739 313.733 766.866 324.064 767.257C384.552 769.527 446.869 778.837 508.544 791.895C627.795 816.987 749.465 860.651 865.427 893.355C998.553 930.902 1135.04 945.986 1276.89 951.066C1362.71 954.153 1452.2 949.92 1540.39 947.776C1625.57 945.605 1706.86 933.1 1797.02 894.06C2027.67 792.684 2258.45 513.618 2465.9 245.427" stroke="#ECECEC" stroke-width="2" stroke-miterlimit="10"/>
<path opacity="0.2391" d="M-431.852 1002.92C-420.828 1000.05 -395.654 983.237 -374.7 965.822C-353.657 948.215 -334.135 928.668 -311.921 915.12C-273.281 891.605 -233.84 878.298 -191.386 869.979C-150.299 861.949 -107.742 858.42 -67.2229 856.508C-38.6839 855.004 -3.73288 850.988 19.7288 841.588C71.2976 820.702 118.668 799.746 166.428 781.054C201.89 767.142 245.206 763.35 287.213 762.74C297.25 762.578 307.789 762.78 318.304 763.233C379.585 765.857 442.421 775.262 504.655 788.352C624.418 813.401 746.29 856.247 862.886 889.755C996.362 928.108 1132.13 945.087 1274 949.37C1359.91 951.982 1450.44 944.896 1539.42 940.683C1623.9 936.676 1707.35 921.223 1796.52 881.742C2027.45 778.27 2257.3 506.314 2468.69 236.222" stroke="#ECECEC" stroke-width="2" stroke-miterlimit="10"/>
<path opacity="0.2174" d="M-438.141 996.222C-427.404 992.405 -403.676 975.903 -383.763 958.961C-363.748 941.853 -345.496 924.271 -323.988 909.664C-288.4 885.494 -247.774 872.195 -209.847 863.582C-170.711 854.621 -129.624 850.278 -91.2369 846.772C-60.241 843.826 -27.9054 839.187 -6.1617 831.038C48.7792 810.124 105.74 792.751 155.317 774.98C192.019 761.671 237.426 758.606 280.668 758.427C290.941 758.365 301.655 758.643 312.355 759.159C374.449 762.137 437.819 771.646 500.636 784.774C620.956 809.798 743.061 851.847 860.342 886.104C994.191 925.202 1129.73 944.233 1271.18 947.896C1436.19 952.936 1616.51 952.751 1795.8 870.121C2027.22 764.057 2255.94 499.208 2471.19 227.444" stroke="#ECECEC" stroke-width="2" stroke-miterlimit="10"/>
<path opacity="0.1957" d="M-444.333 989.621C-433.859 984.877 -411.571 968.725 -392.691 952.273C-373.711 935.66 -356.257 918.703 -335.907 904.421C-304 881.926 -263.223 866.04 -228.134 857.611C-190.355 848.378 -151.945 842.283 -115.279 837.731C-85.5281 833.949 -54.4554 828.832 -32.5865 821.055C25.5859 799.86 92.3765 785.543 143.833 768.838C181.987 756.151 229.373 753.788 273.919 754.042C284.432 754.079 295.33 754.438 306.221 755.018C369.152 758.357 433.069 767.978 496.492 781.148C617.416 806.16 739.781 847.442 857.798 882.389C992.044 922.142 1127.38 943.334 1268.45 946.586C1432.71 951.178 1614.65 944.181 1794.87 859.205C2026.61 750.484 2254.32 492.355 2473.39 219.11" stroke="#ECECEC" stroke-width="2" stroke-miterlimit="10"/>
<path opacity="0.1739" d="M-450.441 983.102C-440.207 977.45 -419.356 961.678 -401.506 945.729C-383.553 929.627 -366.905 913.295 -347.697 899.356C-317.686 877.484 -279.478 861.256 -246.255 852.016C-210.547 841.954 -174.331 834.987 -139.318 829.324C-110.813 824.648 -81.256 819.163 -59.4484 811.636C1.33421 789.873 79.4325 778.274 131.947 762.575C171.157 750.324 221.026 748.843 266.942 749.562C277.705 749.702 288.791 750.14 299.879 750.785C363.668 754.49 428.15 764.236 492.197 777.458C613.77 802.475 736.442 843.015 855.216 878.587C989.845 918.91 1125.04 942.338 1265.76 945.376C1429.6 949.721 1612.43 936.392 1793.71 848.981C2025.46 737.687 2252.52 485.63 2475.28 211.217" stroke="#ECECEC" stroke-width="2" stroke-miterlimit="10"/>
<path opacity="0.1522" d="M-456.47 976.66C-446.458 970.117 -427.038 954.751 -410.216 939.32C-393.289 923.74 -377.441 908.036 -359.368 894.458C-331.218 873.231 -295.566 856.757 -264.21 846.769C-230.627 835.963 -196.432 828.01 -163.317 821.513C-136.289 816.152 -108.146 810.137 -86.653 802.789C-19.0597 779.281 56.6585 770.269 119.642 756.166C164.142 746.007 212.339 743.883 259.73 744.976C270.749 745.222 282.026 745.74 293.316 746.455C357.989 750.538 423.044 760.419 487.738 773.7C610.004 798.735 733.016 838.57 852.577 874.692C987.582 915.481 1122.71 941.213 1263.08 944.221C1426.92 948.506 1609.89 929.427 1792.32 839.449C2024.04 725.449 2250.41 479.293 2476.84 203.779" stroke="#ECECEC" stroke-width="2" stroke-miterlimit="10"/>
<path opacity="0.1304" d="M-462.434 970.281C-452.63 962.861 -434.644 947.923 -418.844 933.018C-402.94 917.969 -387.964 902.902 -370.932 889.697C-343.944 868.766 -312.846 853.413 -281.999 841.825C-251.125 830.214 -219.636 821.9 -187.244 814.233C-161.694 808.152 -135.11 801.718 -114.106 794.482C-40.6602 768.863 38.1668 759.139 106.905 749.558C153.553 742.879 203.199 738.659 252.275 740.252C263.557 740.609 275.034 741.211 286.531 741.998C352.114 746.472 417.793 756.51 483.116 769.846C606.041 794.895 729.509 834.083 849.87 870.676C985.228 911.826 1120.37 939.893 1260.42 943.05C1424.56 947.455 1606.92 923.245 1790.7 830.58C2022.57 713.697 2248.09 473.168 2478.1 196.792" stroke="#ECECEC" stroke-width="2" stroke-miterlimit="10"/>
<path opacity="0.1087" d="M-468.34 963.959C-458.73 955.67 -442.176 941.18 -427.396 926.813C-412.509 912.306 -398.333 897.872 -382.4 885.058C-357.154 864.752 -328.365 849.267 -299.626 837.148C-270.867 825.012 -241.449 815.839 -211.071 807.425C-187.119 800.767 -162.131 793.869 -141.724 786.696C-63.7843 758.895 21.5645 749.941 93.7239 742.715C141.713 737.64 193.919 733.24 244.572 735.377C256.125 735.847 267.806 736.54 279.518 737.401C346.038 742.284 412.396 752.501 478.325 765.894C601.862 790.951 725.922 829.554 847.081 866.533C982.748 907.931 1118 938.344 1257.74 941.815C1422.49 946.544 1603.98 917.692 1788.85 822.362C2020.33 702.823 2245.45 467.413 2479.04 190.266" stroke="#ECECEC" stroke-width="2" stroke-miterlimit="10"/>
<path opacity="0.087" d="M-474.199 957.682C-464.771 948.533 -449.656 934.507 -435.892 920.683C-422.017 906.721 -408.636 892.927 -393.787 880.521C-370.259 860.86 -343.745 845.298 -317.103 832.706C-290.443 820.099 -263.093 810.137 -234.781 801.041C-212.465 793.85 -189.149 786.544 -169.438 779.403C-87.9517 749.513 0.802448 740.434 77.4103 735.15C128.749 731.346 183.544 727.611 236.603 730.337C248.433 730.927 260.341 731.714 272.26 732.655C339.659 737.959 406.795 748.375 473.342 761.833C597.523 786.907 722.243 824.967 844.174 862.247C980.084 903.781 1115.57 936.522 1255.01 940.463C1420.62 945.702 1600.83 912.784 1786.75 814.771C2017.68 692.624 2242.53 461.948 2479.64 184.208" stroke="#ECECEC" stroke-width="2" stroke-miterlimit="10"/>
<path opacity="0.0652" d="M-480.021 951.439C-470.771 941.437 -457.096 927.884 -444.341 914.61C-431.482 901.201 -418.883 888.046 -405.103 876.062C-383.275 857.071 -358.997 841.473 -334.434 828.458C-309.855 815.43 -284.57 804.736 -258.358 795.012C-237.701 787.333 -216.123 779.679 -197.179 772.553C-112.794 740.536 -22.2067 730.706 58.9493 727.021C114.754 724.277 172.305 721.724 228.369 725.103C240.469 725.82 252.628 726.709 264.756 727.73C333.03 733.472 400.986 744.107 468.17 757.638C593 782.737 718.339 820.226 841.098 857.75C977.295 899.353 1113.07 934.365 1252.22 938.927C1418.89 944.861 1597.54 908.444 1784.42 807.764C2014.66 683.082 2239.34 456.766 2479.91 178.608" stroke="#ECECEC" stroke-width="2" stroke-miterlimit="10"/>
<path opacity="0.0435" d="M-485.811 945.224C-476.733 934.37 -464.507 921.295 -452.763 908.577C-440.91 895.726 -429.089 883.213 -416.367 871.662C-396.214 853.358 -374.14 837.768 -351.635 824.37C-329.116 810.964 -305.885 799.577 -281.794 789.278C-262.811 781.153 -243.013 773.21 -224.892 766.101C-137.831 731.782 -46.0111 720.651 39.8158 718.595C100.535 717.021 160.596 715.621 219.863 719.658C232.242 720.497 244.662 721.505 257 722.613C326.17 728.816 394.963 739.692 462.799 753.3C588.273 778.434 714.065 815.239 837.808 852.985C974.449 894.635 1110.49 931.833 1249.34 937.152C1417.12 943.969 1594.21 904.575 1781.85 801.305C2011.27 674.185 2235.88 451.863 2479.85 173.469" stroke="#ECECEC" stroke-width="2" stroke-miterlimit="10"/>
<path opacity="0.0217" d="M-491.587 939.027C-482.677 927.319 -471.909 914.727 -461.171 902.568C-450.324 890.277 -439.269 878.415 -427.591 867.31C-409.086 849.713 -389.186 834.163 -368.718 820.418C-348.24 806.666 -327.053 794.629 -305.087 783.795C-287.787 775.259 -269.791 767.09 -252.531 760.008C-162.985 723.179 -69.3655 710.968 20.0559 709.904C85.4199 709.075 148.353 709.197 211.078 713.995C223.738 714.964 236.429 716.099 248.987 717.302C319.078 723.995 388.72 735.128 457.223 748.823C583.365 774.004 709.639 810.122 834.364 848.025C971.402 889.635 1107.8 928.897 1246.35 935.097C1415.25 942.988 1590.87 901.104 1779.04 795.369C2007.52 665.941 2232.16 447.257 2479.46 168.815" stroke="#ECECEC" stroke-width="2" stroke-miterlimit="10"/>
</g>
</g>
<mask id="mask1_2634_2158" style="mask-type:luminance" maskUnits="userSpaceOnUse" x="0" y="0" width="1918" height="1245">
<path d="M0.283447 1245L1917.72 1245L1917.72 0L0.283447 0L0.283447 1245Z" fill="white"/>
</mask>
<g mask="url(#mask1_2634_2158)">
<g opacity="0.52">
<path d="M1030.26 -641.439C978.325 -664.235 893.8 -664.628 861.891 -625.986C837.841 -596.801 840.058 -554.135 816.675 -530.405C777.256 -490.463 698.129 -493.075 622.296 -514.18C552.952 -532.915 480.414 -560.026 417.535 -582.262C373.454 -596.826 311.406 -613.297 322.934 -572.137C340.613 -501.177 461.621 -382.725 527.268 -306.751C582.756 -239.199 644.73 -157.318 639.292 -89.1545C635.437 -41.8096 581.81 -21.2995 524.855 -12.582C399.207 7.20851 245.467 15.8513 109.726 3.33908C-69.2656 -12.587 -224.759 -89.2267 -350.842 -122.921C-459.325 -149.176 -563.145 -151.93 -649.91 8.57805C-709.724 120.541 -743.701 280.792 -767.03 430.927C-789.978 582.478 -802.277 723.915 -809.98 830.938" stroke="#ECECEC" stroke-width="2" stroke-miterlimit="10"/>
<path opacity="0.9783" d="M1050.21 -633.344C998.985 -655.719 915.451 -655.228 883.517 -616.15C859.309 -586.455 860.994 -543.437 837.284 -519.387C798.212 -479.646 718.36 -479.84 641.885 -501.18C572.942 -519.857 502.582 -546.054 440.258 -566.074C395.477 -579.612 337.412 -592.027 349.098 -551.234C367.51 -480.219 484.136 -366.488 548.71 -290.767C596.546 -232.108 643.273 -167.644 653.31 -106.569C654.913 -96.6667 655.031 -87.5906 653.929 -79.4832C647.765 -33.2962 594.118 -13.5231 537.541 -5.0546C411.939 14.3101 259.804 23.6775 124.697 14.706C-54.0463 3.31928 -211.189 -67.3369 -339.046 -100.937C-450.579 -127.55 -557.022 -133.862 -645.971 21.6432C-707.395 130.444 -742.172 292.022 -766.209 444.465C-789.832 598.31 -802.714 743.019 -810.786 850.527" stroke="#ECECEC" stroke-width="2" stroke-miterlimit="10"/>
<path opacity="0.9565" d="M1070.18 -625.232C1017.23 -642.614 939.386 -648.416 905.483 -606.188C881.078 -576.144 882.213 -532.673 858.176 -508.314C818.457 -467.938 738.426 -467.343 661.836 -487.963C592.604 -506.12 524.98 -530.48 463.272 -549.785C418.913 -562.932 363.724 -570.927 375.471 -530.656C394.515 -459.684 506.647 -350.458 570.047 -275.021C615.918 -218.139 660.655 -155.393 668.634 -96.2311C669.905 -86.6371 669.726 -77.8475 668.348 -69.984C660.55 -24.8553 606.236 -5.85654 550.014 2.37789C424.256 21.394 275.064 30.0691 139.453 25.5946C-39.3715 20.1589 -198.501 -45.958 -326.882 -79.0551C-441.626 -105.935 -550.702 -115.516 -641.88 34.7678C-704.823 140.008 -740.426 302.943 -765.232 457.849C-789.586 614.134 -803.141 762.386 -811.573 870.111" stroke="#ECECEC" stroke-width="2" stroke-miterlimit="10"/>
<path opacity="0.9348" d="M1090.13 -617.117C1040.56 -638.56 959.547 -635.568 927.731 -596.126C903.195 -565.594 903.668 -521.877 879.314 -497.216C838.943 -456.2 758.664 -454.689 682.135 -474.562C613.9 -491.84 547.629 -515.487 486.552 -533.39C442.129 -545.793 390.277 -550.038 402.027 -510.373C421.59 -439.545 529.173 -334.599 591.257 -259.503C635.13 -204.369 677.83 -143.327 683.736 -86.0792C684.674 -76.789 684.759 -67.6383 682.545 -60.6538C669.266 -18.7098 623.521 0.565333 562.268 9.72604C436.988 28.777 288.936 37.1584 153.97 36.0105C-23.7611 34.8875 -184.309 -24.6684 -314.367 -57.3297C-432.486 -84.3761 -544.188 -96.9331 -637.636 47.9251C-701.993 149.231 -738.447 313.501 -764.079 471.004C-789.223 629.843 -803.548 781.912 -812.332 889.665" stroke="#ECECEC" stroke-width="2" stroke-miterlimit="10"/>
<path opacity="0.913" d="M1110.03 -609.012C1061.19 -629.706 976.689 -624.27 950.208 -585.994C929.479 -555.39 923.65 -511.015 900.654 -486.13C862.949 -444.562 779.188 -441.801 702.767 -461.016C635.544 -477.338 570.495 -500.348 510.065 -516.904C465.665 -528.547 417.052 -529.332 428.735 -490.363C448.687 -419.779 551.949 -318.787 612.308 -244.224C653.972 -190.896 694.693 -131.462 698.597 -76.1268C699.213 -67.1403 698.953 -58.2685 696.501 -51.5081C681.66 -10.6024 635.376 7.49743 574.291 16.9769C448.725 36.7724 300.822 45.0043 168.212 45.9505C-7.16638 47.4519 -168.65 -3.50093 -301.528 -35.8161C-423.15 -62.9696 -537.551 -78.1113 -633.244 61.0897C-698.828 158.02 -736.177 323.64 -762.732 483.939C-788.756 645.505 -803.983 801.75 -813.071 909.169" stroke="#ECECEC" stroke-width="2" stroke-miterlimit="10"/>
<path opacity="0.8913" d="M1129.84 -600.934C1081.76 -621.145 999.271 -614.203 972.869 -575.82C951.985 -544.802 945.442 -500.214 922.167 -475.087C883.837 -432.924 800.011 -429.104 723.721 -447.361C657.549 -462.649 593.504 -485.087 533.782 -500.326C489.492 -511.192 443.97 -508.839 455.569 -470.6C475.894 -400.25 574.452 -303.461 633.185 -229.182C672.781 -177.43 711.385 -119.791 713.213 -66.366C713.492 -57.6709 712.896 -49.0755 710.209 -42.5367C693.811 -2.6519 646.75 14.8852 586.077 24.143C459.9 43.7045 314.464 51.3637 182.151 55.4348C8.48492 60.9527 -153.812 17.049 -288.393 -14.5715C-413.675 -41.725 -530.858 -59.0778 -628.704 74.2368C-695.323 166.459 -733.597 333.451 -761.142 496.71C-788.119 661.142 -804.369 821.844 -813.782 928.603" stroke="#ECECEC" stroke-width="2" stroke-miterlimit="10"/>
<path opacity="0.8696" d="M1149.52 -592.896C1102.23 -612.605 1021.93 -604.037 995.661 -565.633C974.575 -534.237 966.695 -491.783 943.809 -464.121C907.281 -419.037 815.262 -417.364 744.974 -433.636C681.425 -447.386 615.473 -470.306 557.669 -483.668C505.509 -495.714 477.901 -483.17 482.498 -451.071C490.694 -389.618 596.743 -287.991 653.865 -214.389C691.416 -164.295 727.822 -108.335 727.579 -56.817C727.522 -48.4082 726.592 -40.0867 723.67 -33.7596C705.61 5.30853 657.73 21.9741 596.963 31.0178C469.809 50.2207 327.633 57.367 195.772 64.4659C24.1262 73.7885 -138.799 37.0336 -274.993 6.34438C-404.136 -20.6173 -523.909 -40.0368 -624.02 87.3342C-691.514 174.574 -730.752 343.045 -759.37 509.454C-787.38 676.924 -804.767 842.329 -814.462 947.94" stroke="#ECECEC" stroke-width="2" stroke-miterlimit="10"/>
<path opacity="0.8478" d="M1169.04 -584.914C1122.55 -604.089 1044.61 -593.793 1018.53 -555.459C997.313 -523.687 988.725 -481.108 965.537 -453.265C928.362 -407.685 836.688 -404.685 766.502 -419.886C703.912 -432.533 638.858 -454.816 581.68 -466.947C530.275 -477.883 504.85 -463.294 509.477 -431.764C518.024 -370.231 619.162 -272.782 674.315 -199.855C709.815 -151.382 743.964 -97.0977 741.668 -47.482C741.277 -39.3521 740.014 -31.2994 736.856 -25.1765C717.048 13.2367 667.323 28.8839 606.908 37.4694C479.775 55.8331 341.17 61.9635 209.036 73.0539C39.6267 87.2942 -125.091 56.1767 -261.372 26.8744C-394.583 0.253827 -516.754 -21.0356 -619.201 100.354C-687.395 182.427 -727.648 352.489 -757.42 522.215C-786.539 692.867 -805.179 863.186 -815.119 967.168" stroke="#ECECEC" stroke-width="2" stroke-miterlimit="10"/>
<path opacity="0.8261" d="M1188.36 -577C1142.7 -595.61 1067.26 -583.499 1041.42 -545.33C1020.1 -513.206 1010.79 -470.558 987.317 -442.555C949.52 -396.515 858.343 -392.12 788.292 -406.159C726.848 -417.593 662.105 -439.308 605.788 -450.184C555.232 -459.998 531.875 -443.574 536.482 -412.675C545.269 -351.204 641.501 -257.745 694.525 -185.592C727.978 -138.7 759.81 -86.0917 755.484 -38.3758C754.758 -30.5174 752.487 -23.2441 749.775 -16.7999C733.942 21.3145 668.412 36.3765 616.352 43.5875C489.303 62.1106 353.035 67.4915 221.931 81.2139C55.1681 98.614 -109.762 75.0088 -247.556 46.9515C-384.916 20.8339 -509.48 -2.07163 -614.241 113.26C-682.972 190.054 -724.299 361.949 -755.308 535.213C-785.626 709.247 -805.624 884.652 -815.73 986.262" stroke="#ECECEC" stroke-width="2" stroke-miterlimit="10"/>
<path opacity="0.8043" d="M1207.44 -569.174C1164.32 -586.465 1089.28 -574.045 1064.28 -535.273C1043.12 -501.869 1032.8 -460.174 1009.1 -432.023C970.714 -385.554 880.183 -379.718 810.309 -392.496C749.921 -402.695 685.436 -423.776 629.943 -433.402C580.327 -442.067 558.896 -424.005 563.467 -393.798C572.443 -332.572 664.068 -242.685 714.461 -171.616C745.234 -127.012 775.877 -74.8419 769.011 -29.504C767.85 -21.9369 765.332 -14.8703 762.412 -8.63784C745.833 27.4149 675.133 42.5068 625.318 49.3867C498.371 68.0641 364.481 72.7877 234.43 88.9602C70.5075 109.216 -94.3483 93.1659 -233.602 66.5129C-375.227 41.0775 -502.094 16.7801 -609.156 126.021C-678.245 197.474 -720.712 371.436 -753.045 548.447C-784.647 726.049 -806.117 906.701 -816.305 1005.2" stroke="#ECECEC" stroke-width="2" stroke-miterlimit="10"/>
<path opacity="0.7826" d="M1226.24 -561.445C1183.93 -578.248 1114.23 -564.57 1087.07 -525.315C1063.89 -491.289 1055.06 -447.266 1030.85 -421.704C988.431 -376.436 907.196 -368.032 832.534 -378.948C773.922 -387.115 709.905 -407.65 654.103 -416.632C604.743 -424.682 585.937 -404.647 590.39 -375.143C599.389 -314.26 686.152 -228.032 734.103 -157.946C762.865 -114.839 791.023 -64.3166 782.236 -20.8835C780.745 -13.5803 778.47 -6.49627 774.753 -0.704525C752.953 33.6874 686.142 47.472 633.819 54.8823C507.012 73.7091 374.983 78.7439 246.505 96.3059C85.3408 118.158 -77.4901 110.763 -219.564 85.4918C-365.596 60.435 -497.917 42.6165 -603.956 138.599C-656.951 186.113 -697.261 329.92 -723.358 442.67C-769.732 647.089 -796.63 847.977 -816.842 1023.97" stroke="#ECECEC" stroke-width="2" stroke-miterlimit="10"/>
<path opacity="0.7609" d="M1244.74 -553.833C1203.26 -569.971 1136.32 -554.217 1109.72 -515.49C1086.54 -481.19 1076.9 -437.368 1052.51 -411.634C1009.68 -365.945 929.139 -356.187 854.932 -365.567C797.575 -372.394 732.626 -392.459 678.227 -399.909C634.1 -405.855 609.621 -388.196 617.211 -356.717C632.942 -290.309 708.069 -213.577 753.426 -144.602C780.193 -102.942 805.795 -54.0727 795.149 -12.5271C793.329 -5.48039 790.42 1.01351 785.524 6.27986C755.847 38.3959 695.514 52.2727 641.895 60.0913C515.355 79.1149 382.538 81.7767 258.107 103.211C103.252 129.649 -63.0914 126.669 -205.495 103.821C-355.791 80.8902 -491.697 49.9918 -598.654 150.956C-729.522 279.62 -790.031 844.705 -817.343 1042.54" stroke="#ECECEC" stroke-width="2" stroke-miterlimit="10"/>
<path opacity="0.7391" d="M1262.89 -546.351C1219.62 -562.797 1158.77 -541.799 1132.18 -505.821C1108.65 -473.232 1098.63 -427.707 1074.05 -401.846C1030.87 -355.786 951.149 -344.641 877.471 -352.402C821.321 -357.87 755.236 -377.392 702.261 -383.271C659.341 -387.925 636.953 -369.235 643.882 -338.535C658.344 -273.529 730.202 -198.117 772.406 -131.609C797.312 -91.5299 820.175 -44.1328 807.74 -4.44965C805.598 2.35552 800.071 7.27328 794.871 12.3479C763.228 43.4156 703.355 57.0782 649.56 65.0263C523.595 84.1769 392.808 82.8821 268.203 108.021C114.113 138.875 -50.2114 141.467 -191.455 121.43C-274.193 109.592 -350.983 98.1458 -421.115 102.351C-478.962 105.94 -541.253 110.802 -592.689 165.869C-733.539 324.136 -787.843 849.095 -817.793 1060.9" stroke="#ECECEC" stroke-width="2" stroke-miterlimit="10"/>
<path opacity="0.7174" d="M1280.65 -539.013C1238.49 -554.598 1180.25 -531.672 1154.4 -496.337C1130.69 -463.265 1122.1 -418.972 1095.42 -392.372C1048.85 -345.747 973.187 -333.608 900.122 -339.504C844.54 -343.735 779.326 -362.716 726.167 -366.762C677.973 -370.612 667.31 -348.7 670.363 -320.617C676.447 -263.514 752.076 -184.078 791.025 -118.987C813.342 -81.0297 837.655 -32.3726 817.828 1.98693C814.505 7.72638 809.277 13.1421 803.788 18.0424C770.296 48.1241 710.851 61.6174 656.851 69.7025C531.648 88.9551 400.853 87.1225 277.782 112.54C124.173 144.111 -32.7603 155.959 -177.511 138.247C-261.474 127.861 -340.217 115.959 -411.481 119.144C-471.714 122.119 -532.597 125.068 -586.581 182.071C-730.399 341.827 -786.337 860.285 -818.2 1079.04" stroke="#ECECEC" stroke-width="2" stroke-miterlimit="10"/>
<path opacity="0.6957" d="M1298 -531.834C1258.19 -548.256 1200.42 -519.753 1176.32 -487.066C1152.71 -454.066 1143.28 -409.926 1116.57 -383.243C1069.85 -336.349 995.201 -322.789 922.842 -326.929C867.283 -329.858 802.21 -347.412 749.892 -350.443C703.846 -353.254 693.724 -330.378 696.603 -303.003C702.46 -246.647 773.239 -170.523 809.259 -106.779C829.049 -71.204 851.376 -24.1106 827.275 7.89334C823.1 13.4062 818.064 18.6302 812.304 23.3762C777.066 52.5341 718.211 65.5294 663.792 74.1274C538.742 94.3287 408.717 91.1764 286.86 116.789C134.1 148.783 -16.4417 169.258 -163.734 154.196C-248.796 145.371 -329.449 133.128 -401.792 135.394C-464.178 137.749 -524.065 140.252 -580.446 198.963C-727.03 359.69 -784.734 871.346 -818.56 1096.93" stroke="#ECECEC" stroke-width="2" stroke-miterlimit="10"/>
<path opacity="0.6739" d="M1314.88 -524.83C1276.22 -540.22 1221.13 -509.882 1197.89 -478.04C1174.45 -444.896 1164.15 -401.238 1137.46 -374.501C1090.67 -327.408 1017.15 -312.408 945.591 -314.738C889.939 -316.297 824.798 -332.39 773.387 -334.372C729.632 -336.162 719.876 -312.42 722.555 -285.727C728.105 -230.248 794.119 -157.286 827.078 -95.0108C846.104 -58.4253 862.321 -18.4658 836.3 13.4087C831.879 18.7821 826.462 23.7696 820.444 28.3687C783.583 56.67 725.055 69.5956 670.401 78.3181C546.143 98.5667 416.157 95.2525 295.453 120.785C144.439 152.635 -1.21981 181.177 -150.291 169.001C-301.221 158.065 -462.081 97.9492 -574.277 216.421C-723.642 378.331 -783.034 882.327 -818.867 1114.56" stroke="#ECECEC" stroke-width="2" stroke-miterlimit="10"/>
<path opacity="0.6522" d="M1331.28 -518.017C1293.8 -532.297 1241.38 -500.176 1219.06 -469.283C1195.82 -436.041 1184.67 -392.934 1158.04 -366.172C1111.26 -318.949 1038.99 -302.51 968.329 -302.983C912.739 -303.105 847.935 -317.405 796.946 -318.439C754.824 -319.38 745.728 -294.776 748.177 -268.835C753.346 -214.374 814.697 -144.43 844.473 -83.7212C862.114 -47.1082 872.406 -12.0864 844.949 18.553C840.265 23.7372 834.515 28.5678 828.257 33.0374C789.877 60.5444 731.623 73.4326 676.718 82.2846C553.241 102.591 422.906 99.0871 303.591 124.55C156.529 155.764 10.7783 191.678 -137.191 182.841C-291.657 174.985 -452.318 113.669 -568.085 234.309C-720.122 397.307 -781.237 893.166 -819.128 1131.91" stroke="#ECECEC" stroke-width="2" stroke-miterlimit="10"/>
<path opacity="0.6304" d="M1347.14 -511.409C1310.88 -524.491 1261.13 -490.667 1239.77 -460.822C1216.71 -427.563 1204.65 -386.966 1178.25 -358.286C1134.61 -310.386 1057.53 -291.699 991.011 -291.718C934.513 -291.268 872.713 -302.221 820.988 -302.57C778.973 -302.993 771.235 -277.456 773.42 -252.384C778.196 -199.053 831.376 -133.061 861.418 -72.9496C879.048 -37.3401 880.536 -4.14592 853.255 23.3462C848.257 28.3635 842.259 33.0522 835.768 37.4022C795.972 64.1822 737.754 77.4016 682.759 86.0419C560.887 105.626 429.009 103.111 311.288 128.105C168.023 158.292 21.1962 199.755 -124.57 195.44C-281.942 192.091 -442.807 129.866 -561.867 252.508C-716.453 416.532 -779.337 903.845 -819.33 1148.96" stroke="#ECECEC" stroke-width="2" stroke-miterlimit="10"/>
<path opacity="0.6087" d="M1362.44 -505.022C1325.37 -513.216 1282.02 -484.24 1259.97 -452.689C1237.16 -419.435 1224.34 -379.429 1198.05 -350.883C1154.41 -303.043 1079.24 -282.904 1013.58 -281.009C957.622 -278.997 897.918 -287.234 845.092 -287.094C807.308 -287.005 792.613 -262.346 798.23 -236.44C810.703 -179.711 855.326 -120.055 877.888 -62.7454C890.998 -28.9362 890.563 1.37957 861.249 27.8059C855.852 32.644 849.717 37.2306 843.003 41.4735C801.868 67.5812 743.831 80.7981 688.545 89.5953C567.335 109.304 435.37 106.819 318.56 131.46C177.503 161.033 32.6498 204.711 -112.745 206.369C-274.572 209.885 -432.458 145.872 -555.626 270.91C-712.633 435.927 -777.328 914.353 -819.475 1165.71" stroke="#ECECEC" stroke-width="2" stroke-miterlimit="10"/>
<path opacity="0.587" d="M1377.13 -498.869C1341.66 -506.359 1300.41 -475.57 1279.59 -444.908C1257.13 -411.156 1243.52 -372.367 1217.38 -343.991C1173.82 -296.288 1100.69 -274.747 1035.99 -270.91C980.634 -267.264 922.129 -272.916 869.249 -272.09C831.253 -271.52 817.425 -246.527 822.571 -221.082C833.874 -166.095 876.804 -107.391 893.874 -53.1541C903.627 -21.7078 898.097 7.78374 868.98 31.9542C863.31 36.6503 856.936 41.1273 850.011 45.2756C807.617 70.7708 749.706 84.0076 694.116 92.9641C573.519 112.799 441.49 110.439 325.447 134.644C186.221 163.526 43.0218 209.15 -101.629 216.249C-266.708 226.231 -422.948 162.525 -549.375 289.408C-708.591 455.204 -775.211 924.654 -819.562 1182.13" stroke="#ECECEC" stroke-width="2" stroke-miterlimit="10"/>
<path opacity="0.5652" d="M1391.18 -492.968C1357.02 -498.812 1316.96 -466.332 1298.58 -437.505C1278.05 -404.349 1260.17 -365.228 1236.19 -337.637C1196.02 -290.586 1121.8 -267.105 1058.18 -261.475C1003.49 -256.159 945.701 -259.777 893.409 -257.635C855.418 -256.109 841.551 -232.17 846.375 -206.389C856.479 -153.165 894.165 -97.4437 909.336 -44.2224C917.658 -14.9151 903.379 15.1865 876.461 35.8111C870.527 40.3778 863.924 44.7602 856.796 48.8264C813.216 73.7637 755.379 87.0404 699.474 96.1588C579.435 116.129 447.368 113.977 331.946 137.67C194.226 165.812 52.6755 212.878 -91.2061 225.138C-258.493 241.371 -414.281 179.556 -543.117 307.908C-704.504 474.773 -772.93 934.858 -819.588 1198.22" stroke="#ECECEC" stroke-width="2" stroke-miterlimit="10"/>
<path opacity="0.5435" d="M1404.56 -487.333C1371.73 -491.479 1334.43 -458.105 1316.9 -430.509C1296.53 -397.439 1278.36 -357.41 1254.44 -331.85C1211.97 -285.927 1145.2 -262.008 1080.09 -252.765C1027.45 -245.071 969.318 -247.449 917.55 -243.821C879.225 -241.147 864.248 -219.083 869.617 -192.457C879.953 -141.335 914.135 -89.9712 922.247 -37.716C926.769 -8.00782 911.118 19.7432 883.747 39.3943C877.563 43.8489 870.739 48.1442 863.412 52.1357C818.713 76.57 760.894 89.9065 704.664 99.1892C585.106 119.301 453.071 117.431 338.105 140.556C201.571 167.906 61.5238 216.065 -81.4656 233.096C-250.021 255.135 -406.279 196.795 -536.864 326.317C-700.226 494.235 -770.594 944.766 -819.555 1213.94" stroke="#ECECEC" stroke-width="2" stroke-miterlimit="10"/>
<path opacity="0.5217" d="M1417.23 -481.979C1385.78 -484.315 1351.15 -450.282 1334.47 -423.945C1314.27 -391.062 1295.8 -352.096 1272.05 -326.666C1229.95 -281.074 1165.09 -255.982 1101.65 -244.847C1049.79 -235.537 992.747 -235.853 941.623 -230.751C903.793 -226.973 887.033 -206.727 892.24 -179.412C901.459 -131.081 931.64 -81.1341 934.636 -31.8869C936.352 -2.46754 918.714 23.8866 890.867 42.7085C884.443 47.066 877.402 51.2841 869.886 55.2108C824.12 79.1945 766.278 92.6032 709.706 102.053C590.559 122.314 458.601 120.797 343.939 143.302C208.312 169.833 69.6205 218.757 -72.3821 240.178C-241.551 267.558 -398.826 214.088 -530.615 344.554C-695.788 513.57 -768.137 954.467 -819.452 1229.31" stroke="#ECECEC" stroke-width="2" stroke-miterlimit="10"/>
<path opacity="0.5" d="M1429.15 -476.922C1399.12 -477.333 1367.1 -442.911 1351.25 -417.837C1331.24 -385.203 1312.52 -347.367 1288.98 -322.104C1247.32 -276.935 1184.46 -250.743 1122.81 -237.763C1071.77 -226.652 1009.22 -227.668 965.568 -218.505C926.094 -210.251 912.961 -197.733 914.196 -167.353C915.671 -126.734 947.672 -73.0815 946.662 -26.6006C946.013 2.2983 926.202 27.6639 897.847 45.7911C891.187 50.064 883.939 54.2123 876.238 58.0842C829.458 81.6645 771.542 95.1604 714.614 104.779C595.81 125.197 463.965 124.104 349.466 145.944C214.499 171.621 77.0243 221 -63.9402 246.443C-236.013 279.129 -392.601 236.548 -524.39 362.544C-687.559 522.517 -765.503 962.9 -819.284 1244.29" stroke="#ECECEC" stroke-width="2" stroke-miterlimit="10"/>
<path opacity="0.4783" d="M1440.3 -472.164C1411.74 -470.603 1382.67 -436.251 1367.17 -412.212C1346.75 -379.668 1328.49 -343.354 1305.16 -318.195C1264.04 -273.457 1203.12 -246.224 1143.47 -231.578C1093.05 -218.836 1032.42 -216.578 989.331 -207.188C950.714 -198.762 935.352 -186.085 935.446 -156.419C935.451 -118.238 963.144 -65.6938 958.402 -21.8225C955.324 6.64572 933.621 31.0901 904.724 48.6495C897.836 52.8527 890.387 56.9388 882.502 60.7634C834.748 83.9876 776.714 97.583 719.421 107.374C600.885 127.956 469.19 127.346 354.72 148.494C220.18 173.286 83.7941 222.832 -56.1095 251.938C-227.331 288.954 -386.01 253.308 -518.193 380.21C-682.962 541.802 -762.827 972.218 -819.048 1258.88" stroke="#ECECEC" stroke-width="2" stroke-miterlimit="10"/>
<path opacity="0.4565" d="M1451.02 -467.547C1433.13 -469.066 1401.7 -437.824 1382.18 -407.098C1362.24 -375.233 1345.15 -341.957 1321.87 -315.02C1281.07 -267.653 1219.44 -241.918 1163.58 -226.349C1113.96 -212.175 1055.56 -207.395 1012.83 -196.902C974.787 -187.544 957.333 -175.129 955.932 -146.758C954.099 -111.121 978.052 -59.013 969.909 -17.5246C964.42 10.5576 941.012 34.1951 911.527 51.3014C904.42 55.4423 896.768 59.4786 888.704 63.2634C840.012 86.1739 781.816 99.8788 724.143 109.844C605.801 130.6 474.288 130.531 359.715 150.961C225.405 174.855 89.9887 224.294 -48.8616 256.724C-218.943 297.582 -379.655 269.667 -512.032 397.496C-678.225 560.793 -760.03 981.319 -818.737 1273.06" stroke="#ECECEC" stroke-width="2" stroke-miterlimit="10"/>
<path opacity="0.4348" d="M1461.46 -463.035C1444.72 -463.643 1415.26 -432.71 1396.31 -402.489C1377.01 -371.319 1360.77 -338.837 1338.35 -312.234C1299.03 -265.404 1239.9 -238.554 1186.06 -222.123C1136.66 -206.705 1079.08 -199.544 1035.99 -187.746C1008.36 -179.813 973.312 -166.606 975.817 -138.481C979.407 -98.2778 991.382 -52.8203 981.253 -13.6651C974.184 13.7772 948.424 37.0239 918.284 53.7617C910.957 57.8527 903.111 61.8442 894.871 65.5966C845.266 88.2332 786.876 102.058 728.801 112.197C610.574 133.138 479.138 133.599 364.478 153.357C230.37 176.414 95.4291 225.427 -42.1685 260.852C-210.611 305.127 -372.575 286.313 -505.914 414.339C-673.807 577.939 -757.66 993.642 -818.35 1286.83" stroke="#ECECEC" stroke-width="2" stroke-miterlimit="10"/>
<path opacity="0.413" d="M1471.66 -458.623C1456 -458.329 1428.15 -427.792 1410.03 -398.158C1391.61 -367.656 1375.92 -335.983 1354.43 -309.781C1317.23 -264.219 1260.75 -235.89 1208.92 -218.647C1158.96 -201.692 1102.28 -193.052 1058.71 -179.825C1031.4 -171.187 995.907 -157.629 995.595 -131.439C995.186 -93.2429 1005.58 -47.8975 992.491 -10.2113C983.08 16.9595 955.866 39.5787 925.026 56.0476C917.484 60.0963 909.441 64.0504 901.027 67.7755C850.532 90.173 791.907 104.124 733.42 114.441C615.227 135.571 484.047 136.669 369.037 155.692C234.837 177.853 100.665 226.257 -35.9995 264.373C-203.031 311.614 -366.557 301.517 -499.855 430.686C-668.793 596.241 -754.628 1002.13 -817.893 1300.16" stroke="#ECECEC" stroke-width="2" stroke-miterlimit="10"/>
<path opacity="0.3913" d="M1481.61 -454.303C1466.97 -453.13 1440.68 -423.053 1423.37 -394.045C1405.84 -364.22 1390.74 -331.524 1370.13 -307.639C1332.9 -264.383 1283.2 -235.681 1231.4 -215.846C1183.03 -197.138 1126.69 -186.668 1083.05 -173.065C1055.62 -164.176 1019.85 -151.17 1016.71 -125.362C1012.13 -87.4861 1019.62 -43.6895 1003.68 -7.11891C991.949 19.8204 963.385 41.9042 931.778 58.1863C924.021 62.2027 915.786 66.1269 907.199 69.8295C855.832 92.0204 796.939 106.106 738.02 116.604C619.793 137.931 488.876 139.709 373.413 158C238.981 179.26 105.479 226.824 -30.3187 267.341C-195.821 317.139 -360.621 316.036 -493.859 446.492C-663.655 614.094 -751.476 1010.38 -817.359 1313.06" stroke="#ECECEC" stroke-width="2" stroke-miterlimit="10"/>
<path opacity="0.3696" d="M1491.34 -450.073C1477.66 -448.038 1452.87 -418.489 1436.37 -390.138C1419.68 -361.05 1405.17 -329.305 1385.47 -305.789C1350.05 -263.4 1302.84 -234.404 1253.5 -213.689C1206.77 -193.904 1152.76 -181.663 1109.89 -167.241C1082.21 -157.617 1046.59 -144.547 1039.45 -120.043C1028.72 -83.1685 1033.61 -40.0517 1014.89 -4.36999C1000.85 22.3751 971.011 44.0157 938.575 60.1733C930.604 64.1648 922.173 68.1762 913.414 71.7518C861.055 93.1558 802.302 107.934 742.624 118.671C624.293 140.199 493.649 142.699 377.637 160.266C242.859 180.647 109.925 227.148 -25.0829 269.799C-110.391 296.895 -187.349 316.77 -270.167 339.198C-349.144 360.975 -420.128 395.16 -487.926 461.711C-658.391 631.446 -748.201 1018.39 -816.737 1325.5" stroke="#ECECEC" stroke-width="2" stroke-miterlimit="10"/>
<path opacity="0.3478" d="M1500.85 -445.927C1488.07 -443.063 1465.24 -414.341 1449.03 -386.423C1432.84 -358.246 1420.26 -328.262 1400.45 -304.206C1366.2 -262.608 1322.1 -233.599 1275.22 -212.128C1230.26 -191.414 1178.62 -177.609 1136.75 -162.425C1108.92 -152.059 1073.83 -138.823 1063.36 -115.514C1047.15 -79.3414 1047.59 -36.8521 1026.16 -1.91742C1009.83 24.6708 978.762 45.9503 945.435 62.0457C937.249 66.0173 928.623 70.0013 919.69 73.5744C866.511 94.8789 807.339 109.759 747.246 120.67C628.747 142.41 498.371 145.662 381.725 162.522C246.507 182.044 114.044 227.28 -20.2637 271.801C-103.887 299.612 -182.1 324.118 -264.317 348.734C-343.223 372.643 -414.345 409.075 -482.074 476.31C-653.019 648.266 -744.813 1026.15 -816.039 1337.49" stroke="#ECECEC" stroke-width="2" stroke-miterlimit="10"/>
<path opacity="0.3261" d="M1510.16 -441.858C1498.23 -438.163 1476.77 -410.076 1461.38 -382.885C1445.99 -355.462 1433.88 -327.614 1415.11 -302.866C1383.25 -260.887 1339.83 -232.573 1296.56 -211.125C1253.59 -189.698 1204.44 -175 1163.56 -158.578C1135.55 -147.112 1101.54 -134.057 1088.32 -111.786C1066.85 -75.6437 1061.89 -34.4018 1037.56 0.268951C1018.94 26.7302 986.672 47.7284 952.391 63.8088C943.99 67.7679 935.168 71.727 926.059 75.3026C872.056 96.5299 812.442 111.517 751.915 122.605C633.187 144.559 503.063 148.596 385.708 164.776C249.974 183.471 117.881 227.25 -15.8205 273.402C-97.994 301.803 -177.327 330.779 -258.905 357.606C-337.591 383.669 -408.738 422.346 -476.296 490.261C-647.535 664.516 -741.298 1033.64 -815.249 1349" stroke="#ECECEC" stroke-width="2" stroke-miterlimit="10"/>
<path opacity="0.3043" d="M1519.28 -437.864C1508.15 -433.357 1488.02 -405.947 1473.44 -379.513C1458.85 -352.858 1447.23 -325.904 1429.46 -301.758C1399.86 -261.517 1358.96 -232.282 1317.53 -210.642C1275.59 -188.65 1231.75 -171.202 1190.29 -155.66C1163.6 -145.376 1128.09 -127.909 1114.17 -108.868C1087.82 -72.4939 1076.53 -32.482 1049.11 2.2186C1028.23 28.5852 994.764 49.3717 959.46 65.4795C950.84 69.4311 941.82 73.3678 932.532 76.9509C877.698 98.1184 817.624 113.218 756.639 124.483C637.62 146.658 507.731 151.499 389.607 167.032C253.3 184.94 121.481 227.09 -11.7094 274.64C-92.7606 303.568 -172.95 336.73 -253.927 365.808C-332.256 394.035 -403.275 434.946 -470.602 503.535C-642.031 680.208 -737.621 1041.01 -814.375 1360.03" stroke="#ECECEC" stroke-width="2" stroke-miterlimit="10"/>
<path opacity="0.2826" d="M1528.22 -433.94C1517.85 -428.634 1499.01 -401.951 1485.22 -376.296C1471.43 -350.428 1460.31 -324.375 1443.52 -300.857C1415.65 -261.791 1377.24 -232.678 1338.13 -210.639C1298.27 -188.1 1256.59 -169.893 1216.88 -153.616C1190.54 -142.575 1156.36 -125.259 1140.75 -106.754C1109.83 -69.8071 1091.53 -30.9482 1060.88 3.96413C1037.72 30.2635 1003.05 50.9007 966.665 67.0757C957.821 71.0223 948.603 74.9441 939.13 78.5346C883.456 99.6598 822.903 114.869 761.436 126.318C642.069 148.72 512.392 154.38 393.442 169.308C256.527 186.479 124.881 226.842 -7.89753 275.568C-88.2712 305.04 -168.839 341.267 -249.382 373.348C-327.339 404.481 -397.801 446.659 -464.998 516.11C-636.35 695.218 -733.868 1047.93 -813.414 1370.58" stroke="#ECECEC" stroke-width="2" stroke-miterlimit="10"/>
<path opacity="0.2609" d="M1537 -430.08C1527.34 -423.99 1509.76 -398.076 1496.76 -373.221C1483.76 -348.144 1473.2 -321.688 1457.31 -300.145C1429.47 -262.503 1396.48 -234.914 1358.37 -211.075C1321.69 -188.169 1281.84 -169.151 1243.32 -152.396C1217.01 -140.747 1184.84 -123.484 1167.95 -105.439C1132.64 -67.4616 1107.03 -29.7904 1072.91 5.53526C1047.22 32.0538 1011.17 52.0011 974.04 68.6045C965.131 72.6009 955.546 76.4604 945.89 80.0609C889.361 101.154 828.31 116.477 766.339 128.108C646.571 150.742 517.075 157.226 397.253 171.601C259.697 188.1 128.128 226.54 -4.33373 276.233C-84.4773 306.282 -165.038 344.469 -245.248 380.238C-322.679 414.876 -392.358 457.527 -459.474 527.97C-630.565 709.563 -729.985 1054.56 -812.35 1380.62" stroke="#ECECEC" stroke-width="2" stroke-miterlimit="10"/>
<path opacity="0.2391" d="M1545.62 -426.281C1536.65 -419.416 1520.3 -394.311 1508.07 -370.273C1495.84 -346.023 1485.79 -320.57 1470.83 -299.602C1444.81 -263.176 1413.93 -235.828 1378.26 -211.909C1343.73 -188.782 1306.03 -169.228 1269.55 -151.94C1243.92 -139.619 1213.42 -122.533 1195.64 -104.901C1156.67 -65.9377 1121.59 -28.518 1085.23 6.96953C1058.25 33.3486 1019.96 53.4354 981.59 70.0935C972.427 74.0875 962.659 77.942 952.808 81.5525C895.408 102.625 833.843 118.058 771.34 129.876C651.119 152.744 521.767 160.06 401.04 173.936C262.836 189.828 131.157 226.251 -0.994795 276.681C-81.0387 307.209 -161.394 348.411 -241.495 386.386C-317.545 422.446 -388.017 468.633 -454.046 539.105C-624.547 722.73 -725.984 1060.83 -811.205 1390.15" stroke="#ECECEC" stroke-width="2" stroke-miterlimit="10"/>
<path opacity="0.2174" d="M1554.11 -422.536C1545.78 -414.911 1530.63 -390.649 1519.17 -367.442C1507.68 -344.043 1498 -320.884 1484.13 -299.213C1461.18 -263.352 1429.2 -235.559 1397.81 -213.104C1365.45 -189.868 1329.44 -170.129 1295.56 -152.194C1268.26 -137.607 1240.41 -120.952 1223.71 -105.125C1181.65 -64.8447 1136.3 -27.044 1097.9 8.29157C1069.54 34.5934 1029.03 54.8122 989.352 71.55C979.933 75.544 969.97 79.396 959.923 83.019C901.636 104.077 839.534 119.622 776.481 131.626C655.757 154.731 526.514 162.868 404.854 176.319C266.006 191.67 133.716 226.114 2.18811 276.96C-151.544 335.565 -317.238 404.836 -448.69 549.513C-618.587 735.708 -721.852 1066.84 -809.95 1399.18" stroke="#ECECEC" stroke-width="2" stroke-miterlimit="10"/>
<path opacity="0.1957" d="M1562.47 -418.838C1554.76 -410.462 1540.79 -387.07 1530.08 -364.71C1519.35 -342.163 1510.15 -319.885 1497.21 -298.957C1476.97 -266.049 1445.9 -235.815 1417.04 -214.621C1386.04 -191.655 1353.19 -171.329 1321.32 -153.095C1295.5 -138.217 1269 -121.604 1252.04 -106.074C1207.12 -64.2968 1151.5 -25.535 1110.95 9.53919C1081 35.8261 1038.38 56.157 997.331 72.9944C987.649 76.9883 977.487 80.8379 967.24 84.4782C908.037 105.526 845.389 121.176 781.76 133.374C660.487 156.721 531.313 165.665 408.699 178.765C269.223 193.667 136.245 226.045 5.23569 277.122C-147.627 335.849 -312.069 412.008 -443.421 559.197C-612.543 747.956 -717.601 1072.53 -808.6 1407.69" stroke="#ECECEC" stroke-width="2" stroke-miterlimit="10"/>
<path opacity="0.1739" d="M1570.72 -415.188C1563.59 -406.069 1550.8 -383.577 1540.83 -362.076C1530.83 -340.393 1522.12 -318.996 1510.1 -298.822C1491.34 -267.214 1462.77 -237.653 1435.96 -216.426C1407.2 -193.493 1376.72 -173.207 1346.82 -154.584C1322.5 -139.363 1297.55 -122.991 1280.54 -107.715C1233.45 -64.4137 1166.34 -23.8217 1124.4 10.737C1093.3 37.0264 1048.06 57.5017 1005.56 74.4361C995.605 78.4326 985.238 82.2796 974.782 85.935C914.641 106.975 851.424 122.727 787.201 135.115C665.326 158.708 536.173 168.449 412.608 181.265C272.549 195.789 138.791 226.062 8.2012 277.197C-144.176 335.991 -306.879 418.313 -438.223 568.146C-606.31 759.271 -713.219 1078.01 -807.148 1415.66" stroke="#ECECEC" stroke-width="2" stroke-miterlimit="10"/>
<path opacity="0.1522" d="M1578.86 -411.575C1572.3 -401.724 1560.66 -380.153 1551.43 -359.521C1542.16 -338.71 1533.93 -318.2 1522.8 -298.79C1505.5 -268.487 1479.38 -239.68 1454.58 -218.48C1428.08 -195.674 1399.85 -175.261 1372.04 -156.596C1349.35 -141.31 1325.91 -124.993 1309.12 -110.001C1256.48 -62.4842 1190.51 -25.184 1138.3 11.9195C1101.49 38.3135 1058.04 58.7365 1014.03 75.8926C1003.8 79.8891 993.228 83.7336 982.559 87.4039C921.454 108.434 857.655 124.283 792.812 136.868C670.293 160.709 541.112 171.23 416.604 183.839C276.01 198.077 141.386 226.209 11.1209 277.239C-141.231 336.085 -301.733 423.746 -433.095 576.38C-600.067 769.988 -708.732 1083.04 -805.588 1423.1" stroke="#ECECEC" stroke-width="2" stroke-miterlimit="10"/>
<path opacity="0.1304" d="M1586.92 -407.997C1580.91 -397.417 1570.41 -376.792 1561.9 -357.036C1553.36 -337.106 1545.68 -317.515 1535.35 -298.847C1519 -269.261 1496.61 -243.231 1472.94 -220.756C1449.24 -198.251 1423.66 -178.538 1396.97 -159.076C1375.94 -143.695 1354.1 -127.593 1337.71 -112.889C1280.54 -61.1894 1212 -22.0416 1152.68 13.1098C1112.49 37.1258 1068.55 60.0314 1022.79 77.3742C1012.28 81.3707 1001.49 85.2152 990.597 88.8979C928.497 109.918 864.061 125.862 798.618 138.633C675.491 162.714 546.151 174.004 420.715 186.488C279.651 200.532 144.073 226.52 14.0455 277.286C-138.638 336.142 -296.505 428.285 -428.02 583.905C-593.973 780.222 -704.115 1087.77 -803.919 1430" stroke="#ECECEC" stroke-width="2" stroke-miterlimit="10"/>
<path opacity="0.1087" d="M1594.91 -404.446C1589.42 -393.141 1580.06 -373.48 1572.27 -354.606C1564.45 -335.565 1557.24 -316.86 1547.77 -298.977C1532.77 -270.633 1512.56 -245.365 1491.03 -223.211C1469.5 -201.033 1446.16 -181.324 1421.63 -161.95C1402.3 -146.649 1382.11 -130.733 1366.25 -116.318C1305.83 -60.8906 1230.98 -19.95 1167.57 14.3472C1125.5 37.4021 1079.28 61.4556 1031.85 78.903C1021.04 82.8994 1010.02 86.7365 998.903 90.4342C935.776 111.437 870.642 127.478 804.624 140.428C680.929 164.738 551.282 176.792 424.956 189.227C283.509 203.164 146.878 227.036 17.0111 277.396C-136.366 336.19 -291.55 432.264 -422.996 590.75C-587.509 789.357 -699.362 1092.05 -802.142 1436.36" stroke="#ECECEC" stroke-width="2" stroke-miterlimit="10"/>
<path opacity="0.087" d="M1602.83 -400.92C1597.86 -388.896 1589.63 -370.211 1582.56 -352.225C1575.44 -334.073 1568.71 -316.262 1560.07 -299.166C1546.39 -272.075 1528.3 -247.606 1508.89 -225.821C1489.48 -204.013 1468.36 -184.375 1446.01 -165.162C1428.39 -149.998 1409.91 -134.346 1394.67 -120.227C1331.84 -61.5205 1253.91 -19.1606 1185.62 15.0545C1139.96 38.2264 1091.09 62.6583 1041.21 80.4867C1030.09 84.4782 1018.83 88.3177 1007.49 92.0204C943.387 112.976 877.461 129.129 810.844 142.259C686.551 166.798 556.516 179.604 429.359 192.059C287.63 205.963 149.851 227.785 20.0638 277.598C-134.307 336.252 -286.682 435.576 -418.006 596.933C-580.962 797.729 -694.474 1095.96 -800.252 1442.17" stroke="#ECECEC" stroke-width="2" stroke-miterlimit="10"/>
<path opacity="0.0652" d="M1610.7 -397.414C1606.24 -384.673 1599.14 -366.974 1592.78 -349.882C1586.37 -332.627 1580.11 -315.705 1572.28 -299.405C1559.89 -273.579 1543.87 -249.939 1526.55 -228.56C1509.21 -207.163 1490.29 -187.641 1470.12 -168.655C1454.23 -153.68 1437.48 -138.372 1422.94 -124.562C1358.3 -62.7904 1278.99 -19.0361 1205.87 15.4529C1155.68 39.3619 1103.8 63.7639 1050.89 82.1426C1039.48 86.1216 1027.94 89.9612 1016.38 93.6713C951.292 114.56 884.519 130.825 817.289 144.131C692.388 168.897 562.015 182.465 433.997 195.014C291.984 208.963 153.021 228.806 23.2493 277.941C-132.372 336.359 -281.909 438.305 -413.031 602.48C-574.328 805.341 -689.453 1099.51 -798.24 1447.42" stroke="#ECECEC" stroke-width="2" stroke-miterlimit="10"/>
<path opacity="0.0435" d="M1618.54 -393.92C1614.58 -380.462 1608.62 -363.759 1602.96 -347.564C1597.25 -331.207 1591.44 -315.177 1584.41 -299.679C1573.28 -275.127 1559.28 -252.337 1544.01 -231.396C1528.72 -210.44 1511.97 -191.073 1493.98 -172.37C1479.81 -157.627 1464.82 -142.737 1451.03 -129.256C1384.86 -64.339 1304.94 -18.9189 1226.87 15.8639C1171.68 40.5796 1117.03 64.8845 1060.92 83.8857C1049.2 87.8597 1037.37 91.6894 1025.58 95.3995C959.481 116.206 891.844 132.573 823.982 146.056C698.475 171.036 567.961 185.41 438.951 198.129C296.506 212.205 156.411 230.141 26.6111 278.467C-130.391 336.499 -277.282 440.583 -408.061 607.428C-567.617 812.213 -684.296 1102.68 -796.113 1452.12" stroke="#ECECEC" stroke-width="2" stroke-miterlimit="10"/>
<path opacity="0.0217" d="M1626.35 -390.435C1622.89 -376.257 1618.08 -360.555 1613.12 -345.261C1608.12 -329.803 1602.74 -314.664 1596.49 -299.978C1586.59 -276.709 1574.58 -254.787 1561.31 -234.307C1548.04 -213.814 1533.43 -194.631 1517.61 -176.255C1505.15 -161.778 1491.91 -147.371 1478.9 -134.246C1411.46 -66.0698 1330.33 -18.9664 1248.55 16.2795C1188.79 42.0933 1130.88 66.097 1071.28 85.7257C1059.25 89.6872 1047.12 93.5069 1035.09 97.2145C967.953 117.921 899.432 134.378 830.921 148.04C704.782 173.232 574.102 188.421 444.126 201.374C301.333 215.639 160.072 231.816 30.1904 279.214C-128.269 336.685 -272.797 442.493 -403.075 611.813C-560.832 818.361 -679.009 1105.5 -793.864 1456.25" stroke="#ECECEC" stroke-width="2" stroke-miterlimit="10"/>
</g>
</g>
</g>
<defs>
<clipPath id="clip0_2634_2158">
<rect width="1917.43" height="1245" fill="white" transform="translate(0.283447)"/>
</clipPath>
</defs>
</svg>
