<svg width="500" height="500" viewBox="0 0 500 500" fill="none" xmlns="http://www.w3.org/2000/svg">
<path d="M250 442.587C357.082 442.587 443.89 437.519 443.89 431.267C443.89 425.015 357.082 419.947 250 419.947C142.917 419.947 56.11 425.015 56.11 431.267C56.11 437.519 142.917 442.587 250 442.587Z" fill="#F5F5F5"/>
<path d="M238.395 341.53H45.305C42.155 341.525 39.605 338.97 39.605 335.82V64.39C39.632 61.26 42.175 58.735 45.305 58.73H238.395C241.548 58.73 244.105 61.286 244.105 64.44V335.82C244.105 338.974 241.548 341.53 238.395 341.53ZM45.305 58.93C42.293 58.936 39.855 61.378 39.855 64.39V335.82C39.855 338.832 42.293 341.274 45.305 341.28H238.395C241.408 341.275 243.849 338.833 243.855 335.82V64.39C243.849 61.377 241.408 58.935 238.395 58.93H45.305Z" fill="#E6E6E6"/>
<path d="M454.705 341.53H261.605C258.454 341.525 255.9 338.971 255.895 335.82V64.39C255.928 61.258 258.473 58.735 261.605 58.73H454.705C457.831 58.741 460.368 61.264 460.395 64.39V335.82C460.395 338.966 457.851 341.519 454.705 341.53ZM261.605 58.93C258.592 58.936 256.15 61.377 256.145 64.39V335.82C256.15 338.833 258.592 341.274 261.605 341.28H454.705C457.718 341.275 460.159 338.833 460.165 335.82V64.39C460.159 61.377 457.718 58.935 454.705 58.93H261.605Z" fill="#E6E6E6"/>
<path d="M85.94 392.21H44.73V392.46H85.94V392.21Z" fill="#E0E0E0"/>
<path d="M169.94 390.21H128.61V390.46H169.94V390.21Z" fill="#E0E0E0"/>
<path d="M223.72 390.21H213.72V390.46H223.72V390.21Z" fill="#E0E0E0"/>
<path d="M123.77 398.75H77.52V399H123.77V398.75Z" fill="#E0E0E0"/>
<path d="M283.74 392.08H262.14V392.33H283.74V392.08Z" fill="#E0E0E0"/>
<path d="M320.57 392.08H292.64V392.33H320.57V392.08Z" fill="#E0E0E0"/>
<path d="M455.27 396.31H392.83V396.56H455.27V396.31Z" fill="#E0E0E0"/>
<path d="M500 382.398H0V382.648H500V382.398Z" fill="#EBEBEB"/>
<path opacity="0.8" d="M334.835 79.4802L332.343 113.754C332.259 114.948 331.744 116.032 330.95 116.844C330.035 117.818 328.74 118.427 327.343 118.427H299.85C298.834 118.427 297.917 118.105 297.194 117.546C296.067 116.708 295.394 115.319 295.503 113.753L297.995 79.4792C298.176 76.8972 300.413 74.8052 302.995 74.8052H330.486C333.07 74.8072 335.015 76.8982 334.835 79.4802Z" fill="#E0E0E0"/>
<path d="M322.911 94.9973C322.557 100.053 318.902 104.151 314.747 104.151C310.592 104.151 307.51 100.053 307.863 94.9973C308.217 89.9413 311.872 85.8433 316.027 85.8433C320.182 85.8433 323.264 89.9423 322.911 94.9973Z" fill="white"/>
<path d="M326.377 116.066H301.218C299.623 116.066 298.518 115.301 298.478 114.227C298.42 112.672 306.579 105.923 314.319 106.508C314.347 106.51 314.375 106.508 314.404 106.508C314.435 106.508 314.466 106.508 314.496 106.508C319.238 106.528 323.703 108.533 327.455 111.499C331.188 114.45 327.655 116.066 326.377 116.066Z" fill="white"/>
<path d="M193.021 117.18C187.669 117.247 182.956 112.943 182.514 107.587C182.073 102.23 186.068 97.8183 191.42 97.7513C196.773 97.6843 201.486 101.988 201.927 107.345C202.369 112.701 198.374 117.113 193.021 117.18ZM191.846 102.913C189.338 102.944 187.466 105.012 187.673 107.522C187.88 110.032 190.088 112.048 192.596 112.017C195.104 111.986 196.976 109.918 196.77 107.408C196.563 104.898 194.354 102.882 191.846 102.913Z" fill="#E0E0E0"/>
<path d="M193.502 102.164L189.818 102.21L187.864 78.4933L191.548 78.4473L193.502 102.164Z" fill="#E0E0E0"/>
<path d="M195.039 79.5112L188.122 79.5982L187.818 75.9102L194.735 75.8242L195.039 79.5112Z" fill="#E0E0E0"/>
<path d="M195.435 84.25L188.931 84.331L188.627 80.643L195.131 80.562L195.435 84.25Z" fill="#E0E0E0"/>
<path d="M195.996 90.9341L190.319 91.0051L190.015 87.3171L195.693 87.2461L195.996 90.9341Z" fill="#E0E0E0"/>
<path d="M79.309 318.768C79.33 319.068 79.371 319.368 79.421 319.658C79.756 321.588 80.758 323.328 82.149 324.628C83.754 326.128 85.889 327.058 88.179 327.058H172.669C176.949 327.058 180.242 323.818 180.392 319.658C180.402 319.368 180.401 319.068 180.38 318.768C180.22 316.488 179.145 314.408 177.541 312.918C175.936 311.418 173.801 310.488 171.511 310.488H87.02C82.44 310.488 78.989 314.198 79.309 318.768Z" fill="#F0F0F0"/>
<path d="M180.388 319.657C180.383 319.927 180.359 320.197 180.314 320.457C180.092 318.297 179.036 316.337 177.501 314.917C175.897 313.417 173.764 312.487 171.474 312.487L81.6221 312.627C82.9951 311.297 84.8891 310.487 87.0191 310.487H171.509C173.799 310.487 175.933 311.417 177.536 312.917C179.14 314.407 180.223 316.487 180.383 318.767C180.398 319.067 180.403 319.367 180.388 319.657Z" fill="#E0E0E0"/>
<path d="M165.93 314.484L166.213 318.526L170.001 317.123L170.86 319.118L166.992 320.394L169.694 323.785L167.948 325.062L165.318 321.538L163.217 325.062L161.347 323.785L163.539 320.394L159.528 319.118L160.106 317.135L164.125 318.487L163.845 314.484H165.93Z" fill="white"/>
<path d="M142.823 314.484L143.106 318.526L146.894 317.123L147.753 319.118L143.885 320.394L146.587 323.785L144.841 325.062L142.211 321.538L140.11 325.062L138.24 323.785L140.432 320.394L136.421 319.118L136.999 317.135L141.018 318.487L140.738 314.484H142.823Z" fill="white"/>
<path d="M119.716 314.484L119.999 318.526L123.787 317.123L124.646 319.118L120.778 320.394L123.48 323.785L121.734 325.062L119.104 321.538L117.003 325.062L115.133 323.785L117.325 320.394L113.314 319.118L113.892 317.135L117.911 318.487L117.631 314.484H119.716Z" fill="white"/>
<path d="M96.609 314.484L96.892 318.526L100.68 317.123L101.539 319.118L97.671 320.394L100.373 323.785L98.627 325.062L95.997 321.538L93.896 325.062L92.026 323.785L94.218 320.394L90.207 319.118L90.785 317.135L94.804 318.487L94.524 314.484H96.609Z" fill="white"/>
<path d="M152.735 307.569H148.797L148.815 306.569H152.752L152.735 307.569Z" fill="#E0E0E0"/>
<path d="M169.673 307.569H156.82L156.837 306.569H169.691L169.673 307.569Z" fill="#E0E0E0"/>
<g opacity="0.8">
<path d="M269.385 302.527L285.319 327.059L337.877 274.501C338.339 274.039 337.702 273.32 337.188 273.723L287.1 312.982L277.641 297.731L269.385 302.527Z" fill="#E0E0E0"/>
</g>
<path opacity="0.1" d="M259.856 127.955L222.117 269.106H234.812L272.135 127.955H259.856Z" fill="white"/>
<path opacity="0.1" d="M279.449 127.955L241.709 269.106H266.891L304.214 127.955H279.449Z" fill="white"/>
<path d="M415.31 255.315L423.271 142.011C423.534 138.268 420.698 135.235 416.936 135.239L219.202 135.411C215.44 135.414 212.177 138.452 211.914 142.195L203.953 255.499C203.69 259.242 206.526 262.275 210.288 262.271L408.022 262.099C411.784 262.095 415.047 259.058 415.31 255.315Z" fill="#263238"/>
<path d="M412.773 252.844L420.734 139.54C420.997 135.797 418.161 132.764 414.399 132.768L216.665 132.94C212.903 132.943 209.64 135.981 209.377 139.724L201.416 253.028C201.153 256.772 203.989 259.804 207.751 259.8L405.485 259.628C409.247 259.625 412.51 256.587 412.773 252.844Z" fill="#407BFF"/>
<path opacity="0.6" d="M407.531 254.516C407.249 254.779 406.76 255.094 406.038 255.095L208.304 255.266C206.974 255.267 205.889 254.109 205.982 252.789L213.943 139.486C213.993 138.774 214.338 138.313 214.62 138.05C214.903 137.787 215.391 137.473 216.113 137.471L413.848 137.3C415.178 137.299 416.263 138.456 416.17 139.777L408.209 253.08C408.157 253.793 407.812 254.254 407.531 254.516Z" fill="white"/>
<path d="M341.759 192.229H272.353C271.114 192.229 270.004 193.229 269.875 194.462L268.813 204.611C268.684 205.844 269.584 206.844 270.823 206.844H340.229C341.468 206.844 342.578 205.844 342.707 204.611L343.769 194.462C343.898 193.229 342.998 192.229 341.759 192.229Z" fill="white"/>
<path d="M280.608 233.685H269.777C268.538 233.685 267.428 234.685 267.299 235.918L266.237 246.067C266.108 247.3 267.008 248.3 268.247 248.3H279.078C280.317 248.3 281.427 247.3 281.556 246.067L282.618 235.918C282.748 234.685 281.848 233.685 280.608 233.685Z" fill="white"/>
<path d="M299.309 233.685H288.478C287.239 233.685 286.129 234.685 286 235.918L284.938 246.067C284.809 247.3 285.709 248.3 286.948 248.3H297.779C299.018 248.3 300.128 247.3 300.257 246.067L301.319 235.918C301.449 234.685 300.549 233.685 299.309 233.685Z" fill="white"/>
<path d="M318.01 233.685H307.179C305.94 233.685 304.83 234.685 304.701 235.918L303.639 246.067C303.51 247.3 304.41 248.3 305.649 248.3H316.48C317.719 248.3 318.829 247.3 318.958 246.067L320.02 235.918C320.15 234.685 319.25 233.685 318.01 233.685Z" fill="white"/>
<path d="M336.711 233.685H325.88C324.641 233.685 323.531 234.685 323.402 235.918L322.34 246.067C322.211 247.3 323.111 248.3 324.35 248.3H335.181C336.42 248.3 337.53 247.3 337.659 246.067L338.721 235.918C338.851 234.685 337.951 233.685 336.711 233.685Z" fill="white"/>
<path d="M281.059 226.771H324.475C326.586 226.771 328.475 225.068 328.695 222.968L329.217 217.985C329.437 215.884 327.904 214.182 325.793 214.182H282.377C280.266 214.182 278.377 215.885 278.157 217.985L277.636 222.968C277.415 225.068 278.948 226.771 281.059 226.771Z" stroke="#407BFF" stroke-miterlimit="10" stroke-linecap="round" stroke-linejoin="round"/>
<path d="M344.26 171.094H274.854C273.615 171.094 272.505 172.094 272.376 173.327L271.314 183.476C271.185 184.709 272.085 185.709 273.324 185.709H342.73C343.969 185.709 345.079 184.709 345.208 183.476L346.27 173.327C346.4 172.094 345.499 171.094 344.26 171.094Z" fill="white"/>
<path d="M280.793 199.537C280.936 198.172 279.939 197.065 278.568 197.065C277.196 197.065 275.968 198.172 275.825 199.537C275.682 200.902 276.679 202.009 278.051 202.009C279.423 202.009 280.65 200.902 280.793 199.537Z" fill="#263238"/>
<path d="M288.427 199.537C288.57 198.172 287.573 197.065 286.201 197.065C284.829 197.065 283.601 198.172 283.458 199.537C283.315 200.902 284.312 202.009 285.683 202.009C287.056 202.009 288.284 200.902 288.427 199.537Z" fill="#263238"/>
<path d="M296.06 199.537C296.203 198.172 295.206 197.065 293.834 197.065C292.462 197.065 291.234 198.172 291.091 199.537C290.948 200.902 291.944 202.009 293.317 202.009C294.689 202.009 295.917 200.902 296.06 199.537Z" fill="#263238"/>
<path d="M303.694 199.537C303.837 198.172 302.841 197.065 301.469 197.065C300.097 197.065 298.869 198.172 298.726 199.537C298.583 200.902 299.58 202.009 300.952 202.009C302.323 202.009 303.551 200.902 303.694 199.537Z" fill="#263238"/>
<path d="M311.477 199.537C311.62 198.172 310.623 197.065 309.252 197.065C307.88 197.065 306.652 198.172 306.509 199.537C306.366 200.902 307.363 202.009 308.735 202.009C310.106 202.009 311.334 200.902 311.477 199.537Z" fill="#263238"/>
<path d="M283.294 178.402C283.437 177.037 282.44 175.93 281.068 175.93C279.696 175.93 278.468 177.037 278.325 178.402C278.182 179.767 279.179 180.874 280.55 180.874C281.923 180.875 283.151 179.768 283.294 178.402Z" fill="#263238"/>
<path d="M290.928 178.402C291.071 177.037 290.075 175.93 288.702 175.93C287.33 175.93 286.102 177.037 285.959 178.402C285.816 179.767 286.812 180.874 288.184 180.874C289.557 180.875 290.785 179.768 290.928 178.402Z" fill="#263238"/>
<path d="M298.561 178.402C298.704 177.037 297.707 175.93 296.336 175.93C294.964 175.93 293.736 177.037 293.593 178.402C293.45 179.767 294.447 180.874 295.818 180.874C297.19 180.875 298.418 179.768 298.561 178.402Z" fill="#263238"/>
<path d="M306.195 178.402C306.338 177.037 305.341 175.93 303.97 175.93C302.598 175.93 301.37 177.037 301.227 178.402C301.084 179.767 302.081 180.874 303.453 180.874C304.825 180.874 306.052 179.768 306.195 178.402Z" fill="#263238"/>
<path d="M313.828 178.402C313.971 177.037 312.974 175.93 311.603 175.93C310.231 175.93 309.003 177.037 308.86 178.402C308.717 179.767 309.714 180.874 311.086 180.874C312.457 180.875 313.685 179.768 313.828 178.402Z" fill="#263238"/>
<path d="M321.462 178.402C321.605 177.037 320.608 175.93 319.237 175.93C317.865 175.93 316.637 177.037 316.494 178.402C316.351 179.767 317.347 180.874 318.72 180.874C320.091 180.875 321.319 179.768 321.462 178.402Z" fill="#263238"/>
<path d="M314.978 148.712L314.437 153.838C314.388 154.3 313.972 154.674 313.508 154.674C313.044 154.674 312.707 154.299 312.756 153.838L313.297 148.712C313.472 147.057 312.261 145.709 310.597 145.709H308.754C307.091 145.709 305.595 147.057 305.421 148.712L304.952 153.473H303.271L303.74 148.712C304.012 146.134 306.341 144.036 308.931 144.036H310.774C313.363 144.036 315.25 146.133 314.978 148.712Z" fill="#407BFF"/>
<path d="M315.012 153.65L313.958 163.637C313.891 164.269 313.324 164.78 312.689 164.78H302.654C302.02 164.78 301.559 164.269 301.626 163.637L302.68 153.65C302.723 153.242 302.977 152.883 303.321 152.682C303.509 152.571 303.725 152.507 303.949 152.507H313.984C314.202 152.507 314.398 152.567 314.56 152.671C314.872 152.871 315.056 153.234 315.012 153.65Z" fill="#407BFF"/>
<path d="M393.309 132.108L368.872 132.253" stroke="#263238" stroke-miterlimit="10" stroke-linecap="round" stroke-linejoin="round"/>
<path d="M406.629 132.042L397.992 132.08" stroke="#263238" stroke-miterlimit="10" stroke-linecap="round" stroke-linejoin="round"/>
<g opacity="0.3">
<path d="M235.099 137.442H263.075L234.634 255.267H212.118C212.098 255.267 212.077 255.267 212.057 255.267C209.271 255.252 207.305 252.586 207.958 249.88L235.099 137.442Z" fill="white"/>
<path d="M275.496 137.442H287.373L258.932 255.267H247.055L275.496 137.442Z" fill="white"/>
</g>
<path d="M86.654 100.663H92.33C86.617 100.663 82.309 105.294 82.709 111.008L94.757 283.306C95.156 289.019 100.112 293.651 105.825 293.651H100.149C94.436 293.651 89.481 289.02 89.081 283.306L77.032 111.007C76.633 105.294 80.94 100.663 86.654 100.663Z" fill="#407BFF"/>
<path d="M86.654 100.663H92.33C86.617 100.663 82.309 105.294 82.709 111.008L94.757 283.306C95.156 289.019 100.112 293.651 105.825 293.651H100.149C94.436 293.651 88.681 289.02 88.281 283.306L76.232 111.007C75.833 105.294 80.94 100.663 86.654 100.663Z" fill="#263238"/>
<path d="M101.841 293.65H171.338C177.051 293.65 181.359 289.019 180.959 283.305L168.911 111.007C168.511 105.294 163.556 100.662 157.843 100.662H88.346C82.633 100.662 78.325 105.293 78.725 111.007L90.773 283.305C91.173 289.018 96.128 293.65 101.841 293.65Z" fill="#407BFF"/>
<g opacity="0.6">
<path d="M157.656 103.982C161.623 103.982 165.077 107.212 165.354 111.181L177.402 283.478C177.531 285.326 176.942 287.052 175.743 288.339C174.548 289.623 172.875 290.329 171.035 290.329H101.538C97.571 290.329 94.118 287.1 93.84 283.13L81.791 110.834C81.662 108.987 82.251 107.26 83.45 105.973C84.645 104.69 86.318 103.983 88.158 103.983L157.656 103.982Z" fill="white"/>
</g>
<g opacity="0.3">
<path d="M138.033 290.33H110.315L133.174 103.982H155.482C157.515 103.982 159.335 104.834 160.621 106.195L138.033 290.33Z" fill="white"/>
<path d="M105.34 290.33H99.104L121.963 103.982H128.198L105.34 290.33Z" fill="white"/>
</g>
<path d="M103.176 185.404H153.517" stroke="white" stroke-miterlimit="10" stroke-linecap="round" stroke-linejoin="round"/>
<path d="M109.67 192.848H149.102" stroke="white" stroke-miterlimit="10" stroke-linecap="round" stroke-linejoin="round"/>
<path d="M104.678 151.078L104.747 153.056H103.457L103.388 151.062L101.104 147.473H102.474L104.05 149.953L105.452 147.473H106.719L104.678 151.078Z" fill="#407BFF"/>
<path d="M106.772 150.265C106.713 148.606 107.96 147.378 109.721 147.378C111.473 147.378 112.815 148.599 112.873 150.265C112.932 151.932 111.676 153.152 109.924 153.152C108.164 153.152 106.831 151.923 106.772 150.265ZM111.567 150.265C111.53 149.204 110.755 148.479 109.76 148.479C108.764 148.479 108.041 149.205 108.078 150.265C108.115 151.326 108.889 152.052 109.885 152.052C110.881 152.051 111.604 151.325 111.567 150.265Z" fill="#407BFF"/>
<path d="M113.814 150.6L113.705 147.474H114.995L115.102 150.553C115.139 151.614 115.617 152.052 116.398 152.052C117.186 152.052 117.625 151.613 117.588 150.553L117.481 147.474H118.755L118.864 150.6C118.922 152.243 118.014 153.152 116.429 153.152C114.844 153.152 113.872 152.243 113.814 150.6Z" fill="#407BFF"/>
<path d="M123.782 153.056L122.652 151.501H122.588H121.465L121.52 153.056H120.23L120.035 147.473H122.448C123.938 147.473 124.896 148.247 124.94 149.499C124.97 150.336 124.57 150.951 123.855 151.262L125.169 153.056H123.782ZM122.413 148.526H121.36L121.428 150.472H122.48C123.268 150.472 123.654 150.105 123.632 149.499C123.611 148.885 123.2 148.526 122.413 148.526Z" fill="#407BFF"/>
<path d="M127.895 150.265C127.836 148.582 129.084 147.378 130.82 147.378C131.784 147.378 132.601 147.729 133.149 148.367L132.347 149.133C131.958 148.702 131.481 148.479 130.923 148.479C129.879 148.479 129.164 149.212 129.201 150.265C129.238 151.318 130.004 152.052 131.048 152.052C131.606 152.052 132.068 151.828 132.426 151.39L133.281 152.156C132.778 152.802 131.986 153.153 131.014 153.153C129.287 153.152 127.954 151.947 127.895 150.265Z" fill="#407BFF"/>
<path d="M133.619 150.265C133.56 148.606 134.808 147.378 136.568 147.378C138.32 147.378 139.662 148.599 139.72 150.265C139.779 151.932 138.523 153.152 136.771 153.152C135.011 153.152 133.678 151.923 133.619 150.265ZM138.414 150.265C138.377 149.204 137.602 148.479 136.607 148.479C135.611 148.479 134.888 149.205 134.925 150.265C134.962 151.326 135.736 152.052 136.732 152.052C137.727 152.051 138.451 151.325 138.414 150.265Z" fill="#407BFF"/>
<path d="M140.6 147.473H143.133C144.956 147.473 146.245 148.574 146.305 150.265C146.365 151.956 145.152 153.057 143.328 153.057H140.795L140.6 147.473ZM143.227 151.995C144.334 151.995 145.036 151.333 144.998 150.265C144.961 149.197 144.213 148.535 143.105 148.535H141.926L142.047 151.996H143.227V151.995Z" fill="#407BFF"/>
<path d="M151.66 152.019L151.696 153.056H147.379L147.184 147.473H151.398L151.434 148.51H148.502L148.544 149.722H151.133L151.169 150.727H148.58L148.625 152.019H151.66Z" fill="#407BFF"/>
<path d="M114.378 173.806L114.418 176.05H103.891L103.86 174.276L109.437 168.891C110.801 167.565 111.032 166.728 111.017 165.934C110.995 164.628 110.083 163.873 108.329 163.873C106.942 163.873 105.788 164.342 105.01 165.362L103.128 163.934C104.204 162.445 106.168 161.568 108.514 161.568C111.615 161.568 113.642 163.138 113.686 165.668C113.71 167.055 113.345 168.32 111.398 170.176L107.647 173.807H114.378V173.806Z" fill="#263238"/>
<path d="M126.012 171.767C126.054 174.174 124.275 176.254 120.439 176.254C118.419 176.254 116.389 175.642 115.045 174.602L116.151 172.541C117.185 173.397 118.746 173.949 120.357 173.949C122.254 173.949 123.362 173.112 123.338 171.787C123.316 170.501 122.362 169.665 120.2 169.665H118.894L118.863 167.85L122.038 163.995H115.551L115.513 161.772H125.244L125.274 163.546L121.878 167.667C124.579 168.013 125.974 169.624 126.012 171.767Z" fill="#263238"/>
<path d="M139.336 171.95C139.383 174.602 137.106 176.254 133.556 176.254C130.006 176.254 127.714 174.602 127.667 171.95C127.64 170.379 128.435 169.217 129.892 168.544C128.739 167.911 128.088 166.891 128.065 165.545C128.022 163.097 130.137 161.567 133.299 161.567C136.482 161.567 138.671 163.097 138.714 165.545C138.737 166.891 138.103 167.911 136.951 168.544C138.452 169.217 139.309 170.379 139.336 171.95ZM136.662 171.869C136.637 170.461 135.398 169.584 133.439 169.584C131.481 169.584 130.312 170.461 130.337 171.869C130.362 173.317 131.561 174.174 133.519 174.174C135.478 174.173 136.687 173.316 136.662 171.869ZM130.678 165.667C130.699 166.891 131.733 167.666 133.406 167.666C135.099 167.666 136.127 166.891 136.105 165.667C136.083 164.382 134.968 163.647 133.336 163.647C131.703 163.648 130.655 164.382 130.678 165.667Z" fill="#263238"/>
<path d="M152.637 171.95C152.684 174.602 150.407 176.254 146.857 176.254C143.307 176.254 141.015 174.602 140.968 171.95C140.941 170.379 141.736 169.217 143.193 168.544C142.04 167.911 141.389 166.891 141.366 165.545C141.323 163.097 143.438 161.567 146.6 161.567C149.783 161.567 151.972 163.097 152.015 165.545C152.039 166.891 151.404 167.911 150.252 168.544C151.753 169.217 152.609 170.379 152.637 171.95ZM149.963 171.869C149.938 170.461 148.699 169.584 146.74 169.584C144.782 169.584 143.613 170.461 143.638 171.869C143.663 173.317 144.862 174.174 146.82 174.174C148.779 174.173 149.988 173.316 149.963 171.869ZM143.978 165.667C144 166.891 145.033 167.666 146.706 167.666C148.399 167.666 149.427 166.891 149.405 165.667C149.383 164.382 148.268 163.647 146.635 163.647C145.004 163.648 143.956 164.382 143.978 165.667Z" fill="#263238"/>
<path d="M76.719 125.636L78.492 149.807" stroke="#407BFF" stroke-miterlimit="10" stroke-linecap="round" stroke-linejoin="round"/>
<path d="M75.911 114.625L76.379 121.004" stroke="#407BFF" stroke-miterlimit="10" stroke-linecap="round" stroke-linejoin="round"/>
<path d="M123.37 90.593V75.877" stroke="#407BFF" stroke-miterlimit="10" stroke-linecap="round" stroke-linejoin="round"/>
<path d="M111.721 93.7057L104.366 80.9697" stroke="#407BFF" stroke-miterlimit="10" stroke-linecap="round" stroke-linejoin="round"/>
<path d="M142.374 80.9697L135.019 93.7117" stroke="#407BFF" stroke-miterlimit="10" stroke-linecap="round" stroke-linejoin="round"/>
<path d="M313.892 351.759C308.838 372.008 306.786 393.004 307.824 413.848" stroke="#407BFF" stroke-miterlimit="10"/>
<path d="M309.221 350.897C309.266 352.764 310.94 359.365 312.808 359.32C314.675 359.275 316.028 352.6 315.983 350.733C315.938 348.866 314.388 347.389 312.521 347.434C310.653 347.48 309.176 349.031 309.221 350.897Z" fill="#407BFF"/>
<path d="M316.494 371.888C316.449 370.021 314.775 363.42 312.908 363.465C311.041 363.51 309.687 370.184 309.733 372.052C309.778 373.919 311.328 375.396 313.195 375.351C315.062 375.305 316.539 373.755 316.494 371.888Z" fill="#407BFF"/>
<path d="M302.362 365.029C304.229 364.984 310.83 363.31 310.785 361.442C310.74 359.575 304.066 358.222 302.198 358.267C300.331 358.313 298.854 359.863 298.899 361.73C298.945 363.597 300.495 365.074 302.362 365.029Z" fill="#407BFF"/>
<path d="M323.352 357.756C321.485 357.801 314.884 359.475 314.929 361.342C314.974 363.209 321.648 364.562 323.516 364.517C325.383 364.472 326.86 362.922 326.815 361.055C326.77 359.188 325.219 357.711 323.352 357.756Z" fill="#407BFF"/>
<path d="M302.864 356.543C304.216 357.831 310.068 361.315 311.356 359.963C312.645 358.611 308.882 352.934 307.53 351.646C306.178 350.358 304.037 350.409 302.749 351.762C301.461 353.114 301.512 355.254 302.864 356.543Z" fill="#407BFF"/>
<path d="M322.85 366.242C321.498 364.954 315.647 361.47 314.358 362.822C313.07 364.174 316.832 369.85 318.184 371.139C319.536 372.427 321.677 372.376 322.965 371.023C324.254 369.671 324.202 367.531 322.85 366.242Z" fill="#407BFF"/>
<path d="M308.008 371.385C309.296 370.033 312.78 364.181 311.427 362.893C310.075 361.605 304.399 365.367 303.11 366.719C301.822 368.071 301.874 370.212 303.226 371.5C304.579 372.789 306.719 372.738 308.008 371.385Z" fill="#407BFF"/>
<path d="M317.707 351.4C316.419 352.752 312.935 358.603 314.287 359.892C315.639 361.18 321.316 357.418 322.604 356.065C323.893 354.713 323.841 352.572 322.488 351.284C321.136 349.996 318.995 350.048 317.707 351.4Z" fill="#407BFF"/>
<path d="M308.854 361.49C308.907 363.701 310.743 365.451 312.954 365.397C315.165 365.344 316.915 363.508 316.861 361.297C316.807 359.086 314.971 357.336 312.76 357.39C310.549 357.442 308.8 359.278 308.854 361.49Z" fill="white"/>
<path d="M308.28 391.254C308.28 391.254 308.971 381.041 314.576 379.425C320.181 377.81 322.239 375.62 322.239 375.62C322.239 375.62 321.671 391.451 308.28 391.254Z" fill="#407BFF"/>
<path opacity="0.5" d="M308.28 391.254C308.28 391.254 308.971 381.041 314.576 379.425C320.181 377.81 322.239 375.62 322.239 375.62C322.239 375.62 321.671 391.451 308.28 391.254Z" fill="white"/>
<path d="M307.539 399.072C307.539 399.072 306.848 388.859 301.243 387.243C295.638 385.628 293.58 383.438 293.58 383.438C293.58 383.438 294.148 399.268 307.539 399.072Z" fill="#407BFF"/>
<path opacity="0.5" d="M307.539 399.072C307.539 399.072 306.848 388.859 301.243 387.243C295.638 385.628 293.58 383.438 293.58 383.438C293.58 383.438 294.148 399.268 307.539 399.072Z" fill="white"/>
<path d="M328.699 420.342C328.699 428.312 319.209 434.762 307.509 434.762C295.799 434.762 286.319 428.312 286.319 420.342C286.319 416.312 288.749 412.662 292.679 410.052C294.949 408.532 297.719 407.362 300.799 406.672H314.219C317.389 407.392 320.229 408.602 322.529 410.182C326.349 412.792 328.699 416.372 328.699 420.342Z" fill="#407BFF"/>
<path opacity="0.8" d="M314.219 406.672C317.389 407.392 320.229 408.602 322.529 410.182C326.349 412.792 328.699 416.372 328.699 420.342C328.699 428.312 319.209 434.762 307.509 434.762C295.799 434.762 286.319 428.312 286.319 420.342C286.319 416.312 288.749 412.662 292.679 410.052C294.949 408.532 297.719 407.362 300.799 406.672H314.219Z" fill="white"/>
<path d="M307.57 407.97C307.57 410.346 307.57 412.723 307.57 415.099" stroke="#407BFF" stroke-miterlimit="10"/>
<path d="M323.462 406.45L322.337 409.954L322.319 409.99H292.689L292.627 409.803L291.556 406.45H323.462Z" fill="#407BFF"/>
<path d="M326.196 423.238C324.154 426.189 321.246 428.544 318.057 430.236C312.967 432.937 291.556 433.634 289.113 421.486C289.079 421.317 289.022 421.153 288.991 420.982C288.407 417.804 291.235 414.977 294.451 415.299C296.449 415.499 298.535 415.261 300.521 414.959C308.181 413.792 316.078 414.22 323.57 416.195C326.63 417.002 327.997 420.635 326.196 423.238Z" fill="#263238"/>
<path d="M172.51 419.199C172.885 419.065 173.134 418.769 173.251 418.32C173.339 417.981 173.212 417.759 173.09 417.632C172.319 416.827 169.191 417.398 168.837 417.466C168.755 417.482 168.691 417.543 168.673 417.624C168.655 417.704 168.688 417.787 168.755 417.834C169.274 418.201 170.032 418.686 170.785 418.99C171.411 419.242 172.033 419.37 172.51 419.199ZM172.786 417.913C172.837 417.966 172.89 418.049 172.846 418.218C172.765 418.532 172.608 418.726 172.367 418.813C171.8 419.017 170.715 418.634 169.414 417.782C170.671 417.59 172.381 417.485 172.786 417.913Z" fill="#407BFF"/>
<path d="M168.903 417.87C169.86 417.751 172.062 416.621 172.255 415.644C172.292 415.457 172.286 415.105 171.827 414.853C171.537 414.692 171.226 414.666 170.905 414.777C169.698 415.19 168.725 417.492 168.683 417.59C168.655 417.657 168.665 417.735 168.71 417.793C168.733 417.822 168.763 417.844 168.796 417.858C168.83 417.869 168.866 417.874 168.903 417.87ZM171.623 415.209C171.857 415.338 171.865 415.467 171.845 415.564C171.727 416.16 170.262 417.085 169.234 417.38C169.599 416.63 170.321 415.409 171.041 415.162C171.216 415.102 171.379 415.104 171.537 415.168C171.566 415.18 171.595 415.194 171.623 415.209Z" fill="#407BFF"/>
<path d="M159.409 413.84L167.55 417.13L174.655 398.32L166.514 395.03L159.409 413.84Z" fill="#FFE4D6"/>
<path d="M168.582 416.464L159.436 412.767C159.103 412.632 158.738 412.751 158.558 413.052L154.544 419.751C154.128 420.446 154.481 421.406 155.254 421.703C158.465 422.938 160.079 423.375 164.101 425C166.575 426 170.085 427.714 173.502 429.095C176.844 430.446 178.489 427.225 177.192 426.349C171.376 422.42 171.145 420.151 169.738 417.506C169.483 417.029 169.069 416.66 168.582 416.464Z" fill="#263238"/>
<path d="M174.551 407.549L160.412 401.834L161.707 396.652L176.877 402.202L174.551 407.549Z" fill="#407BFF"/>
<path d="M188.707 189.835C185.839 198.138 177.346 217.698 170.803 209.551C169.635 208.097 168.639 206.522 167.945 204.791C165.167 197.937 164.484 186.837 164.132 184.411L161.903 176.802C161.864 176.671 161.844 176.534 161.843 176.398L161.807 172.053C161.807 170.292 163.226 169.245 165.148 169.406C165.148 169.406 168.248 169.044 168.248 170.896L168.852 177.417H168.832C169.144 179.692 168.238 182.852 168.772 184.935C170.765 192.765 173.521 193.117 175.252 201.198C177.657 195.371 181.975 185.277 181.975 185.277C184.883 185.638 189.653 187.097 188.707 189.835Z" fill="#FFE4D6"/>
<path d="M178.452 212.534C176.498 215.548 172.102 215.722 169.983 212.823C168.688 211.051 167.662 209.099 167.216 207.628C164.619 199.104 163.009 193.82 162.788 184.913C164.6 183.031 167.548 182.327 170.014 183.202L174.271 197.634C174.271 197.634 182.946 176.084 186.448 175.309C190.584 174.403 192.305 178.089 194.046 182.628C195.301 185.895 184.102 203.817 178.452 212.534Z" fill="#407BFF"/>
<path d="M213.481 153.745C212.5 158.747 210.297 169.659 213.797 172.997C213.797 172.997 212.43 178.071 203.135 178.071C192.915 178.071 198.251 172.997 198.251 172.997C203.829 171.665 203.685 167.526 202.714 163.64L213.481 153.745Z" fill="#FFE4D6"/>
<path d="M197.848 141.948C197.908 141.948 197.969 141.934 198.026 141.906C198.223 141.807 198.303 141.567 198.204 141.37C197.215 139.395 195.385 139.166 195.308 139.157C195.09 139.13 194.891 139.29 194.866 139.509C194.841 139.727 194.998 139.925 195.216 139.95C195.277 139.957 196.701 140.151 197.49 141.727C197.561 141.867 197.702 141.947 197.848 141.948Z" fill="#263238"/>
<path d="M194.801 146.319C194.801 146.319 193.296 149.083 191.862 150.328C192.65 151.27 194.212 151.077 194.212 151.077L194.801 146.319Z" fill="#FFBD9A"/>
<path d="M195.604 144.856C195.748 145.521 195.513 146.136 195.078 146.23C194.644 146.324 194.175 145.862 194.031 145.197C193.887 144.532 194.122 143.917 194.556 143.823C194.99 143.729 195.459 144.192 195.604 144.856Z" fill="#263238"/>
<path d="M194.756 143.819L193.06 143.705C193.06 143.705 194.149 144.774 194.756 143.819Z" fill="#263238"/>
<path d="M159.979 169.052V169.072C159.979 169.062 159.969 169.062 159.969 169.052H159.979Z" fill="#FFE4D6"/>
<path opacity="0.2" d="M188.347 185.566C190.118 183.945 191.316 184.429 192.131 185.717C192.936 189.461 188.166 197.301 186.244 200.27L188.347 185.566Z" fill="black"/>
<path d="M229.304 190.497C229.074 194.617 228.684 199.807 228.054 206.337C227.394 213.227 226.454 221.597 225.164 231.767C211.574 231.767 197.344 231.557 190.734 231.557C191.287 218.049 191.491 204.362 185.431 177.476C185.113 176.063 186.038 174.665 187.464 174.411C190.209 173.922 194.757 173.223 199.385 172.997C205.145 172.717 209.865 172.537 214.935 172.997C221.605 173.607 229.185 175.157 229.185 175.157C229.185 175.157 230.024 177.637 229.304 190.497Z" fill="#407BFF"/>
<path opacity="0.2" d="M229.304 190.497C229.074 194.617 228.684 199.807 228.054 206.337C224.394 202.097 220.934 187.497 222.034 182.507C224.734 184.347 227.234 187.177 229.144 189.707C229.204 189.947 229.264 190.206 229.304 190.497Z" fill="black"/>
<path d="M264.593 208.8L271.557 204.884L272.858 212.014C272.858 212.014 266.956 214.275 263.831 212.691L264.593 208.8Z" fill="#FFE4D6"/>
<path d="M276.222 205.694L276.706 208.021C276.858 208.753 276.554 209.504 275.936 209.924L272.859 212.014L271.558 204.884L273.966 204.28C274.983 204.024 276.009 204.667 276.222 205.694Z" fill="#FFE4D6"/>
<path d="M222.597 183.421C224.829 187.963 233.015 205.109 236.613 209.073L237.317 209.812L237.669 210.18C237.789 210.304 237.885 210.414 238.077 210.582C238.752 211.217 239.471 211.75 240.199 212.186C241.659 213.061 243.138 213.574 244.56 213.946C247.408 214.658 250.114 214.774 252.739 214.723C258 214.517 262.922 213.634 267.839 212.158L266.945 207.983C264.64 208.179 262.218 208.321 259.874 208.36C257.521 208.425 255.181 208.359 252.924 208.14C250.674 207.945 248.482 207.551 246.628 206.915C245.713 206.59 244.906 206.176 244.303 205.741C244 205.525 243.757 205.297 243.559 205.078C243.519 205.047 243.418 204.922 243.333 204.82L243.072 204.508L242.55 203.886C239.787 200.427 232.497 183.749 230.309 179.58L222.597 183.421Z" fill="#FFE4D6"/>
<path d="M264.483 215.895C258.807 218.954 251.893 219.629 245.734 217.717C239.877 215.895 234.664 211.648 231.644 206.304C228.031 200.99 218.421 185.971 219.628 182.086C221.057 177.446 224.097 174.568 229.179 175.816C232.752 176.682 239.564 194.016 242.855 200.95C244.153 202.882 246.629 205.942 249.397 206.888C254.288 208.579 257.891 207.844 263.014 207.12C263.95 207.684 263.88 208.549 264.353 209.525C265.319 211.497 265.48 213.943 264.483 215.895Z" fill="#407BFF"/>
<path d="M218.523 145.725C216.989 153.95 216.515 157.463 211.803 161.199C204.715 166.819 194.949 163.135 193.995 154.618C193.136 146.952 195.79 134.79 204.31 132.495C212.704 130.236 220.058 137.501 218.523 145.725Z" fill="#FFE4D6"/>
<path d="M247.7 191.24C246.13 193.03 245.635 194.066 243.455 195.036C241.275 196.006 236.516 195.161 235.006 193.311C235.496 194.751 238.36 197.34 239.86 197.54C236.54 199.48 231.87 198.66 229.4 195.7C229.64 197.45 231.29 199.02 232.96 199.61C213.797 200.105 221.866 191.087 209.874 178.264C196.589 164.059 199.47 152.32 199.47 152.32C199.46 150.29 199.01 146.92 196.86 144.18C194.94 141.72 195.5 138.4 196.11 136.54C197 133.81 199.71 132.85 202.31 132.69C202.768 129.996 208.272 130.492 208.976 130.942C209.58 131.328 209.734 131.296 210.337 130.909C211.69 130.042 215.089 129.137 218.729 132.08C220.951 133.877 223.324 137.1 223.404 143.96C223.487 151.094 220.083 159.557 231.875 170.395C238.825 176.782 235.503 190.492 247.7 191.24Z" fill="#263238"/>
<path d="M197.89 146.346C196.879 147.746 196.589 149.486 196.812 150.89C197.147 153.001 199.205 153.141 200.695 151.788C202.036 150.57 203.477 148.004 202.379 146.254C201.297 144.53 199.046 144.746 197.89 146.346Z" fill="#FFE4D6"/>
<path d="M216.448 231.763C216.448 231.763 212.365 289.17 207.756 327.035C206.375 338.38 202.917 349.379 197.541 359.508L174.954 402.066L163.393 397.519C163.393 397.519 171.357 357.065 186.976 335.008C186.976 335.008 175.318 269.078 190.576 231.561L216.448 231.763Z" fill="#263238"/>
<path opacity="0.2" d="M200.728 245.665C200.728 245.665 204.165 271.706 206.054 287.137C198.963 277.836 193.532 264.861 200.728 245.665Z" fill="black"/>
<path d="M245.641 424.59C245.908 424.298 245.988 423.922 245.877 423.472C245.794 423.133 245.575 422.994 245.407 422.938C244.343 422.582 241.851 424.528 241.57 424.751C241.505 424.802 241.478 424.887 241.5 424.966C241.522 425.044 241.59 425.103 241.673 425.114C242.306 425.199 243.207 425.278 244.017 425.2C244.691 425.134 245.301 424.96 245.641 424.59ZM245.273 423.326C245.343 423.349 245.43 423.398 245.471 423.568C245.548 423.883 245.503 424.127 245.331 424.314C244.927 424.755 243.786 424.917 242.231 424.764C243.251 424.015 244.711 423.135 245.273 423.326Z" fill="#407BFF"/>
<path d="M241.821 425.077C242.61 424.531 244.018 422.518 243.724 421.565C243.668 421.383 243.495 421.075 242.969 421.063C242.636 421.054 242.349 421.175 242.118 421.42C241.248 422.341 241.483 424.823 241.494 424.929C241.501 425.001 241.547 425.065 241.615 425.095C241.649 425.11 241.686 425.116 241.722 425.112C241.757 425.11 241.791 425.099 241.821 425.077ZM242.959 421.473C243.227 421.479 243.295 421.589 243.325 421.684C243.504 422.265 242.65 423.757 241.882 424.492C241.848 423.661 241.904 422.25 242.423 421.7C242.549 421.567 242.694 421.493 242.864 421.477C242.895 421.474 242.927 421.473 242.959 421.473Z" fill="#407BFF"/>
<path d="M231.516 425.892L240.275 425.047L237.602 405.153L228.843 405.997L231.516 425.892Z" fill="#FFE4D6"/>
<path d="M240.869 423.983L231.029 424.931C230.671 424.966 230.405 425.238 230.388 425.587L230.029 433.356C229.992 434.162 230.761 434.847 231.586 434.754C235.011 434.365 236.644 434.008 240.972 433.591C243.634 433.334 247.551 433.232 251.227 432.878C254.823 432.531 254.743 428.927 253.18 428.751C246.172 427.96 244.888 426.061 242.385 424.372C241.935 424.067 241.393 423.932 240.869 423.983Z" fill="#263238"/>
<path d="M225.111 231.749C225.111 231.749 236.316 300.259 238.475 340.843L238.878 413.538L229.812 415.307C229.812 415.307 216.676 368.929 215.165 342.123C211.155 270.995 187.988 270.878 201.926 231.622L225.111 231.749Z" fill="#263238"/>
<path d="M241.889 413.837L226.876 415.893L225.355 410.128L241.4 408.041L241.889 413.837Z" fill="#407BFF"/>
<path d="M159.999 169.123H159.969L159.979 169.073C159.979 169.093 159.989 169.103 159.999 169.123Z" fill="#FFE4D6"/>
<path d="M160.961 158.253H161.535C160.958 158.253 160.514 158.721 160.544 159.299L161.457 176.713C161.487 177.29 161.98 177.759 162.557 177.759H161.983C161.406 177.759 160.913 177.291 160.883 176.713L159.97 159.299C159.94 158.721 160.384 158.253 160.961 158.253Z" fill="#407BFF"/>
<path opacity="0.1" d="M160.961 158.253H161.535C160.958 158.253 160.514 158.721 160.544 159.299L161.457 176.713C161.487 177.29 161.98 177.759 162.557 177.759H161.983C161.406 177.759 160.913 177.291 160.883 176.713L159.97 159.299C159.94 158.721 160.384 158.253 160.961 158.253Z" fill="white"/>
<path d="M162.154 177.759H169.178C169.756 177.759 170.199 177.291 170.169 176.713L169.256 159.299C169.226 158.722 168.733 158.253 168.156 158.253H161.132C160.555 158.253 160.111 158.721 160.141 159.299L161.054 176.713C161.084 177.29 161.577 177.759 162.154 177.759Z" fill="#407BFF"/>
<path opacity="0.4" d="M162.154 177.759H169.178C169.756 177.759 170.199 177.291 170.169 176.713L169.256 159.299C169.226 158.722 168.733 158.253 168.156 158.253H161.132C160.555 158.253 160.111 158.721 160.141 159.299L161.054 176.713C161.084 177.29 161.577 177.759 162.154 177.759Z" fill="white"/>
<path d="M169.73 176.35C169.74 176.53 169.68 176.7 169.56 176.83C169.44 176.95 169.27 177.02 169.09 177.02H162.28C161.89 177.02 161.56 176.7 161.54 176.31L160.65 159.42C160.64 159.24 160.7 159.07 160.82 158.95C160.94 158.82 161.11 158.75 161.29 158.75H168.1C168.49 158.75 168.82 159.07 168.84 159.46L168.9 160.67L169.73 176.35Z" fill="#263238"/>
<g opacity="0.1">
<path d="M168.9 160.67L166.64 177.02H163.93L166.49 158.75H168.1C168.49 158.75 168.82 159.07 168.84 159.46L168.9 160.67Z" fill="white"/>
<path d="M162.95 177.02H162.339L164.9 158.751H165.512L162.95 177.02Z" fill="white"/>
</g>
<path d="M188.521 233.702C183.429 243.685 180.658 254.843 180.489 266.049C197.511 279.237 213.32 263.792 232.778 266.401C232.099 257.613 229.114 241.352 225.568 233.282C212.71 233.825 200.668 232.542 188.521 233.702Z" fill="#407BFF"/>
<path d="M190.292 230.133C190.292 230.133 188.919 233.655 189.312 233.655H224.989C225.296 233.655 225.55 233.505 225.569 233.312L225.876 230.267C225.897 230.056 225.631 229.877 225.296 229.877H190.846C190.592 229.878 190.368 229.981 190.292 230.133Z" fill="white"/>
<path d="M195.318 233.955H194.395C194.211 233.955 194.071 233.86 194.084 233.745L194.517 229.789C194.53 229.673 194.69 229.579 194.874 229.579H195.797C195.981 229.579 196.121 229.674 196.108 229.789L195.675 233.745C195.663 233.86 195.502 233.955 195.318 233.955Z" fill="#407BFF"/>
<path d="M217.682 233.955H216.759C216.575 233.955 216.435 233.86 216.448 233.745L216.881 229.789C216.894 229.673 217.054 229.579 217.238 229.579H218.161C218.345 229.579 218.485 229.674 218.472 229.789L218.039 233.745C218.027 233.86 217.866 233.955 217.682 233.955Z" fill="#407BFF"/>
</svg>
