<svg width="500" height="500" viewBox="0 0 500 500" fill="none" xmlns="http://www.w3.org/2000/svg">
<path d="M402.071 401.337H437.229V390.147H402.071V401.337Z" fill="#EBEBEB"/>
<path d="M188.388 220.968H223.546V209.778H188.388V220.968Z" fill="#EBEBEB"/>
<path d="M421.683 415.446C427.522 415.347 442.494 415.098 448.13 415.033L456.841 414.99L456.385 415.446L456.341 404.256L456.84 404.755C451.002 404.737 436.113 404.683 430.472 404.602L421.683 404.493L421.92 404.256L421.683 415.446ZM421.683 415.446L421.446 404.256L421.441 404.022L421.683 404.019C426.069 403.961 434.877 403.86 439.262 403.825L456.841 403.757L457.343 403.755L457.341 404.256L457.297 415.446L457.295 415.904L456.841 415.902L447.973 415.859C442.372 415.797 427.467 415.545 421.683 415.446Z" fill="#EBEBEB"/>
<path d="M254.499 332.03C260.338 331.931 275.31 331.682 280.946 331.617L289.657 331.574L289.201 332.03L289.157 320.84L289.656 321.339C283.818 321.321 268.928 321.267 263.288 321.186L254.499 321.077L254.736 320.84L254.499 332.03ZM254.499 332.03L254.262 320.84L254.257 320.606L254.499 320.603C258.885 320.545 267.694 320.444 272.078 320.409L289.657 320.341L290.158 320.339L290.156 320.84L290.112 332.03L290.11 332.488L289.656 332.486L280.788 332.443C275.187 332.382 260.283 332.129 254.499 332.03Z" fill="#EBEBEB"/>
<path d="M274.111 346.14C279.95 346.041 294.922 345.792 300.558 345.727L309.269 345.684L308.813 346.14L308.769 334.95L309.268 335.449C303.43 335.431 288.54 335.377 282.9 335.296L274.111 335.187L274.348 334.95L274.111 346.14ZM274.111 346.14L273.874 334.95L273.869 334.716L274.111 334.713C278.497 334.655 287.306 334.554 291.69 334.519L309.269 334.451L309.77 334.449L309.768 334.95L309.724 346.14L309.722 346.598L309.268 346.596L300.4 346.553C294.799 346.492 279.895 346.239 274.111 346.14Z" fill="#EBEBEB"/>
<path d="M293.645 332.03H328.803V320.84H293.645V332.03Z" fill="#EBEBEB"/>
<path d="M43.1594 415.446H78.3174V404.256H43.1594V415.446Z" fill="#EBEBEB"/>
<path d="M62.7712 56.1235L97.9292 56.1235V44.9335H62.7712V56.1235Z" fill="#EBEBEB"/>
<path d="M43.159 70.233L60.859 69.94L69.606 69.82L78.317 69.777L77.861 70.233L77.817 59.043L78.316 59.542L60.737 59.474L51.948 59.389L43.16 59.28L43.397 59.043L43.159 70.233ZM43.159 70.233L42.922 59.043L42.917 58.808L43.16 58.805L51.949 58.696L60.738 58.611L78.317 58.543L78.818 58.541L78.816 59.043L78.772 70.233L78.77 70.691L78.316 70.689L69.448 70.646L60.616 70.526L43.159 70.233Z" fill="#EBEBEB"/>
<path d="M402.071 56.1232L419.771 55.8302L428.518 55.7102L437.229 55.6672L436.773 56.1232L436.729 44.9332L437.228 45.4322L419.649 45.3642L410.86 45.2792L402.071 45.1702L402.308 44.9332L402.071 56.1232ZM402.071 56.1232L401.834 44.9332L401.829 44.6982L402.071 44.6952L410.86 44.5862L419.649 44.5012L437.228 44.4332L437.73 44.4312L437.728 44.9322L437.684 56.1222L437.682 56.5802L437.228 56.5782L428.36 56.5352L419.528 56.4152L402.071 56.1232Z" fill="#EBEBEB"/>
<path d="M332.037 441.434H448.802L452.557 367.343H328.281L332.037 441.434Z" fill="#EBEBEB"/>
<path d="M336.476 375.993H441.409L439.816 400.803H337.841L336.476 375.993Z" stroke="#DBDBDB" stroke-miterlimit="10"/>
<path d="M339.69 408.088L340.8 430.395H438.422L439.816 408.088H339.69Z" stroke="#DBDBDB" stroke-miterlimit="10"/>
<path d="M400.252 390.731H379.254L378.571 385.439H400.935L400.252 390.731Z" stroke="#DBDBDB" stroke-miterlimit="10"/>
<path d="M400.252 421.887H379.254L378.571 416.595H400.935L400.252 421.887Z" stroke="#DBDBDB" stroke-miterlimit="10"/>
<path d="M348.23 441.434L347.096 449.505L344.816 465.723H340.356V441.434H348.23Z" fill="#EBEBEB"/>
<path d="M348.23 441.434L347.096 449.505H340.356V441.434H348.23Z" fill="#DBDBDB"/>
<path d="M432.609 441.434L433.742 449.505L436.023 465.723H440.482V441.434H432.609Z" fill="#EBEBEB"/>
<path d="M432.609 441.434L433.742 449.505H440.482V441.434H432.609Z" fill="#DBDBDB"/>
<path d="M458.729 38.5952H291.672V182.235H458.729V38.5952Z" stroke="#EBEBEB" stroke-miterlimit="10"/>
<path d="M299.552 43.6295C299.552 44.7585 298.637 45.6735 297.508 45.6735C296.379 45.6735 295.464 44.7585 295.464 43.6295C295.464 42.5005 296.379 41.5855 297.508 41.5855C298.637 41.5845 299.552 42.4995 299.552 43.6295Z" fill="#A6A6A6"/>
<path d="M307.9 43.6295C307.9 44.7585 306.985 45.6735 305.856 45.6735C304.727 45.6735 303.812 44.7585 303.812 43.6295C303.812 42.5005 304.727 41.5855 305.856 41.5855C306.985 41.5845 307.9 42.4995 307.9 43.6295Z" fill="#EBEBEB"/>
<path d="M316.247 43.6295C316.247 44.7585 315.332 45.6735 314.203 45.6735C313.074 45.6735 312.159 44.7585 312.159 43.6295C312.159 42.5005 313.074 41.5855 314.203 41.5855C315.332 41.5845 316.247 42.4995 316.247 43.6295Z" fill="#0074D9"/>
<path d="M291.672 48.6143H458.729" stroke="#EBEBEB" stroke-miterlimit="10"/>
<path d="M401.835 354.736C402.653 360.337 402.348 366.114 400.982 371.597C400.341 374.164 399.46 376.639 398.399 379.051C397.058 382.136 395.656 385.148 395.994 388.523C396.32 388.741 395.202 388.705 395.166 388.377C386.146 383.242 374.579 382.301 367.637 373.904C364.349 369.928 362.691 364.888 361.904 359.848C361.05 354.36 360.813 348.283 362.229 342.873C363.422 338.298 366.096 333.885 370.395 331.643C374.833 329.335 380.645 329.527 385.317 330.978C395.397 334.109 400.409 344.986 401.835 354.736Z" fill="#0074D9"/>
<path d="M406.465 421.508C405.233 417.405 404.004 413.302 402.74 409.209C400.265 401.192 397.692 393.205 394.844 385.312C393.138 380.584 391.339 375.902 389.445 371.265C389.768 368.352 389.895 365.449 390.522 362.546C391.276 359.049 392.372 355.671 393.392 352.249C393.455 352.039 393.114 351.928 393.028 352.128C391.003 356.843 388.36 362.875 388.294 368.46C386.092 363.213 383.738 358.037 381.205 352.942C381.062 348.598 380.903 344.389 381.602 340.018C381.633 339.821 381.334 339.763 381.298 339.959C380.62 343.629 380.143 347.565 380.415 351.368C378.476 347.54 376.434 343.758 374.26 340.035C374.064 339.7 373.6 340.043 373.772 340.373C377.162 346.9 380.306 353.564 383.256 360.316C379.17 356.692 374.222 353.949 369.114 352.126C368.889 352.046 368.72 352.371 368.949 352.467C374.762 354.897 379.643 358.332 384.245 362.594C386.366 367.538 388.385 372.526 390.308 377.546C384.664 372.013 376.941 368.373 369.47 366.421C369.215 366.355 369.148 366.744 369.393 366.818C378.039 369.421 384.755 374.323 391.33 380.211C392.094 382.242 392.844 384.277 393.579 386.315C396.365 394.045 399.005 401.827 401.537 409.644C402.751 413.391 403.945 417.144 405.118 420.904C406.38 424.949 407.366 429.22 409.008 433.126C409.165 433.499 409.835 433.414 409.75 432.967C409.009 429.091 407.599 425.284 406.465 421.508Z" fill="#263238"/>
<path d="M391.503 346.841C389.887 349.318 388.808 352.04 388.254 354.939C388.24 355.013 388.356 355.057 388.383 354.982C389.388 352.254 390.57 349.619 391.905 347.037C392.042 346.773 391.655 346.607 391.503 346.841Z" fill="#263238"/>
<path d="M375.412 365.634C373.077 364.306 369.978 363.258 367.317 362.908C367.244 362.898 367.198 363.006 367.274 363.038C368.575 363.578 369.943 363.955 371.26 364.461C372.583 364.969 373.872 365.586 375.209 366.051C375.487 366.149 375.677 365.785 375.412 365.634Z" fill="#263238"/>
<path d="M370.879 343.028C370.059 342.485 369.186 341.788 368.275 341.42C368.132 341.362 368.007 341.539 368.125 341.648C368.847 342.313 369.853 342.807 370.692 343.313C370.857 343.413 371.042 343.135 370.879 343.028Z" fill="#263238"/>
<path d="M432.243 385.372C425.747 387.3 419.217 389.083 412.722 390.989C412.158 391.158 401.175 370.114 405.144 359.273C408.812 349.239 417.211 341.729 427.225 338.321C431.864 336.745 437.566 335.422 442.467 336.502C446.824 337.467 449.901 341.032 451.317 345.13C453.246 350.699 452.603 357.342 451.554 363.028C450.579 368.3 448.649 373.493 445.162 377.636C441.71 381.737 437.308 383.871 432.243 385.372Z" fill="#0074D9"/>
<path d="M441.662 365.373C437.526 367.459 433.335 368.969 428.925 370.386C426.163 371.274 423.07 372.075 420.422 373.464C423.165 367.348 426.176 361.359 429.372 355.425C433.569 354.21 437.982 352.317 441.147 349.347C441.32 349.185 441.098 348.941 440.911 349.073C437.449 351.519 433.632 352.988 429.802 354.642C430.667 353.045 431.537 351.451 432.427 349.86C432.675 349.417 432.065 348.977 431.767 349.408C428.362 354.322 425.299 359.528 422.536 364.91C421.851 360.162 421.604 355.536 421.868 350.706C421.875 350.583 421.698 350.573 421.679 350.692C420.876 355.8 420.914 361.207 421.839 366.3C419.561 370.848 417.485 375.505 415.621 380.222C414.88 377.388 413.917 374.599 413.274 371.742C412.349 367.63 411.915 363.441 412.341 359.236C412.353 359.113 412.172 359.104 412.152 359.222C410.892 366.677 412.041 375.097 414.878 382.179C413.792 385.018 412.756 387.868 411.808 390.723C406.957 405.34 403.967 420.41 403.185 435.797C403.167 436.152 403.693 436.189 403.734 435.838C405.499 420.745 408.616 405.72 413.415 391.293C415.299 385.629 417.468 380.131 419.847 374.735C423.684 373.601 427.506 372.063 431.275 370.757C434.952 369.483 438.72 368.01 441.808 365.593C441.928 365.5 441.796 365.305 441.662 365.373Z" fill="#263238"/>
<path d="M447.719 359.26C443.746 360.673 439.98 362.651 436.011 364.084C435.825 364.151 435.933 364.446 436.12 364.407C440.32 363.54 444.485 362.242 447.869 359.488C448 359.382 447.857 359.211 447.719 359.26Z" fill="#263238"/>
<path d="M415.277 350.688C415.325 350.478 415.017 350.356 414.953 350.573C413.863 354.235 413.111 358.122 414.172 361.865C414.214 362.012 414.444 362.016 414.453 361.847C414.643 358.076 414.432 354.406 415.277 350.688Z" fill="#263238"/>
<path d="M431.694 342.228C430.362 343.928 429.883 346.341 429.97 348.456C429.976 348.596 430.199 348.677 430.237 348.512C430.721 346.417 431.531 344.507 432.173 342.472C432.268 342.173 431.883 341.987 431.694 342.228Z" fill="#263238"/>
<path d="M354.97 394.654C356.875 400.698 361.399 409.054 368.567 409.121C373.213 409.165 377.892 408.614 382.549 408.548C387.536 408.471 392.535 408.482 397.511 408.779C397.918 408.801 396.914 393.845 384.927 386.562C381.569 384.522 377.463 383.876 373.653 383.05C369.293 382.103 364.801 381.465 360.331 381.663C357.579 381.773 355.289 382.357 354.309 385.175C353.286 388.126 354.056 391.781 354.97 394.654Z" fill="#0074D9"/>
<path d="M360.127 387.09C363.04 387.839 365.979 388.7 368.902 389.628C368.121 388.819 367.358 387.997 366.487 387.272C365.232 386.228 363.85 385.395 362.504 384.481C362.391 384.404 362.459 384.188 362.603 384.245C365.261 385.29 368.025 387.471 369.672 389.867C373.315 391.044 376.923 392.343 380.396 393.768C382.861 394.779 385.134 395.986 387.263 397.384C386.498 395.905 385.801 394.386 384.778 393.061C383.188 390.999 381.035 389.851 378.953 388.387C378.756 388.249 378.923 387.972 379.14 388.068C383.843 390.158 386.704 393.551 388.488 398.205C390.947 399.959 393.198 402.005 395.287 404.378C403.217 413.386 409.463 425.371 409.486 437.6C409.487 437.891 409.019 437.974 408.962 437.671C406.712 425.523 401.914 414.614 393.838 405.185C393.271 404.523 392.688 403.892 392.094 403.282C389.913 403.053 387.753 402.762 385.542 402.796C382.99 402.835 380.458 403.171 377.918 403.377C373.734 403.717 369.107 403.766 365.332 401.661C365.166 401.568 365.278 401.279 365.465 401.347C373.879 404.407 382.705 400.525 391.139 402.35C387.541 398.899 383.453 396.298 378.701 394.328C378.444 394.221 378.185 394.122 377.927 394.018C372.527 394.667 366.826 396.074 361.567 394.319C361.411 394.267 361.473 394.03 361.636 394.07C366.718 395.339 371.591 393.743 376.606 393.489C371.146 391.363 365.581 389.672 360.102 387.561C359.64 387.383 359.629 386.962 360.127 387.09Z" fill="#263238"/>
<path d="M357.745 392.406C360.381 392.84 362.955 392.854 365.605 393.001C365.665 393.004 365.684 393.096 365.62 393.111C363.035 393.692 360.208 393.334 357.69 392.605C357.56 392.568 357.616 392.385 357.745 392.406Z" fill="#263238"/>
<path d="M375.497 387.222C376.931 387.718 378.265 388.934 379.387 389.927C379.524 390.048 379.34 390.294 379.189 390.183C378.53 389.703 377.851 389.251 377.166 388.808C376.541 388.405 375.843 388.083 375.271 387.609C375.093 387.463 375.284 387.148 375.497 387.222Z" fill="#263238"/>
<path d="M417.82 406.684C417.732 406.882 418.018 407.069 418.128 406.86C418.139 406.86 418.139 406.86 418.139 406.849C418.183 406.904 418.238 406.959 418.326 406.97C423.17 408.016 428.036 409.084 432.969 409.524C436.932 409.876 441.501 410.096 444.969 407.795C449.67 404.679 452.764 396.345 450.22 391.05C447.215 384.764 438.154 388.176 433.607 390.411C426.617 393.825 421.002 399.594 417.82 406.684Z" fill="#0074D9"/>
<path d="M414.305 409.591C416.972 406.982 419.921 404.81 423.048 402.936C425.191 399.297 428.481 396.275 431.914 393.9C432.086 393.781 432.233 394.053 432.075 394.175C429.115 396.454 426.804 399.127 424.604 402.034C428.102 400.082 431.801 398.475 435.573 397.045C436.887 394.636 439.026 392.382 441.465 391.141C441.514 391.116 441.576 391.184 441.528 391.222C439.401 392.887 437.694 394.616 436.206 396.807C438.435 395.975 440.686 395.2 442.935 394.454C443.138 394.387 443.214 394.694 443.022 394.769C439.017 396.334 434.923 397.984 430.954 399.888C435.963 400.56 440.473 400.715 445.568 399.845C445.702 399.822 445.761 400.014 445.625 400.053C440.71 401.456 435.074 401.716 430.119 400.284C427.588 401.528 425.117 402.885 422.764 404.403C424.733 404.147 426.713 404.493 428.708 404.889C432.188 405.58 435.592 406.194 439.154 406.072C439.287 406.068 439.322 406.285 439.186 406.309C433.126 407.352 427.396 404.597 421.39 405.314C419.166 406.843 417.062 408.531 415.134 410.423C411.359 414.128 408.339 418.557 406.011 423.295C403.483 428.441 402.111 433.896 400.068 439.212C399.978 439.445 399.654 439.356 399.695 439.109C401.447 428.626 406.667 417.064 414.305 409.591Z" fill="#263238"/>
<path d="M432.582 395.214C432.935 394.491 433.554 393.875 434.134 393.331C434.642 392.855 435.261 392.241 435.923 391.992C435.984 391.969 436.018 392.052 435.982 392.093C435.486 392.657 434.793 393.07 434.258 393.61C433.718 394.154 433.271 394.79 432.724 395.324C432.647 395.398 432.537 395.305 432.582 395.214Z" fill="#263238"/>
<path d="M442.577 398.469C443.475 398.244 444.426 398.26 445.34 398.073C446.264 397.884 447.124 397.554 448.019 397.271C448.137 397.234 448.205 397.406 448.102 397.468C446.627 398.344 444.3 399.089 442.577 398.752C442.433 398.722 442.442 398.503 442.577 398.469Z" fill="#263238"/>
<path d="M389.334 426.19L390.129 435.224L392.829 465.723H416.715L420.087 435.224L421.084 426.19H389.334Z" fill="#37474F"/>
<path d="M389.334 426.19L390.129 435.224H420.087L421.084 426.19H389.334Z" fill="#263238"/>
<path d="M386.969 431.055H423.449V423.727H386.969V431.055Z" fill="#37474F"/>
<path d="M47.4431 465.723L98.0821 465.48L148.721 465.392L250 465.224L351.279 465.391L401.918 465.479L452.557 465.723L401.918 465.968L351.279 466.056L250 466.222L148.721 466.055L98.0821 465.966L47.4431 465.723Z" fill="#263238"/>
<path d="M434.136 56.625H65.865V289.606H434.136V56.625Z" fill="white"/>
<path d="M434.135 289.606C434.074 289.664 65.785 289.717 65.712 289.759C65.632 289.705 65.672 56.7162 65.615 56.6252V56.3762H65.864C65.905 56.3402 434.182 56.5542 434.231 56.5282C434.315 56.5822 434.076 289.535 434.135 289.606ZM434.135 289.606C434.155 289.655 433.907 56.1982 434.135 56.7222L65.865 56.8742L66.114 56.6252C66.087 56.5492 66.219 290.276 65.866 289.454C65.865 289.454 434.135 289.606 434.135 289.606Z" fill="#263238"/>
<path d="M434.136 56.625H65.865V65.59H434.136V56.625Z" fill="#263238"/>
<path d="M74.5099 61.1078C74.5099 62.1058 73.7009 62.9138 72.7039 62.9138C71.7069 62.9138 70.8979 62.1048 70.8979 61.1078C70.8979 60.1108 71.7069 59.3018 72.7039 59.3018C73.7019 59.3018 74.5099 60.1098 74.5099 61.1078Z" fill="#0074D9"/>
<path d="M81.8849 61.1078C81.8849 62.1058 81.0759 62.9138 80.0789 62.9138C79.0809 62.9138 78.2729 62.1048 78.2729 61.1078C78.2729 60.1108 79.0809 59.3018 80.0789 59.3018C81.0759 59.3018 81.8849 60.1098 81.8849 61.1078Z" fill="white"/>
<path d="M89.2599 61.1078C89.2599 62.1058 88.4509 62.9138 87.4539 62.9138C86.4569 62.9138 85.6479 62.1048 85.6479 61.1078C85.6479 60.1108 86.4569 59.3018 87.4539 59.3018C88.4509 59.3018 89.2599 60.1098 89.2599 61.1078Z" fill="#455A64"/>
<path d="M177.352 178.344H139.292V228.253H177.352V178.344Z" fill="#EBEBEB"/>
<path d="M223.191 178.344H185.131V228.253H223.191V178.344Z" fill="#EBEBEB"/>
<path d="M269.03 178.344H230.97V228.253H269.03V178.344Z" fill="#EBEBEB"/>
<path d="M314.869 178.344H276.809V228.253H314.869V178.344Z" fill="#EBEBEB"/>
<path d="M360.707 178.344H322.647V228.253H360.707V178.344Z" fill="#EBEBEB"/>
<path d="M163.822 200.726C165.648 202.514 166.542 204.899 166.542 207.283C166.542 209.631 165.611 212.015 163.822 213.803C162.034 215.629 159.65 216.523 157.302 216.523C157.227 216.523 157.227 216.523 157.227 216.523C154.917 216.523 152.496 215.629 150.744 213.803C149.887 213.02 149.887 211.679 150.744 210.822C151.527 210.003 152.905 210.003 153.725 210.822C154.693 211.829 155.96 212.312 157.302 212.312C158.568 212.312 159.873 211.828 160.841 210.822C161.81 209.853 162.331 208.55 162.331 207.283C162.331 205.942 161.847 204.676 160.841 203.707C159.872 202.7 158.605 202.253 157.302 202.253C156.035 202.253 154.693 202.7 153.725 203.707C152.905 204.526 151.564 204.526 150.744 203.707C150.595 203.558 150.483 203.371 150.334 203.222C150.334 203.148 150.334 203.11 150.297 203.11C150.297 203.035 150.26 202.961 150.222 202.924C150.222 202.812 150.185 202.738 150.185 202.663C150.185 202.626 150.148 202.626 150.148 202.588C150.111 202.365 150.111 202.141 150.148 201.955L151.265 192.306C151.377 191.673 151.712 191.151 152.196 190.815C152.271 190.778 152.308 190.778 152.345 190.74C152.382 190.703 152.42 190.703 152.457 190.665C152.755 190.517 153.053 190.442 153.426 190.442H164.417C165.609 190.442 166.54 191.373 166.54 192.566C166.54 193.684 165.609 194.653 164.417 194.653H155.251L154.804 198.341C155.624 198.118 156.481 198.006 157.301 198.006C159.65 198.006 162.034 198.9 163.822 200.726Z" fill="#C7C7C7"/>
<path d="M209.648 200.689C211.473 202.477 212.367 204.861 212.367 207.209C212.367 209.555 211.473 211.94 209.648 213.766C207.859 215.554 205.475 216.486 203.091 216.486C200.744 216.486 198.359 215.554 196.571 213.766C195.752 212.947 195.752 211.605 196.571 210.785C197.391 209.966 198.732 209.966 199.552 210.785C200.521 211.754 201.788 212.237 203.091 212.237C204.395 212.237 205.661 211.753 206.668 210.785C207.674 209.78 208.158 208.512 208.158 207.209C208.158 205.905 207.674 204.637 206.668 203.669C205.699 202.663 204.433 202.216 203.129 202.18C202.533 202.217 201.974 201.956 201.601 201.509C201.564 201.509 201.564 201.509 201.564 201.472C200.707 200.652 200.707 199.348 201.489 198.491L205.289 194.616H199.253C198.098 194.616 197.167 193.685 197.167 192.492C197.167 191.337 198.098 190.406 199.253 190.406H210.244C211.436 190.406 212.368 191.337 212.368 192.492C212.368 192.864 212.257 193.2 212.107 193.499C211.996 193.685 211.884 193.871 211.735 194.02L207.041 198.864C208.008 199.31 208.902 199.907 209.648 200.689Z" fill="#C7C7C7"/>
<path d="M255.487 200.689C257.312 202.477 258.206 204.861 258.206 207.209C258.206 209.555 257.312 211.94 255.487 213.766C253.698 215.554 251.313 216.486 248.929 216.486C246.582 216.486 244.198 215.554 242.409 213.766C241.59 212.947 241.59 211.605 242.409 210.785C243.229 209.966 244.57 209.966 245.39 210.785C246.359 211.754 247.626 212.237 248.929 212.237C250.233 212.237 251.5 211.753 252.506 210.785C253.511 209.78 253.996 208.512 253.996 207.209C253.996 205.905 253.511 204.637 252.506 203.669C251.537 202.663 250.271 202.216 248.967 202.18C248.371 202.217 247.812 201.956 247.439 201.509C247.402 201.509 247.402 201.509 247.402 201.472C246.545 200.652 246.545 199.348 247.327 198.491L251.127 194.616H245.092C243.937 194.616 243.005 193.685 243.005 192.492C243.005 191.337 243.937 190.406 245.092 190.406H256.082C257.275 190.406 258.206 191.337 258.206 192.492C258.206 192.864 258.094 193.2 257.945 193.499C257.834 193.685 257.722 193.871 257.573 194.02L252.879 198.864C253.847 199.31 254.741 199.907 255.487 200.689Z" fill="#C7C7C7"/>
<path d="M304.743 207.657C304.743 212.537 300.756 216.524 295.876 216.524C290.958 216.524 286.934 212.538 286.934 207.657C286.934 204.565 288.499 201.845 290.921 200.243C290.138 199.236 289.691 197.932 289.691 196.554C289.691 193.201 292.448 190.444 295.876 190.444C299.229 190.444 301.986 193.201 301.986 196.554C301.986 197.932 301.539 199.236 300.757 200.243C303.141 201.844 304.743 204.564 304.743 207.657ZM300.682 207.657C300.682 205.012 298.521 202.813 295.876 202.813C293.193 202.813 291.032 205.011 290.995 207.657C291.032 210.302 293.193 212.463 295.876 212.463C298.521 212.462 300.682 210.302 300.682 207.657ZM293.753 196.554C293.753 197.709 294.684 198.678 295.877 198.678C296.994 198.678 297.926 197.709 297.926 196.554C297.926 195.436 296.995 194.505 295.877 194.505C294.684 194.505 293.753 195.436 293.753 196.554Z" fill="#C7C7C7"/>
<path d="M277.062 245.717H222.938V262.672H277.062V245.717Z" fill="#0074D9"/>
<path d="M234.474 255.509C234.625 255.324 234.901 255.299 235.086 255.45C235.454 255.751 236.091 256.103 236.686 256.096C237.105 256.096 237.482 255.97 237.734 255.786C237.985 255.601 238.094 255.391 238.094 255.182C238.094 255.074 238.068 254.998 238.018 254.914C237.968 254.83 237.892 254.747 237.767 254.662C237.524 254.504 237.113 254.361 236.619 254.269H236.602C236.209 254.194 235.839 254.093 235.521 253.942C235.203 253.791 234.927 253.582 234.743 253.289C234.617 253.088 234.55 252.853 234.55 252.602C234.55 252.099 234.834 251.664 235.22 251.378C235.614 251.094 236.125 250.934 236.669 250.934C237.474 250.934 238.068 251.327 238.496 251.604C238.688 251.738 238.747 252.006 238.613 252.199C238.487 252.4 238.219 252.459 238.018 252.325C237.591 252.04 237.181 251.789 236.669 251.789C236.292 251.789 235.957 251.906 235.73 252.073C235.504 252.24 235.412 252.425 235.412 252.601C235.412 252.701 235.429 252.768 235.47 252.835C235.512 252.902 235.588 252.978 235.696 253.052C235.915 253.204 236.291 253.337 236.744 253.421H236.761C237.188 253.504 237.581 253.614 237.917 253.773C238.26 253.94 238.562 254.159 238.755 254.469C238.88 254.67 238.956 254.92 238.956 255.18C238.956 255.716 238.654 256.178 238.236 256.479C237.825 256.781 237.281 256.957 236.685 256.957C235.78 256.948 235.019 256.496 234.54 256.119C234.357 255.969 234.331 255.693 234.474 255.509Z" fill="white"/>
<path d="M242.674 256.966C241.325 256.966 240.253 255.877 240.253 254.545V251.563C240.253 251.303 240.454 251.101 240.714 251.101C240.966 251.101 241.183 251.303 241.183 251.563V254.545C241.183 255.367 241.853 256.037 242.675 256.037C243.504 256.037 244.167 255.367 244.167 254.545V251.563C244.167 251.303 244.377 251.101 244.636 251.101C244.896 251.101 245.096 251.303 245.096 251.563V254.545C245.095 255.877 244.014 256.966 242.674 256.966Z" fill="white"/>
<path d="M247.06 256.505V251.562C247.06 251.302 247.27 251.1 247.522 251.1C247.53 251.1 247.53 251.1 247.546 251.1C247.546 251.1 247.546 251.1 247.555 251.1H248.711C249.591 251.1 250.303 251.812 250.303 252.692C250.303 253.052 250.186 253.38 249.984 253.647C250.487 253.966 250.83 254.527 250.83 255.163C250.83 256.161 250.026 256.964 249.037 256.964H247.554C247.545 256.964 247.545 256.956 247.545 256.956C247.528 256.956 247.528 256.964 247.521 256.964C247.27 256.966 247.06 256.756 247.06 256.505ZM247.991 253.372H248.711C249.08 253.372 249.373 253.062 249.373 252.693C249.373 252.325 249.08 252.032 248.711 252.032H247.991V253.372ZM247.991 256.036H249.038C249.515 256.027 249.901 255.65 249.901 255.164C249.901 254.687 249.515 254.31 249.038 254.301H247.991V256.036Z" fill="white"/>
<path d="M257.079 251.563V256.506C257.079 256.757 256.862 256.966 256.61 256.966C256.35 256.966 256.15 256.756 256.15 256.506V252.979L254.944 254.654C254.851 254.78 254.718 254.847 254.567 254.847H254.558H254.55C254.398 254.847 254.257 254.78 254.164 254.654L252.966 252.979V256.506C252.966 256.757 252.756 256.966 252.497 256.966C252.246 256.966 252.037 256.756 252.037 256.506V251.563C252.037 251.311 252.247 251.101 252.497 251.101C252.506 251.101 252.506 251.101 252.523 251.101C252.657 251.101 252.807 251.168 252.891 251.294L254.559 253.606L256.227 251.294C256.318 251.168 256.453 251.101 256.604 251.101C256.604 251.101 256.604 251.101 256.612 251.101C256.861 251.11 257.079 251.311 257.079 251.563Z" fill="white"/>
<path d="M259.162 251.563C259.162 251.303 259.363 251.101 259.622 251.101C259.874 251.101 260.091 251.303 260.091 251.563V256.506C260.091 256.766 259.874 256.966 259.622 256.966C259.362 256.966 259.162 256.765 259.162 256.506V251.563Z" fill="white"/>
<path d="M265.243 252.032H263.911V256.506C263.911 256.766 263.71 256.966 263.451 256.966C263.199 256.966 262.989 256.765 262.989 256.506V252.032H261.666C261.406 252.032 261.206 251.813 261.206 251.563C261.206 251.303 261.407 251.101 261.666 251.101H265.243C265.495 251.101 265.703 251.303 265.703 251.563C265.703 251.813 265.495 252.032 265.243 252.032Z" fill="white"/>
<path d="M257.055 97.475V105.088H254.904V97.475C254.904 94.58 252.705 92.226 250 92.226C247.295 92.226 245.096 94.58 245.096 97.475V105.088H242.945V97.475C242.945 93.329 246.11 89.957 250 89.957C253.89 89.957 257.055 93.329 257.055 97.475Z" fill="#EBEBEB"/>
<path d="M242.945 99.4551L245.096 99.5411V105.088H242.945V99.4551Z" fill="#C7C7C7"/>
<path d="M257.055 100.029V105.088H254.904V99.9409L257.055 100.029Z" fill="#C7C7C7"/>
<path d="M259.812 102.271H240.187V118.558H259.812V102.271Z" fill="#0074D9"/>
<path d="M250.83 110.308L251.652 114.205H248.165L248.987 110.308C248.496 109.997 248.165 109.456 248.165 108.835C248.165 107.863 248.946 107.092 249.908 107.092C250.87 107.092 251.651 107.863 251.651 108.835C251.652 109.456 251.321 109.997 250.83 110.308Z" fill="#263238"/>
<path d="M143.623 159.533C143.623 159.415 143.723 159.314 143.843 159.314H143.87H145.653C146.659 159.314 147.472 160.137 147.472 161.142C147.472 162.147 146.658 162.961 145.653 162.961L144.071 162.98V165.494C144.071 165.613 143.971 165.714 143.843 165.714C143.724 165.714 143.623 165.614 143.623 165.494V159.533ZM145.652 162.531C146.411 162.522 147.032 161.9 147.032 161.141C147.032 160.382 146.41 159.761 145.652 159.761H144.07V162.531H145.652Z" fill="#263238"/>
<path d="M148.915 159.533C148.915 159.415 149.016 159.314 149.134 159.314C149.262 159.314 149.363 159.414 149.363 159.533V165.493C149.363 165.612 149.263 165.713 149.134 165.713C149.016 165.713 148.915 165.613 148.915 165.493V159.533Z" fill="#263238"/>
<path d="M151.218 163.482C151.218 162.239 152.187 161.233 153.393 161.233C154.545 161.233 155.459 162.147 155.551 163.318V163.327V163.354C155.551 163.473 155.451 163.555 155.332 163.555H151.658C151.704 164.533 152.471 165.274 153.394 165.274C153.988 165.274 154.537 164.963 154.839 164.46C154.903 164.35 155.04 164.332 155.132 164.387C155.232 164.46 155.269 164.588 155.205 164.698C154.821 165.311 154.154 165.713 153.395 165.713C152.187 165.713 151.218 164.707 151.218 163.482ZM151.685 163.125H155.076C154.93 162.284 154.217 161.672 153.394 161.672C152.553 161.672 151.849 162.275 151.685 163.125Z" fill="#263238"/>
<path d="M160.862 161.452V165.492C160.862 165.611 160.762 165.712 160.643 165.712C160.524 165.712 160.424 165.612 160.424 165.492V164.825C160.04 165.355 159.428 165.712 158.742 165.712C157.563 165.712 156.621 164.697 156.621 163.472C156.621 162.247 157.563 161.232 158.742 161.232C159.428 161.232 160.04 161.579 160.424 162.11V161.452C160.424 161.324 160.524 161.233 160.643 161.233C160.762 161.233 160.862 161.325 160.862 161.452ZM160.423 163.473C160.423 162.468 159.665 161.663 158.741 161.663C157.827 161.663 157.059 162.468 157.059 163.473C157.059 164.478 157.827 165.274 158.741 165.274C159.664 165.274 160.423 164.478 160.423 163.473Z" fill="#263238"/>
<path d="M162.452 164.78C162.525 164.689 162.662 164.67 162.763 164.752C163.074 164.98 163.568 165.273 164.134 165.273C164.481 165.273 164.783 165.163 164.985 164.999C165.204 164.853 165.323 164.652 165.323 164.45C165.314 164.24 165.231 164.094 165.003 163.902C164.811 163.756 164.491 163.646 164.052 163.573L164.033 163.564C163.631 163.491 163.275 163.399 163.018 163.217C162.735 163.052 162.534 162.76 162.534 162.412C162.534 162.055 162.735 161.745 163.018 161.534C163.283 161.351 163.658 161.232 164.115 161.232C164.691 161.232 165.102 161.497 165.45 161.717C165.55 161.79 165.578 161.927 165.514 162.028C165.45 162.128 165.313 162.156 165.212 162.092C164.883 161.872 164.554 161.644 164.115 161.644C163.75 161.644 163.457 161.744 163.265 161.9C163.082 162.046 162.982 162.229 162.982 162.412C162.982 162.595 163.064 162.723 163.238 162.86C163.439 162.997 163.741 163.107 164.152 163.171H164.17C164.6 163.235 164.947 163.363 165.258 163.537C165.551 163.729 165.761 164.077 165.761 164.451C165.761 164.826 165.551 165.128 165.25 165.356C164.939 165.585 164.573 165.713 164.134 165.713C163.412 165.704 162.845 165.365 162.48 165.073C162.387 164.99 162.378 164.872 162.452 164.78Z" fill="#263238"/>
<path d="M166.939 163.482C166.939 162.239 167.908 161.233 169.115 161.233C170.267 161.233 171.181 162.147 171.272 163.318V163.327V163.354C171.272 163.473 171.172 163.555 171.053 163.555H167.379C167.425 164.533 168.192 165.274 169.115 165.274C169.709 165.274 170.258 164.963 170.56 164.46C170.624 164.35 170.761 164.332 170.852 164.387C170.952 164.46 170.989 164.588 170.925 164.698C170.541 165.311 169.874 165.713 169.115 165.713C167.909 165.713 166.939 164.707 166.939 163.482ZM167.406 163.125H170.797C170.651 162.284 169.937 161.672 169.115 161.672C168.274 161.672 167.57 162.275 167.406 163.125Z" fill="#263238"/>
<path d="M175.248 163.482C175.248 162.239 176.217 161.233 177.424 161.233C178.576 161.233 179.49 162.147 179.581 163.318V163.327V163.354C179.581 163.473 179.481 163.555 179.362 163.555H175.688C175.734 164.533 176.501 165.274 177.425 165.274C178.019 165.274 178.568 164.963 178.869 164.46C178.933 164.35 179.07 164.332 179.162 164.387C179.262 164.46 179.299 164.588 179.235 164.698C178.851 165.311 178.184 165.713 177.425 165.713C176.217 165.713 175.248 164.707 175.248 163.482ZM175.714 163.125H179.105C178.959 162.284 178.246 161.672 177.423 161.672C176.583 161.672 175.878 162.275 175.714 163.125Z" fill="#263238"/>
<path d="M184.334 163.062C184.334 162.303 183.721 161.682 182.954 161.682C182.195 161.682 181.582 162.303 181.564 163.062V165.493V165.53C181.555 165.566 181.546 165.603 181.518 165.63C181.481 165.685 181.417 165.712 181.353 165.712H181.298C181.234 165.694 181.179 165.648 181.152 165.593C181.143 165.584 181.143 165.575 181.143 165.565C181.143 165.556 181.134 165.547 181.134 165.547V165.492V163.061V162.987V161.461C181.134 161.342 181.226 161.241 181.353 161.241C181.471 161.241 181.563 161.342 181.563 161.461V161.891C181.892 161.497 182.395 161.242 182.953 161.242C183.958 161.242 184.772 162.065 184.772 163.061V165.492C184.772 165.62 184.672 165.712 184.552 165.712C184.434 165.712 184.333 165.62 184.333 165.492V163.062H184.334Z" fill="#263238"/>
<path d="M188.3 161.452C188.3 161.562 188.19 161.672 188.08 161.672H187.504V164.935C187.504 165.155 187.724 165.264 187.833 165.264C187.943 165.264 188.061 165.383 188.061 165.492C188.061 165.602 187.943 165.712 187.833 165.712C187.385 165.712 187.047 165.383 187.047 164.935V161.672H186.489C186.27 161.672 186.27 161.562 186.27 161.452C186.27 161.342 186.27 161.233 186.489 161.233H187.047V159.57C187.047 159.46 187.157 159.351 187.266 159.351C187.385 159.351 187.504 159.461 187.504 159.57V161.233H188.08C188.19 161.233 188.3 161.343 188.3 161.452Z" fill="#263238"/>
<path d="M189.707 163.482C189.707 162.239 190.676 161.233 191.883 161.233C193.035 161.233 193.949 162.147 194.04 163.318V163.327V163.354C194.04 163.473 193.94 163.555 193.821 163.555H190.147C190.193 164.533 190.96 165.274 191.883 165.274C192.477 165.274 193.026 164.963 193.328 164.46C193.392 164.35 193.529 164.332 193.62 164.387C193.72 164.46 193.757 164.588 193.693 164.698C193.309 165.311 192.642 165.713 191.883 165.713C190.677 165.713 189.707 164.707 189.707 163.482ZM190.174 163.125H193.565C193.419 162.284 192.706 161.672 191.883 161.672C191.042 161.672 190.338 162.275 190.174 163.125Z" fill="#263238"/>
<path d="M195.402 161.462C195.402 161.334 195.502 161.242 195.63 161.242C195.74 161.242 195.841 161.334 195.841 161.462V162.449C195.859 162.412 195.877 162.375 195.905 162.339C196.243 161.809 196.837 161.242 197.697 161.242C197.816 161.242 197.917 161.334 197.917 161.462C197.917 161.58 197.816 161.681 197.697 161.681C197.112 161.681 196.71 162.01 196.399 162.412C196.097 162.814 195.923 163.271 195.859 163.454C195.841 163.491 195.841 163.509 195.841 163.527V165.492C195.841 165.62 195.74 165.712 195.63 165.712C195.502 165.712 195.402 165.62 195.402 165.492V161.462Z" fill="#263238"/>
<path d="M203.719 161.452C203.719 161.562 203.609 161.672 203.5 161.672H202.924V164.935C202.924 165.155 203.144 165.264 203.253 165.264C203.363 165.264 203.481 165.383 203.481 165.492C203.481 165.602 203.363 165.712 203.253 165.712C202.805 165.712 202.467 165.383 202.467 164.935V161.672H201.909C201.69 161.672 201.69 161.562 201.69 161.452C201.69 161.342 201.69 161.233 201.909 161.233H202.467V159.57C202.467 159.46 202.577 159.351 202.686 159.351C202.805 159.351 202.924 159.461 202.924 159.57V161.233H203.5C203.609 161.233 203.719 161.343 203.719 161.452Z" fill="#263238"/>
<path d="M208.921 162.997C208.921 162.211 208.281 161.681 207.495 161.681C206.718 161.681 206.078 162.211 206.078 162.997V165.492V165.519C206.078 165.538 206.069 165.546 206.069 165.556C206.06 165.574 206.06 165.583 206.05 165.592C206.023 165.647 205.977 165.684 205.913 165.702C205.913 165.702 205.904 165.711 205.895 165.711H205.877H205.85C205.786 165.711 205.722 165.684 205.676 165.638C205.658 165.611 205.649 165.592 205.64 165.564C205.631 165.537 205.631 165.518 205.631 165.491V162.996V162.923V159.531C205.631 159.413 205.731 159.312 205.85 159.312C205.978 159.312 206.078 159.412 206.078 159.531V161.89C206.416 161.488 206.928 161.231 207.495 161.231C208.528 161.231 209.369 161.963 209.369 162.995V165.49C209.369 165.609 209.269 165.71 209.141 165.71C209.022 165.71 208.922 165.61 208.922 165.49L208.921 162.997Z" fill="#263238"/>
<path d="M210.913 163.482C210.913 162.239 211.882 161.233 213.088 161.233C214.24 161.233 215.154 162.147 215.246 163.318V163.327V163.354C215.246 163.473 215.146 163.555 215.026 163.555H211.352C211.398 164.533 212.165 165.274 213.088 165.274C213.682 165.274 214.231 164.963 214.533 164.46C214.597 164.35 214.734 164.332 214.826 164.387C214.926 164.46 214.963 164.588 214.899 164.698C214.515 165.311 213.848 165.713 213.089 165.713C211.882 165.713 210.913 164.707 210.913 163.482ZM211.379 163.125H214.77C214.624 162.284 213.911 161.672 213.088 161.672C212.247 161.672 211.543 162.275 211.379 163.125Z" fill="#263238"/>
<path d="M222.448 159.222C224.157 159.222 225.501 160.675 225.511 162.467C225.502 164.259 224.158 165.712 222.448 165.712C220.72 165.712 219.367 164.259 219.358 162.467C219.367 160.675 220.72 159.222 222.448 159.222ZM222.448 165.265C223.856 165.265 225.044 164.031 225.053 162.468C225.044 160.886 223.856 159.68 222.448 159.68C220.994 159.68 219.806 160.886 219.806 162.468C219.806 164.03 220.994 165.265 222.448 165.265Z" fill="#263238"/>
<path d="M228.563 159.762H226.634C226.515 159.762 226.415 159.662 226.415 159.533C226.415 159.415 226.515 159.314 226.634 159.314H230.93C231.049 159.314 231.149 159.414 231.149 159.533C231.149 159.661 231.049 159.762 230.93 159.762H229.001V165.493C229.001 165.612 228.9 165.713 228.781 165.713C228.662 165.713 228.562 165.613 228.562 165.493V159.762H228.563Z" fill="#263238"/>
<path d="M232.83 159.533C232.83 159.415 232.93 159.314 233.05 159.314H233.077H234.86C235.865 159.314 236.679 160.137 236.679 161.142C236.679 162.147 235.865 162.961 234.86 162.961L233.278 162.98V165.494C233.278 165.613 233.177 165.714 233.05 165.714C232.931 165.714 232.83 165.614 232.83 165.494V159.533ZM234.86 162.531C235.618 162.522 236.24 161.9 236.24 161.141C236.24 160.382 235.618 159.761 234.86 159.761H233.278V162.531H234.86Z" fill="#263238"/>
<path d="M240.481 163.464C240.481 162.22 241.505 161.233 242.784 161.233C243.314 161.233 243.817 161.416 244.21 161.727C244.301 161.791 244.32 161.928 244.237 162.029C244.164 162.111 244.036 162.138 243.935 162.065C243.615 161.809 243.213 161.663 242.783 161.663C241.741 161.663 240.919 162.477 240.919 163.464C240.919 164.469 241.742 165.274 242.783 165.274C243.213 165.274 243.615 165.128 243.935 164.88C244.035 164.807 244.164 164.835 244.237 164.917C244.319 165.017 244.301 165.155 244.191 165.237C243.816 165.529 243.313 165.712 242.783 165.712C241.505 165.713 240.481 164.725 240.481 163.464Z" fill="#263238"/>
<path d="M247.793 161.233C248.972 161.233 249.914 162.257 249.914 163.473C249.914 164.689 248.973 165.713 247.793 165.713C246.623 165.713 245.672 164.689 245.672 163.473C245.673 162.257 246.623 161.233 247.793 161.233ZM247.793 165.274C248.707 165.274 249.475 164.469 249.475 163.473C249.475 162.477 248.707 161.663 247.793 161.663C246.879 161.663 246.111 162.477 246.111 163.473C246.111 164.469 246.88 165.274 247.793 165.274Z" fill="#263238"/>
<path d="M255.179 164.844C254.786 165.374 254.164 165.712 253.46 165.712C252.254 165.712 251.294 164.707 251.294 163.482C251.294 162.239 252.254 161.233 253.46 161.233C254.164 161.233 254.785 161.58 255.179 162.111V159.533C255.179 159.415 255.28 159.314 255.407 159.314C255.526 159.314 255.627 159.414 255.627 159.533V163.391V163.483V165.494C255.627 165.613 255.527 165.714 255.407 165.714C255.28 165.714 255.179 165.614 255.179 165.494V164.844ZM255.179 163.555V163.409C255.142 162.449 254.384 161.681 253.46 161.681C252.519 161.681 251.741 162.485 251.741 163.482C251.741 164.469 252.519 165.265 253.46 165.265C254.384 165.265 255.142 164.506 255.179 163.555Z" fill="#263238"/>
<path d="M257.171 163.482C257.171 162.239 258.14 161.233 259.347 161.233C260.498 161.233 261.413 162.147 261.505 163.318V163.327V163.354C261.505 163.473 261.403 163.555 261.285 163.555H257.61C257.656 164.533 258.423 165.274 259.347 165.274C259.941 165.274 260.49 164.963 260.791 164.46C260.855 164.35 260.992 164.332 261.083 164.387C261.185 164.46 261.221 164.588 261.157 164.698C260.773 165.311 260.106 165.713 259.347 165.713C258.14 165.713 257.171 164.707 257.171 163.482ZM257.637 163.125H261.028C260.882 162.284 260.17 161.672 259.346 161.672C258.505 161.672 257.801 162.275 257.637 163.125Z" fill="#263238"/>
<path d="M265.489 164.78C265.562 164.689 265.699 164.67 265.8 164.752C266.111 164.98 266.605 165.273 267.171 165.273C267.519 165.273 267.82 165.163 268.021 164.999C268.241 164.853 268.36 164.652 268.36 164.45C268.351 164.24 268.269 164.094 268.04 163.902C267.848 163.756 267.528 163.646 267.089 163.573L267.07 163.564C266.668 163.491 266.311 163.399 266.055 163.217C265.772 163.052 265.57 162.76 265.57 162.412C265.57 162.055 265.772 161.745 266.055 161.534C266.32 161.351 266.695 161.232 267.153 161.232C267.729 161.232 268.14 161.497 268.487 161.717C268.589 161.79 268.615 161.927 268.551 162.028C268.487 162.128 268.35 162.156 268.25 162.092C267.921 161.872 267.591 161.644 267.153 161.644C266.787 161.644 266.494 161.744 266.303 161.9C266.12 162.046 266.019 162.229 266.019 162.412C266.019 162.595 266.101 162.723 266.275 162.86C266.476 162.997 266.778 163.107 267.189 163.171H267.208C267.637 163.235 267.985 163.363 268.295 163.537C268.588 163.729 268.798 164.077 268.798 164.451C268.798 164.826 268.588 165.128 268.286 165.356C267.975 165.585 267.61 165.713 267.171 165.713C266.449 165.704 265.882 165.365 265.516 165.073C265.425 164.99 265.415 164.872 265.489 164.78Z" fill="#263238"/>
<path d="M269.977 163.482C269.977 162.239 270.946 161.233 272.153 161.233C273.305 161.233 274.219 162.147 274.311 163.318V163.327V163.354C274.311 163.473 274.209 163.555 274.091 163.555H270.416C270.462 164.533 271.229 165.274 272.152 165.274C272.746 165.274 273.295 164.963 273.597 164.46C273.661 164.35 273.798 164.332 273.889 164.387C273.991 164.46 274.027 164.588 273.962 164.698C273.578 165.311 272.911 165.713 272.152 165.713C270.946 165.713 269.977 164.707 269.977 163.482ZM270.443 163.125H273.835C273.688 162.284 272.976 161.672 272.152 161.672C271.311 161.672 270.607 162.275 270.443 163.125Z" fill="#263238"/>
<path d="M279.062 163.062C279.062 162.303 278.449 161.682 277.682 161.682C276.923 161.682 276.311 162.303 276.292 163.062V165.493V165.53C276.283 165.566 276.273 165.603 276.246 165.63C276.209 165.685 276.146 165.712 276.081 165.712H276.026C275.962 165.694 275.907 165.648 275.88 165.593C275.871 165.584 275.871 165.575 275.871 165.565C275.871 165.556 275.862 165.547 275.862 165.547V165.492V163.061V162.987V161.461C275.862 161.342 275.953 161.241 276.082 161.241C276.201 161.241 276.292 161.342 276.292 161.461V161.891C276.621 161.497 277.123 161.242 277.682 161.242C278.687 161.242 279.501 162.065 279.501 163.061V165.492C279.501 165.62 279.399 165.712 279.282 165.712C279.163 165.712 279.062 165.62 279.062 165.492V163.062Z" fill="#263238"/>
<path d="M283.029 161.452C283.029 161.562 282.919 161.672 282.81 161.672H282.234V164.935C282.234 165.155 282.453 165.264 282.562 165.264C282.671 165.264 282.791 165.383 282.791 165.492C282.791 165.602 282.672 165.712 282.562 165.712C282.115 165.712 281.776 165.383 281.776 164.935V161.672H281.219C280.999 161.672 280.999 161.562 280.999 161.452C280.999 161.342 280.999 161.233 281.219 161.233H281.776V159.57C281.776 159.46 281.886 159.351 281.996 159.351C282.115 159.351 282.234 159.461 282.234 159.57V161.233H282.81C282.919 161.233 283.029 161.343 283.029 161.452Z" fill="#263238"/>
<path d="M289.427 161.452C289.427 161.562 289.317 161.672 289.207 161.672H288.631V164.935C288.631 165.155 288.849 165.264 288.959 165.264C289.069 165.264 289.188 165.383 289.188 165.492C289.188 165.602 289.069 165.712 288.959 165.712C288.512 165.712 288.173 165.383 288.173 164.935V161.672H287.616C287.396 161.672 287.396 161.562 287.396 161.452C287.396 161.342 287.396 161.233 287.616 161.233H288.173V159.57C288.173 159.46 288.283 159.351 288.393 159.351C288.512 159.351 288.631 159.461 288.631 159.57V161.233H289.207C289.318 161.233 289.427 161.343 289.427 161.452Z" fill="#263238"/>
<path d="M293.293 161.233C294.472 161.233 295.414 162.257 295.414 163.473C295.414 164.689 294.473 165.713 293.293 165.713C292.123 165.713 291.172 164.689 291.172 163.473C291.172 162.257 292.123 161.233 293.293 161.233ZM293.293 165.274C294.207 165.274 294.975 164.469 294.975 163.473C294.975 162.477 294.208 161.663 293.293 161.663C292.379 161.663 291.611 162.477 291.611 163.473C291.611 164.469 292.379 165.274 293.293 165.274Z" fill="#263238"/>
<path d="M299.462 161.444C299.462 161.325 299.562 161.233 299.672 161.233C299.8 161.233 299.901 161.325 299.901 161.444V163.875C299.901 164.643 300.513 165.255 301.272 165.255C302.04 165.255 302.652 164.642 302.662 163.875V161.444C302.662 161.407 302.671 161.362 302.698 161.334C302.698 161.325 302.707 161.315 302.707 161.307C302.716 161.307 302.716 161.298 302.726 161.298C302.744 161.271 302.781 161.252 302.808 161.243H302.827C302.836 161.243 302.845 161.234 302.854 161.234H302.882H302.909C302.946 161.243 302.983 161.261 303.019 161.28C303.038 161.298 303.065 161.326 303.074 161.353C303.093 161.38 303.102 161.417 303.102 161.445V163.876V163.958V165.356C303.102 166.526 302.151 167.459 300.972 167.459C300.643 167.459 300.332 167.377 300.048 167.249C299.948 167.185 299.902 167.057 299.957 166.957C300.012 166.847 300.131 166.82 300.24 166.847C300.459 166.957 300.716 167.021 300.972 167.021C301.904 167.021 302.654 166.281 302.663 165.357V165.064C302.324 165.448 301.832 165.704 301.273 165.704C300.277 165.695 299.463 164.881 299.463 163.876V161.444H299.462Z" fill="#263238"/>
<path d="M306.848 161.233C308.027 161.233 308.969 162.257 308.969 163.473C308.969 164.689 308.028 165.713 306.848 165.713C305.678 165.713 304.727 164.689 304.727 163.473C304.727 162.257 305.677 161.233 306.848 161.233ZM306.848 165.274C307.762 165.274 308.53 164.469 308.53 163.473C308.53 162.477 307.763 161.663 306.848 161.663C305.934 161.663 305.166 162.477 305.166 163.473C305.166 164.469 305.933 165.274 306.848 165.274Z" fill="#263238"/>
<path d="M310.413 161.444C310.413 161.316 310.513 161.225 310.633 161.225C310.751 161.225 310.851 161.316 310.851 161.444V163.885C310.851 164.653 311.464 165.265 312.223 165.275C312.99 165.266 313.613 164.653 313.613 163.885V161.444C313.613 161.316 313.723 161.225 313.832 161.225C313.96 161.225 314.061 161.316 314.061 161.444V163.885C314.061 164.89 313.247 165.713 312.224 165.713C311.219 165.713 310.414 164.89 310.414 163.885V161.444H310.413Z" fill="#263238"/>
<path d="M316.107 161.462C316.107 161.334 316.207 161.242 316.336 161.242C316.446 161.242 316.546 161.334 316.546 161.462V162.449C316.564 162.412 316.582 162.375 316.61 162.339C316.948 161.809 317.542 161.242 318.401 161.242C318.52 161.242 318.621 161.334 318.621 161.462C318.621 161.58 318.521 161.681 318.401 161.681C317.816 161.681 317.413 162.01 317.103 162.412C316.802 162.814 316.628 163.271 316.564 163.454C316.546 163.491 316.546 163.509 316.546 163.527V165.492C316.546 165.62 316.446 165.712 316.336 165.712C316.208 165.712 316.107 165.62 316.107 165.492V161.462Z" fill="#263238"/>
<path d="M326.061 163.062C326.061 162.303 325.448 161.682 324.681 161.682C323.922 161.682 323.31 162.303 323.291 163.062V165.493V165.53C323.282 165.566 323.272 165.603 323.246 165.63C323.209 165.685 323.145 165.712 323.081 165.712H323.026C322.962 165.694 322.907 165.648 322.88 165.593C322.871 165.584 322.871 165.575 322.871 165.565C322.871 165.556 322.862 165.547 322.862 165.547V165.492V163.061V162.987V161.461C322.862 161.342 322.953 161.241 323.082 161.241C323.201 161.241 323.292 161.342 323.292 161.461V161.891C323.621 161.497 324.124 161.242 324.682 161.242C325.687 161.242 326.501 162.065 326.501 163.061V165.492C326.501 165.62 326.399 165.712 326.281 165.712C326.162 165.712 326.062 165.62 326.062 165.492V163.062H326.061Z" fill="#263238"/>
<path d="M328.373 161.444C328.373 161.316 328.473 161.225 328.593 161.225C328.711 161.225 328.811 161.316 328.811 161.444V163.885C328.811 164.653 329.424 165.265 330.183 165.275C330.95 165.266 331.573 164.653 331.573 163.885V161.444C331.573 161.316 331.683 161.225 331.792 161.225C331.92 161.225 332.021 161.316 332.021 161.444V163.885C332.021 164.89 331.207 165.713 330.184 165.713C329.179 165.713 328.374 164.89 328.374 163.885V161.444H328.373Z" fill="#263238"/>
<path d="M340.476 163.062C340.457 162.303 339.854 161.672 339.086 161.672C338.327 161.672 337.706 162.303 337.706 163.062V165.503V165.53C337.706 165.539 337.697 165.548 337.697 165.548V165.566C337.678 165.621 337.633 165.658 337.587 165.685C337.551 165.703 337.513 165.712 337.477 165.712H337.449H337.431C337.422 165.712 337.412 165.703 337.412 165.703C337.393 165.703 337.376 165.685 337.357 165.676C337.348 165.676 337.338 165.667 337.33 165.658L337.302 165.631C337.293 165.622 337.293 165.613 337.284 165.613C337.284 165.604 337.284 165.604 337.275 165.594C337.275 165.594 337.275 165.585 337.266 165.576C337.266 165.567 337.266 165.558 337.257 165.549V165.522V165.504V163.063C337.257 162.304 336.645 161.673 335.877 161.673C335.109 161.673 334.497 162.304 334.497 163.063V165.504C334.497 165.577 334.461 165.641 334.397 165.677C334.388 165.686 334.361 165.704 334.342 165.704C334.333 165.713 334.323 165.713 334.306 165.713H334.278H334.251C334.168 165.704 334.095 165.631 334.068 165.548V165.502V163.061V162.987V161.451C334.068 161.333 334.168 161.241 334.278 161.241C334.406 161.241 334.498 161.333 334.498 161.451V161.881C334.827 161.488 335.32 161.241 335.878 161.241C336.573 161.241 337.167 161.625 337.478 162.192C337.798 161.626 338.402 161.241 339.087 161.241C340.093 161.241 340.905 162.054 340.905 163.06V165.501C340.905 165.611 340.814 165.711 340.687 165.711C340.568 165.711 340.477 165.611 340.477 165.501L340.476 163.062Z" fill="#263238"/>
<path d="M342.759 163.573V163.482V163.39V159.532C342.759 159.414 342.859 159.313 342.978 159.313C343.105 159.313 343.207 159.413 343.207 159.532V162.11C343.599 161.58 344.222 161.232 344.925 161.232C346.132 161.232 347.092 162.238 347.092 163.481C347.092 164.706 346.132 165.711 344.925 165.711C344.222 165.711 343.599 165.373 343.207 164.843V165.492C343.207 165.611 343.105 165.712 342.978 165.712C342.859 165.712 342.759 165.612 342.759 165.492V163.573ZM343.208 163.482C343.208 164.469 343.985 165.265 344.926 165.265C345.877 165.265 346.645 164.47 346.645 163.482C346.645 162.485 345.877 161.681 344.926 161.681C344.003 161.681 343.244 162.449 343.208 163.409V163.482Z" fill="#263238"/>
<path d="M348.472 163.482C348.472 162.239 349.441 161.233 350.648 161.233C351.799 161.233 352.714 162.147 352.806 163.318V163.327V163.354C352.806 163.473 352.704 163.555 352.586 163.555H348.911C348.957 164.533 349.724 165.274 350.648 165.274C351.242 165.274 351.791 164.963 352.092 164.46C352.156 164.35 352.293 164.332 352.384 164.387C352.486 164.46 352.522 164.588 352.458 164.698C352.074 165.311 351.407 165.713 350.648 165.713C349.441 165.713 348.472 164.707 348.472 163.482ZM348.938 163.125H352.329C352.183 162.284 351.471 161.672 350.647 161.672C349.807 161.672 349.103 162.275 348.938 163.125Z" fill="#263238"/>
<path d="M354.166 161.462C354.166 161.334 354.266 161.242 354.395 161.242C354.505 161.242 354.605 161.334 354.605 161.462V162.449C354.623 162.412 354.641 162.375 354.669 162.339C355.007 161.809 355.601 161.242 356.46 161.242C356.579 161.242 356.68 161.334 356.68 161.462C356.68 161.58 356.579 161.681 356.46 161.681C355.875 161.681 355.472 162.01 355.162 162.412C354.861 162.814 354.687 163.271 354.622 163.454C354.604 163.491 354.604 163.509 354.604 163.527V165.492C354.604 165.62 354.504 165.712 354.394 165.712C354.266 165.712 354.165 165.62 354.165 165.492L354.166 161.462Z" fill="#263238"/>
<path d="M205.178 141.441C205.143 141.406 205.108 141.388 205.054 141.353C205.054 141.335 205.036 141.335 205.036 141.3C205.001 141.265 204.966 141.23 204.948 141.194C204.948 141.194 204.93 141.194 204.93 141.176C204.912 141.14 204.877 141.07 204.841 141.035L200.516 130.726C200.304 130.25 200.534 129.667 201.046 129.473C201.523 129.261 202.088 129.491 202.3 129.985L205.742 138.158L209.184 129.985C209.396 129.491 209.979 129.261 210.455 129.473C210.949 129.668 211.179 130.25 210.985 130.726L206.625 141.035C206.607 141.07 206.59 141.141 206.554 141.176C206.554 141.194 206.554 141.194 206.536 141.194C206.518 141.229 206.466 141.264 206.448 141.3C206.43 141.336 206.43 141.336 206.413 141.353C206.378 141.388 206.342 141.406 206.307 141.441C206.307 141.441 206.307 141.441 206.272 141.459C206.237 141.477 206.183 141.53 206.131 141.548C206.113 141.548 206.113 141.548 206.096 141.566C206.043 141.566 206.008 141.584 205.955 141.601C205.955 141.601 205.937 141.601 205.92 141.601C205.85 141.619 205.796 141.619 205.743 141.619C205.69 141.619 205.619 141.619 205.566 141.601C205.566 141.601 205.548 141.601 205.531 141.601C205.496 141.583 205.425 141.566 205.39 141.566C205.39 141.548 205.372 141.548 205.372 141.548C205.372 141.548 205.372 141.548 205.354 141.548C205.319 141.53 205.248 141.477 205.195 141.442C205.195 141.442 205.196 141.441 205.178 141.441Z" fill="#263238"/>
<path d="M212.35 137.205C212.368 134.804 214.239 132.792 216.657 132.792C218.952 132.792 220.77 134.504 220.911 136.887C220.911 136.905 220.911 136.94 220.911 136.975C220.911 137.011 220.911 137.099 220.893 137.134C220.84 137.557 220.469 137.84 219.975 137.84H214.362C214.451 138.246 214.645 138.705 214.962 139.005C215.333 139.429 216.039 139.746 216.656 139.799C217.292 139.852 218.051 139.693 218.492 139.358C218.863 138.97 219.587 139.023 219.816 139.305C220.045 139.552 220.222 140.082 219.816 140.452C218.951 141.246 217.91 141.617 216.656 141.617C214.239 141.6 212.368 139.605 212.35 137.205ZM214.274 136.34H219.269C219.092 135.634 218.192 134.593 216.656 134.469C215.157 134.539 214.415 135.616 214.274 136.34Z" fill="#263238"/>
<path d="M228.789 133.727C228.789 134.221 228.382 134.663 227.853 134.663C227.447 134.663 227.094 134.769 226.794 134.999C226.458 135.211 226.194 135.511 225.982 135.846C225.558 136.411 225.346 137.082 225.258 137.329V140.683C225.258 141.195 224.816 141.619 224.287 141.619C223.775 141.619 223.351 141.195 223.351 140.683V133.728C223.351 133.216 223.774 132.81 224.287 132.81C224.816 132.81 225.258 133.216 225.258 133.728V133.852C225.364 133.728 225.505 133.587 225.629 133.499C226.211 133.111 226.97 132.793 227.853 132.81C228.382 132.809 228.789 133.215 228.789 133.727Z" fill="#263238"/>
<path d="M233.029 130.585C233.029 131.115 232.623 131.556 232.076 131.556C231.546 131.556 231.123 131.114 231.123 130.585V130.214C231.123 129.685 231.547 129.261 232.076 129.261C232.623 129.261 233.029 129.685 233.029 130.214V130.585ZM233.029 133.78V140.665C233.029 141.195 232.623 141.618 232.076 141.618C231.546 141.618 231.123 141.194 231.123 140.665V133.78C231.123 133.215 231.547 132.809 232.076 132.809C232.623 132.809 233.029 133.215 233.029 133.78Z" fill="#263238"/>
<path d="M238.962 132.209V132.456H239.492C240.022 132.456 240.463 132.88 240.463 133.427C240.463 133.956 240.022 134.398 239.492 134.398H238.962V140.629C238.962 141.159 238.538 141.6 237.991 141.6C237.444 141.6 237.02 141.159 237.02 140.629V134.398H236.561C236.014 134.398 235.573 133.956 235.573 133.427C235.573 132.88 236.014 132.456 236.561 132.456H237.02V132.209C237.02 131.556 237.09 130.991 237.355 130.479C237.602 129.949 238.096 129.543 238.626 129.385C238.979 129.279 239.315 129.244 239.685 129.244C240.215 129.244 240.656 129.686 240.656 130.215C240.656 130.762 240.215 131.204 239.685 131.204C239.456 131.204 239.297 131.222 239.226 131.257C239.155 131.275 239.137 131.292 239.12 131.31C239.103 131.309 238.962 131.556 238.962 132.209Z" fill="#263238"/>
<path d="M244.383 130.585C244.383 131.115 243.977 131.556 243.43 131.556C242.9 131.556 242.477 131.114 242.477 130.585V130.214C242.477 129.685 242.901 129.261 243.43 129.261C243.977 129.261 244.383 129.685 244.383 130.214V130.585ZM244.383 133.78V140.665C244.383 141.195 243.977 141.618 243.43 141.618C242.9 141.618 242.477 141.194 242.477 140.665V133.78C242.477 133.215 242.901 132.809 243.43 132.809C243.978 132.809 244.383 133.215 244.383 133.78Z" fill="#263238"/>
<path d="M246.804 137.223C246.804 134.769 248.852 132.81 251.288 132.792C252.346 132.792 253.335 133.18 254.094 133.763C254.5 134.081 254.57 134.681 254.289 135.069C253.936 135.493 253.37 135.564 252.965 135.246C252.506 134.911 251.941 134.681 251.289 134.681C249.859 134.681 248.676 135.863 248.676 137.223C248.676 138.582 249.859 139.747 251.289 139.747C251.924 139.747 252.507 139.518 252.965 139.182C253.353 138.882 253.936 138.953 254.289 139.376C254.571 139.764 254.5 140.329 254.094 140.682C253.335 141.229 252.346 141.618 251.288 141.618C248.852 141.618 246.804 139.64 246.804 137.223Z" fill="#263238"/>
<path d="M264.972 137.223V140.683C264.972 141.195 264.549 141.619 264.037 141.619C263.577 141.619 263.225 141.283 263.119 140.86C262.448 141.337 261.654 141.619 260.771 141.619C259.571 141.619 258.529 141.124 257.77 140.33C257.011 139.518 256.57 138.424 256.57 137.224C256.57 136.006 257.011 134.911 257.77 134.117C258.529 133.305 259.571 132.793 260.771 132.793C261.653 132.793 262.448 133.093 263.119 133.57C263.226 133.129 263.578 132.793 264.037 132.793C264.549 132.793 264.972 133.216 264.972 133.746V137.223ZM263.101 137.223C263.101 136.482 262.837 135.846 262.412 135.405C261.989 134.928 261.389 134.681 260.771 134.681C260.135 134.681 259.536 134.928 259.13 135.405C258.707 135.846 258.459 136.482 258.459 137.223C258.459 137.947 258.706 138.582 259.13 139.041C259.536 139.483 260.136 139.73 260.771 139.73C261.389 139.73 261.989 139.483 262.412 139.041C262.837 138.582 263.101 137.946 263.101 137.223Z" fill="#263238"/>
<path d="M272.408 133.762C272.408 134.292 271.949 134.733 271.419 134.733H270.978V139.658C271.526 139.658 271.949 140.099 271.949 140.646C271.949 141.193 271.526 141.617 270.978 141.617C269.901 141.617 269.019 140.734 269.019 139.658V134.733H268.507C267.959 134.733 267.536 134.292 267.536 133.762C267.536 133.215 267.959 132.791 268.507 132.791H269.019V130.232C269.019 129.685 269.46 129.261 270.008 129.261C270.555 129.261 270.978 129.685 270.978 130.232V132.791H271.419C271.949 132.792 272.408 133.215 272.408 133.762Z" fill="#263238"/>
<path d="M277.424 130.585C277.424 131.115 277.018 131.556 276.471 131.556C275.942 131.556 275.517 131.114 275.517 130.585V130.214C275.517 129.685 275.942 129.261 276.471 129.261C277.018 129.261 277.424 129.685 277.424 130.214V130.585ZM277.424 133.78V140.665C277.424 141.195 277.018 141.618 276.471 141.618C275.942 141.618 275.517 141.194 275.517 140.665V133.78C275.517 133.215 275.942 132.809 276.471 132.809C277.018 132.809 277.424 133.215 277.424 133.78Z" fill="#263238"/>
<path d="M281.275 140.329C280.516 139.552 280.056 138.458 280.056 137.223C280.056 136.022 280.516 134.981 281.275 134.134C282.069 133.305 283.092 132.793 284.311 132.793C285.476 132.793 286.534 133.305 287.258 134.134C288.053 134.982 288.494 136.023 288.494 137.223C288.494 138.458 288.053 139.553 287.258 140.329C286.534 141.159 285.476 141.671 284.311 141.671C283.092 141.671 282.069 141.159 281.275 140.329ZM281.98 137.223C281.98 137.982 282.21 138.6 282.616 139.094C283.057 139.517 283.64 139.747 284.311 139.747C284.928 139.747 285.494 139.518 285.935 139.094C286.376 138.599 286.624 137.982 286.624 137.223C286.624 136.499 286.377 135.863 285.935 135.387C285.494 134.999 284.928 134.716 284.311 134.716C283.64 134.716 283.057 134.999 282.616 135.387C282.21 135.863 281.98 136.499 281.98 137.223Z" fill="#263238"/>
<path d="M298.861 136.464V140.683C298.861 141.195 298.455 141.619 297.943 141.619C297.449 141.619 297.008 141.195 297.008 140.683V136.464C297.008 135.475 296.179 134.681 295.172 134.681C294.183 134.681 293.406 135.475 293.406 136.464V140.683C293.406 140.736 293.406 140.789 293.371 140.86C293.283 141.283 292.895 141.619 292.436 141.619C291.906 141.619 291.5 141.195 291.5 140.683V136.464V133.728C291.5 133.216 291.906 132.792 292.436 132.792C292.807 132.792 293.142 133.004 293.301 133.339C293.831 133.004 294.484 132.792 295.172 132.792C297.219 132.792 298.861 134.469 298.861 136.464Z" fill="#263238"/>
<path d="M479.231 77.253C479.231 77.253 472.661 129.855 461.863 141.691C448.9 155.89 439.493 153.814 434.259 161.135C434.248 161.135 434.248 161.146 434.248 161.146C429.014 153.814 419.607 155.901 406.633 141.691C395.835 129.855 389.276 77.253 389.276 77.253C417.73 63.44 434.248 47.96 434.248 47.96C434.248 47.96 434.248 47.96 434.259 47.971C434.767 48.446 451.219 63.661 479.231 77.253Z" fill="#0074D9"/>
<path opacity="0.1" d="M434.259 47.972V161.136C434.248 161.136 434.248 161.147 434.248 161.147C429.014 153.815 419.607 155.902 406.633 141.692C395.835 129.856 389.276 77.254 389.276 77.254C417.73 63.44 434.248 47.96 434.248 47.96C434.248 47.96 434.248 47.96 434.259 47.972Z" fill="black"/>
<path d="M396.255 81.4912C396.255 81.4912 401.804 125.926 410.925 135.929C421.885 147.941 429.836 146.177 434.259 152.364C438.681 146.177 446.633 147.942 457.593 135.929C466.714 125.926 472.252 81.4912 472.252 81.4912C448.217 69.8192 434.259 56.7432 434.259 56.7432C434.259 56.7432 420.29 69.8192 396.255 81.4912Z" fill="#0074D9"/>
<path opacity="0.2" d="M472.24 81.4933C472.24 81.4933 466.692 125.923 457.568 135.931C446.618 147.934 438.675 146.181 434.247 152.35V56.7563C434.674 57.1573 448.577 70.0013 472.24 81.4933Z" fill="white"/>
<path d="M434.253 122.173C443.984 122.173 451.873 114.284 451.873 104.553C451.873 94.8219 443.984 86.9331 434.253 86.9331C424.522 86.9331 416.633 94.8219 416.633 104.553C416.633 114.284 424.522 122.173 434.253 122.173Z" fill="#455A64"/>
<path d="M432.245 116.001L424.398 107.84L427.31 105.041L431.636 109.54L440.961 95.2329L444.345 97.4389L432.245 116.001Z" fill="white"/>
<path d="M472.24 153.415L469.748 153.875L469.191 156.502L468.635 153.875L466.143 153.413L468.624 152.807L469.191 150.326L469.759 152.807L472.24 153.415Z" fill="#0074D9"/>
<path d="M398.43 133.441L395.939 133.901L395.382 136.528L394.825 133.901L392.333 133.439L394.814 132.833L395.382 130.352L395.949 132.833L398.43 133.441Z" fill="#0074D9"/>
<path d="M409.803 64.1959L407.311 64.6569L406.754 67.2839L406.197 64.6569L403.705 64.1949L406.186 63.5889L406.754 61.1079L407.322 63.5889L409.803 64.1959Z" fill="#0074D9"/>
<path d="M467.781 141.6L466.389 141.858L466.077 143.326L465.766 141.858L464.374 141.6L465.76 141.261L466.077 139.874L466.395 141.261L467.781 141.6Z" fill="#0074D9"/>
<path d="M477.413 112.374L476.02 112.632L475.709 114.1L475.398 112.632L474.005 112.374L475.392 112.035L475.709 110.648L476.026 112.035L477.413 112.374Z" fill="#0074D9"/>
<path d="M465.59 61.1078L464.198 61.3658L463.887 62.8338L463.575 61.3658L462.183 61.1068L463.569 60.7678L463.887 59.3818L464.204 60.7678L465.59 61.1078Z" fill="#0074D9"/>
<path d="M430.018 167.459L428.625 167.716L428.314 169.184L428.003 167.716L426.61 167.458L427.997 167.119L428.314 165.732L428.631 167.119L430.018 167.459Z" fill="#0074D9"/>
<path d="M390.688 136.859L389.296 137.117L388.984 138.585L388.673 137.117L387.28 136.859L388.667 136.52L388.984 135.133L389.302 136.52L390.688 136.859Z" fill="#0074D9"/>
<path d="M392.855 96.1611L391.463 96.4181L391.151 97.8861L390.84 96.4181L389.448 96.1601L390.834 95.8211L391.151 94.4341L391.469 95.8211L392.855 96.1611Z" fill="#0074D9"/>
<path d="M451.275 148.188C450.755 148.188 450.755 148.995 451.275 148.995C451.795 148.995 451.796 148.188 451.275 148.188Z" fill="#0074D9"/>
<path d="M387.08 75.0117C386.56 75.0117 386.56 75.8187 387.08 75.8187C387.599 75.8197 387.6 75.0117 387.08 75.0117Z" fill="#0074D9"/>
<path d="M463.887 150.463C463.367 150.463 463.367 151.27 463.887 151.27C464.406 151.27 464.407 150.463 463.887 150.463Z" fill="#0074D9"/>
<path d="M422.993 87.4067C422.474 87.4067 422.473 88.2137 422.993 88.2137C423.512 88.2147 423.513 87.4067 422.993 87.4067Z" fill="#0074D9"/>
<path d="M385.621 103.668C385.101 103.668 385.101 104.475 385.621 104.475C386.14 104.475 386.141 103.668 385.621 103.668Z" fill="#0074D9"/>
<path d="M376.206 99.2661C375.839 99.2661 375.838 99.8371 376.206 99.8371C376.573 99.8371 376.574 99.2661 376.206 99.2661Z" fill="#0074D9"/>
<path d="M453.244 55.8379C452.877 55.8379 452.876 56.4089 453.244 56.4089C453.611 56.4089 453.612 55.8379 453.244 55.8379Z" fill="#0074D9"/>
<path d="M413.38 153.61C413.013 153.61 413.012 154.181 413.38 154.181C413.747 154.181 413.748 153.61 413.38 153.61Z" fill="#0074D9"/>
<path d="M404.453 148.36C403.457 148.36 403.455 149.908 404.453 149.908C405.449 149.908 405.451 148.36 404.453 148.36Z" fill="#0074D9"/>
<path d="M212.206 216.009V232.83H216.642V240.496L224.308 232.83H276.376V216.009H212.206Z" fill="white"/>
<path d="M212.206 216.009C212.247 221.68 212.415 227.286 212.416 232.83L212.206 232.62L216.642 232.608L216.864 232.607L216.865 232.83L216.886 240.496L216.471 240.324L224.116 232.637C224.203 232.543 224.191 232.556 224.309 232.557C237.28 232.52 263.408 232.479 276.377 232.469L276.016 232.83L276.065 216.009L276.376 216.32C260.38 216.291 228.2 216.124 212.206 216.009ZM212.206 216.009L244.208 215.808L276.376 215.697L276.686 215.696L276.687 216.009L276.736 232.83L276.737 233.191L276.375 233.19L250.341 233.16C250.481 233.066 223.543 233.26 224.5 233.022L216.813 240.666L216.396 241.081L216.398 240.494L216.419 232.828L216.641 233.05L212.205 233.038L211.995 233.037V232.827C211.997 227.16 212.165 221.552 212.206 216.009Z" fill="#263238"/>
<path d="M223.425 222.095V224.351H222.788V222.095C222.788 221.237 222.137 220.54 221.335 220.54C220.534 220.54 219.882 221.237 219.882 222.095V224.351H219.245V222.095C219.245 220.867 220.183 219.868 221.335 219.868C222.488 219.867 223.425 220.866 223.425 222.095Z" fill="#263238"/>
<path d="M219.245 222.681L219.882 222.707V224.35H219.245V222.681Z" fill="#263238"/>
<path d="M223.425 222.851V224.35H222.788V222.825L223.425 222.851Z" fill="#263238"/>
<path d="M224.242 223.516H218.428V228.341H224.242V223.516Z" fill="#263238"/>
<path d="M233.516 222.426C232.68 223.988 231.469 225.204 229.905 226.037C230.738 224.472 231.954 223.262 233.516 222.426Z" fill="#263238"/>
<path d="M229.905 222.426C231.467 223.262 232.683 224.472 233.516 226.037C231.951 225.204 230.741 223.988 229.905 222.426Z" fill="#263238"/>
<path d="M234.264 224.231C232.568 224.744 230.853 224.748 229.157 224.231C230.852 223.714 232.568 223.718 234.264 224.231Z" fill="#263238"/>
<path d="M231.71 221.678C232.223 223.374 232.227 225.089 231.71 226.785C231.193 225.089 231.197 223.373 231.71 221.678Z" fill="#263238"/>
<path d="M242.324 222.426C241.488 223.988 240.278 225.204 238.713 226.037C239.546 224.472 240.763 223.262 242.324 222.426Z" fill="#263238"/>
<path d="M238.713 222.426C240.275 223.262 241.491 224.472 242.324 226.037C240.76 225.204 239.55 223.988 238.713 222.426Z" fill="#263238"/>
<path d="M243.072 224.231C241.376 224.744 239.661 224.748 237.965 224.231C239.661 223.714 241.377 223.718 243.072 224.231Z" fill="#263238"/>
<path d="M240.519 221.678C241.032 223.374 241.036 225.089 240.519 226.785C240.002 225.089 240.006 223.373 240.519 221.678Z" fill="#263238"/>
<path d="M251.133 222.426C250.297 223.988 249.087 225.204 247.522 226.037C248.355 224.472 249.571 223.262 251.133 222.426Z" fill="#263238"/>
<path d="M247.522 222.426C249.084 223.262 250.3 224.472 251.133 226.037C249.569 225.204 248.358 223.988 247.522 222.426Z" fill="#263238"/>
<path d="M251.881 224.231C250.185 224.744 248.47 224.748 246.774 224.231C248.469 223.714 250.185 223.718 251.881 224.231Z" fill="#263238"/>
<path d="M249.328 221.678C249.841 223.374 249.845 225.089 249.328 226.785C248.81 225.089 248.814 223.373 249.328 221.678Z" fill="#263238"/>
<path d="M259.942 222.426C259.106 223.988 257.895 225.204 256.331 226.037C257.164 224.472 258.38 223.262 259.942 222.426Z" fill="#263238"/>
<path d="M256.331 222.426C257.893 223.262 259.109 224.472 259.942 226.037C258.377 225.204 257.167 223.988 256.331 222.426Z" fill="#263238"/>
<path d="M260.69 224.231C258.994 224.744 257.279 224.748 255.583 224.231C257.278 223.714 258.994 223.718 260.69 224.231Z" fill="#263238"/>
<path d="M258.136 221.678C258.649 223.374 258.653 225.089 258.136 226.785C257.619 225.089 257.623 223.373 258.136 221.678Z" fill="#263238"/>
<path d="M268.75 222.426C267.914 223.988 266.704 225.204 265.139 226.037C265.972 224.472 267.189 223.262 268.75 222.426Z" fill="#263238"/>
<path d="M265.139 222.426C266.701 223.262 267.917 224.472 268.75 226.037C267.186 225.204 265.975 223.988 265.139 222.426Z" fill="#263238"/>
<path d="M269.498 224.231C267.802 224.744 266.087 224.748 264.391 224.231C266.087 223.714 267.803 223.718 269.498 224.231Z" fill="#263238"/>
<path d="M266.945 221.678C267.458 223.374 267.462 225.089 266.945 226.785C266.427 225.089 266.432 223.373 266.945 221.678Z" fill="#263238"/>
<path d="M141.908 419.162L84.1641 465.723H87.4181L154.107 419.162H141.908Z" fill="#C7C7C7"/>
<path d="M147.333 419.162L118.8 465.723H122.053L157.025 419.162H147.333Z" fill="#C7C7C7"/>
<path d="M161.322 419.162L189.855 465.723H186.602L151.631 419.162H161.322Z" fill="#C7C7C7"/>
<path d="M166.307 419.162L224.05 465.723H220.797L154.107 419.162H166.307Z" fill="#C7C7C7"/>
<path d="M262.681 402.083V388.461L183.386 385.208L141.501 273.38H45.533L79.488 402.083L160.614 424.855H165.697L262.681 402.083Z" fill="#455A64"/>
<path opacity="0.1" d="M45.533 273.38H56.513L91.891 390.697L163.663 411.03L262.681 388.461V402.083L165.697 424.855H160.614L79.488 402.083L45.533 273.38Z" fill="black"/>
<path d="M219.512 486.896C217.089 485.974 162.659 441.378 161.658 438.366C161.272 437.225 167.305 428.919 174.879 419.09C176.514 416.967 178.216 414.785 179.957 412.579C191.241 398.241 203.549 383.292 203.549 383.292L240.046 413.018L215.45 441.487L210.056 447.741C210.056 447.741 223.259 474.136 224.002 477.558C224.732 480.97 221.934 487.818 219.512 486.896Z" fill="#FFCFC8"/>
<path d="M219.512 486.896C217.089 485.974 162.659 441.378 161.658 438.366C161.195 436.975 170.195 425.002 179.957 412.579L215.449 441.487L210.055 447.741C210.055 447.741 223.258 474.136 224.001 477.558C224.732 480.97 221.934 487.818 219.512 486.896Z" fill="#EBEBEB"/>
<path d="M219.512 486.896C217.089 485.974 162.659 441.378 161.658 438.366C161.272 437.225 167.305 428.919 174.879 419.09L210.055 447.74C210.055 447.74 223.258 474.135 224.001 477.557C224.732 480.97 221.934 487.818 219.512 486.896Z" fill="#0074D9"/>
<path d="M220.515 484.079C211.574 476.379 174.787 446.168 165.365 439.236C165.288 439.179 165.247 439.229 165.318 439.293C174.013 447.118 211.044 477.03 220.393 484.228C220.59 484.381 220.704 484.241 220.515 484.079Z" fill="#263238"/>
<path d="M222.104 472.731C220.012 470.87 217.056 470.165 214.82 470.487C212.672 470.797 210.276 471.743 208.79 473.688C208.747 473.744 208.846 473.827 208.9 473.778C212.346 470.634 218.164 470.159 222.01 472.846C222.088 472.9 222.176 472.795 222.104 472.731Z" fill="#263238"/>
<path d="M212.85 451.547C209.239 448.504 203.95 446.324 199.233 447.452C199.05 447.496 199.115 447.755 199.269 447.788C203.965 448.791 208.142 450.094 212.544 452.049C212.855 452.186 213.109 451.765 212.85 451.547Z" fill="#263238"/>
<path d="M214.769 454.957C211.159 451.914 205.869 449.734 201.152 450.861C200.969 450.905 201.034 451.164 201.188 451.197C205.884 452.2 210.061 453.503 214.463 455.458C214.774 455.595 215.028 455.174 214.769 454.957Z" fill="#263238"/>
<path d="M216.688 458.365C213.078 455.322 207.787 453.142 203.071 454.269C202.888 454.313 202.953 454.572 203.107 454.605C207.803 455.608 211.98 456.911 216.382 458.866C216.693 459.004 216.946 458.583 216.688 458.365Z" fill="#263238"/>
<path d="M218.606 461.774C214.996 458.731 209.706 456.551 204.989 457.678C204.806 457.722 204.871 457.981 205.025 458.014C209.72 459.017 213.898 460.32 218.3 462.275C218.612 462.413 218.865 461.992 218.606 461.774Z" fill="#263238"/>
<path d="M174.789 432.474C170.682 429.129 165.476 435.506 169.59 438.857C173.697 442.202 178.903 435.825 174.789 432.474Z" fill="white"/>
<path d="M224.781 445.036C224.189 441.989 220.633 441.579 218.189 442.236C214.231 443.301 210.002 445.875 207.219 448.856C207.151 448.93 207.184 449.009 207.248 449.054C207.111 449.38 207.241 449.853 207.663 449.887C211.736 450.219 216.05 451.079 220.104 450.15C222.471 449.608 225.342 447.918 224.781 445.036ZM213.941 449.127C211.934 449.012 209.944 448.8 207.933 448.76C210.076 447.475 212.153 446.103 214.424 445.035C215.508 444.526 216.631 444.022 217.776 443.665C219.558 443.108 225.643 442.993 222.751 447.264C221.158 449.618 216.334 449.263 213.941 449.127Z" fill="#263238"/>
<path d="M197.036 442.776C199.816 445.87 203.837 447.652 207.358 449.727C207.723 449.942 208.101 449.63 208.177 449.285C208.255 449.285 208.328 449.239 208.314 449.14C207.756 445.1 205.781 440.56 203.159 437.41C201.54 435.465 198.397 433.752 196.157 435.901C194.04 437.935 195.413 440.97 197.036 442.776ZM196.535 438.891C196.631 433.734 201.539 437.333 202.675 438.814C203.405 439.766 204.034 440.824 204.626 441.865C205.868 444.047 206.775 446.364 207.787 448.649C206.12 447.524 204.371 446.551 202.664 445.488C200.629 444.222 196.481 441.734 196.535 438.891Z" fill="#263238"/>
<path d="M277.953 357.171C275.195 376.288 227.337 430.985 221.807 437.258C220.991 438.182 220.548 438.686 220.548 438.686L181.882 408.217L182.338 407.643L217.256 363.057L114.743 361.207L154.036 331.414C154.036 331.414 157.172 333.274 163.748 332.395C186.414 329.359 237.515 322.646 249.538 323.277C265.047 324.105 280.483 339.632 277.953 357.171Z" fill="#263238"/>
<path d="M229.803 346.478C228.454 347.812 227.369 349.487 226.202 350.979C224.968 352.557 223.714 354.12 222.482 355.699C222.47 355.715 222.458 355.73 222.446 355.746C222.667 355.282 222.883 354.815 223.112 354.355C223.897 352.778 224.53 351.147 225.454 349.642C225.511 349.55 225.37 349.462 225.312 349.553C224.363 351.047 223.266 352.465 222.45 354.04C222.066 354.782 221.702 355.531 221.362 356.294C221.176 356.712 220.985 357.13 220.817 357.555C220.74 357.749 220.644 357.956 220.586 358.166C220.033 358.899 219.487 359.636 218.956 360.385C217.779 362.047 216.735 363.807 215.544 365.456C215.48 365.545 215.621 365.629 215.686 365.545C216.891 363.996 218.239 362.554 219.463 361.017C220.709 359.452 221.892 357.842 223.061 356.22C224.202 354.637 225.32 353.038 226.458 351.453C227.605 349.858 228.962 348.287 229.899 346.557C229.932 346.497 229.856 346.426 229.803 346.478Z" fill="#37474F"/>
<path d="M225.885 429.707C223.682 427.786 221.322 426.019 219.005 424.237C216.679 422.448 214.344 420.672 211.999 418.908C207.306 415.379 202.634 411.819 197.893 408.355C195.288 406.452 192.666 404.575 189.963 402.814C189.842 402.736 189.715 402.928 189.822 403.019C194.28 406.833 199.018 410.299 203.706 413.82C208.403 417.347 213.112 420.862 217.862 424.318C220.461 426.21 223.049 428.162 225.759 429.891C225.867 429.961 225.98 429.79 225.885 429.707Z" fill="#37474F"/>
<path d="M142.663 280.918C153.297 301.168 165.916 322.658 177.877 325.771C189.254 328.733 216.322 300.385 220.913 290.974C222.496 287.729 201.066 273.516 198.033 275.904C192.316 280.405 179.8 294.671 178.018 294.314C176.163 293.935 161.048 280.427 147.349 269.059C139.045 262.169 135.297 266.89 142.663 280.918Z" fill="#FFCFC8"/>
<path d="M201.9 243.009L193.709 271.68C193.374 272.518 193.778 273.221 194.611 273.247L209.524 273.716C210.357 273.742 211.306 273.082 211.641 272.244L219.832 243.573C220.168 242.733 219.763 242.032 218.931 242.006L204.018 241.537C203.185 241.51 202.236 242.169 201.9 243.009Z" fill="#A6A6A6"/>
<path d="M203.671 243.049L195.481 271.72C195.146 272.558 195.55 273.261 196.383 273.287L211.296 273.756C212.129 273.782 213.078 273.122 213.413 272.284L221.604 243.613C221.94 242.773 221.535 242.072 220.702 242.046L205.789 241.577C204.956 241.551 204.007 242.209 203.671 243.049Z" fill="#DBDBDB"/>
<path d="M207.718 244.498C207.681 245.197 207.083 245.734 206.384 245.696C205.685 245.658 205.148 245.061 205.186 244.362C205.223 243.663 205.82 243.126 206.52 243.164C207.219 243.202 207.756 243.799 207.718 244.498Z" fill="#455A64"/>
<path d="M227.813 274.742C229.071 266.408 228.115 264.076 232.912 257.606C236.06 253.361 234.7 249.529 229.748 251.915C221.649 255.818 217.768 266.228 217.461 270.226L227.813 274.742Z" fill="#FFCFC8"/>
<path d="M217.062 296.583C217.062 296.583 224.838 287.503 227.058 278.755C228.593 272.705 230.464 259.171 217.24 246.05C214.103 242.938 207.426 240.728 210.703 247.671C213.031 252.603 215.997 255.028 216.829 258.143C216.829 258.143 208.003 256.34 205.007 259.604C203.669 261.063 200.108 265.13 197.788 268.691C197.788 268.691 198.428 269.405 199.368 270.194C199.368 270.194 196.858 273.507 197.385 279.805L217.062 296.583Z" fill="#FFCFC8"/>
<path d="M227.601 272.746C226.122 269.828 222.883 263.697 218.489 259.603C213.609 255.055 202.981 247.61 199.662 251.248C197.228 253.915 201.035 257.114 201.035 257.114C201.035 257.114 195.994 254.963 194.322 257.853C192.798 260.487 195.892 262.785 195.892 262.785C195.892 262.785 192.61 262.006 191.631 264.825C190.453 268.216 197.526 269.293 199.301 273.759C199.699 274.762 227.601 272.746 227.601 272.746Z" fill="#FFCFC8"/>
<path d="M214.544 265.561C212.703 263.045 207.056 258.404 201.167 257.07C201.034 257.04 200.939 257.125 201.055 257.178C207.228 260.023 212.403 263.851 214.501 265.607C214.53 265.631 214.565 265.59 214.544 265.561Z" fill="#263238"/>
<path d="M209.81 270.354C207.999 268.346 201.964 263.823 195.95 262.676C195.816 262.651 195.727 262.742 195.845 262.79C202.416 265.497 207.57 268.774 209.77 270.402C209.8 270.425 209.834 270.38 209.81 270.354Z" fill="#263238"/>
<path d="M190.651 279.592L212.975 303.263C212.975 303.263 189.399 329.695 178.33 326.931C167.261 324.167 146.331 294.205 139.621 275.182C134.978 262.019 142.303 264.132 149.992 270.586C157.681 277.039 177.793 293.056 178.672 292.818C179.551 292.578 190.651 279.592 190.651 279.592Z" fill="#0074D9"/>
<path opacity="0.1" d="M183.09 326.685C181.349 327.157 179.736 327.285 178.329 326.931C167.263 324.167 146.331 294.205 139.623 275.182C136.564 266.506 138.699 264.47 142.721 265.945C154.781 283.838 170.834 307.819 183.09 326.685Z" fill="black"/>
<path d="M205.732 307.199C202.499 303.935 189.756 290.095 187.206 286.918C187.029 286.698 187.125 286.532 187.339 286.738C197.263 296.286 202.849 303.704 205.856 307.067C205.932 307.151 205.814 307.281 205.732 307.199Z" fill="#263238"/>
<path d="M167.487 345C167.487 345 94.1979 358.403 93.8219 357.955C93.4849 357.564 101.887 278.28 126.763 264.881C130.707 262.757 140.226 261.506 144.289 265.652C155.874 277.476 168.448 343.925 167.487 345Z" fill="#0074D9"/>
<path d="M166.724 338.427L94.5469 350.81C94.8209 348.631 95.1819 346.029 95.6339 343.104L165.393 331.135C165.927 333.899 166.372 336.366 166.724 338.427Z" fill="#EBEBEB"/>
<path d="M164.615 327.266L96.2788 338.992C96.4898 337.695 96.7188 336.357 96.9678 334.979L163.831 323.508C164.11 324.79 164.368 326.052 164.615 327.266Z" fill="#EBEBEB"/>
<path d="M141.053 277.726C136.963 277.706 131.75 270.187 130.285 264.761C130.187 264.389 131.527 261.048 132.964 256.911C133.826 254.397 134.727 251.578 135.363 248.946L150.902 256.947C150.902 256.947 147.946 262.072 146.864 266.668C146.778 267.053 146.73 267.419 146.716 267.775C146.709 267.826 146.709 267.89 146.696 267.96C146.537 270.092 145.007 277.743 141.053 277.726Z" fill="#FFCFC8"/>
<path d="M150.908 256.946C150.908 256.946 147.948 262.068 146.866 266.673C146.783 267.052 146.725 267.419 146.72 267.777C146.717 267.828 146.714 267.892 146.698 267.954C146.164 267.914 145.594 267.808 144.978 267.635C135.428 265.097 135.592 252.55 135.818 249.177L150.908 256.946Z" fill="#263238"/>
<path d="M134.695 230.827C132.208 236.611 133.462 254.251 137.294 258.576C142.849 264.846 152.895 266.495 158.462 259.6C163.859 252.916 161.818 229.956 157.449 225.928C151.014 219.995 138.369 222.283 134.695 230.827Z" fill="#FFCFC8"/>
<path d="M150.794 243.519C150.781 243.475 150.707 243.583 150.713 243.631C150.859 244.805 150.828 246.175 149.799 246.664C149.767 246.679 149.776 246.738 149.815 246.729C151.098 246.426 151.12 244.608 150.794 243.519Z" fill="#263238"/>
<path d="M149.629 242.386C147.721 242.416 147.923 246.23 149.69 246.201C151.429 246.173 151.228 242.36 149.629 242.386Z" fill="#263238"/>
<path d="M157.732 243.139C157.739 243.093 157.827 243.19 157.828 243.239C157.853 244.422 158.081 245.773 159.17 246.109C159.204 246.12 159.204 246.179 159.164 246.175C157.85 246.061 157.566 244.264 157.732 243.139Z" fill="#263238"/>
<path d="M158.722 241.85C160.614 241.605 160.964 245.408 159.211 245.634C157.485 245.858 157.136 242.055 158.722 241.85Z" fill="#263238"/>
<path d="M148.032 240.72C148.545 240.562 148.991 240.331 149.482 240.122C150.036 239.887 150.5 239.756 150.844 239.23C151.028 238.948 150.92 238.465 150.663 238.261C150.064 237.785 149.314 237.905 148.636 238.162C147.9 238.44 147.405 238.843 147.011 239.522C146.628 240.18 147.356 240.929 148.032 240.72Z" fill="#263238"/>
<path d="M160.095 239.852C159.562 239.794 159.08 239.651 158.559 239.539C157.97 239.413 157.489 239.372 157.053 238.921C156.819 238.679 156.834 238.185 157.048 237.935C157.545 237.354 158.304 237.33 159.019 237.454C159.794 237.588 160.357 237.889 160.873 238.482C161.371 239.056 160.798 239.929 160.095 239.852Z" fill="#263238"/>
<path d="M150.096 254.021C150.337 254.335 150.563 254.753 150.983 254.849C151.386 254.942 151.89 254.826 152.284 254.735C152.323 254.726 152.355 254.771 152.326 254.802C151.958 255.208 151.278 255.398 150.749 255.225C150.232 255.056 150.035 254.561 149.976 254.058C149.967 253.988 150.06 253.976 150.096 254.021Z" fill="#263238"/>
<path d="M151.404 250.546C152.119 251.536 153.121 252.045 154.183 252.194C154.657 252.264 155.152 252.254 155.633 252.184C155.728 252.177 156.07 252.109 156.164 252.084C156.301 252.057 156.37 251.939 156.387 251.807L156.386 251.799C156.383 251.755 156.176 249.277 156.176 249.277C156.517 249.426 158.252 250.099 158.2 249.625C157.757 245.704 157.265 241.344 155.997 237.535C155.962 237.407 155.765 237.448 155.783 237.577C156.059 241.362 156.999 245.073 157.337 248.871C156.786 248.694 155.884 248.36 155.408 248.395C155.34 248.415 155.746 251.481 155.739 251.507C154.221 251.783 153.045 251.382 151.508 250.435C151.417 250.371 151.328 250.456 151.404 250.546Z" fill="#263238"/>
<path d="M155.25 252.008C155.25 252.008 154.406 253.156 153.246 253.573C152.819 253.728 152.358 253.79 151.874 253.663C150.881 253.406 150.853 252.495 151.032 251.715C151.177 251.074 151.473 250.52 151.473 250.52C151.473 250.52 152.926 251.872 155.25 252.008Z" fill="#263238"/>
<path d="M153.246 253.573C152.819 253.728 152.358 253.79 151.874 253.663C150.881 253.406 150.853 252.495 151.032 251.715C152.096 251.821 153.152 252.539 153.246 253.573Z" fill="#FF9CBD"/>
<path d="M133.07 246.759C137.668 247.116 140.109 241.649 139.065 237.228C139.065 237.228 151.283 238.941 151.942 229.126C151.942 229.126 154.848 233.587 160.394 233.773L161.201 237.222C162.458 236.869 163.82 233.313 160.771 230.493C160.771 230.493 160.595 225.597 157.009 222.633C153.423 219.669 149.823 221.574 149.823 221.574C149.823 221.574 146.972 219.158 142.462 219.702C137.952 220.245 136.067 224.341 136.067 224.341C136.067 224.341 129.999 225.454 128.936 229.75C127.873 234.046 130.076 236.948 130.076 236.948C130.076 236.948 128.543 238.627 129.288 242.306C129.767 244.671 131.69 246.652 133.07 246.759Z" fill="#263238"/>
<path d="M151.678 228.252C151.753 229.054 151.779 229.858 151.688 230.65C151.637 231.444 151.465 232.221 151.227 232.966C150.723 234.447 149.734 235.738 148.369 236.469C147.042 237.306 145.411 237.427 143.852 237.568C143.06 237.538 142.259 237.565 141.463 237.49C140.668 237.404 139.873 237.298 139.066 237.228C139.846 237.424 140.638 237.585 141.43 237.766C142.228 237.898 143.044 237.922 143.856 238.004C145.471 237.95 147.177 237.826 148.649 236.962C150.111 236.131 151.204 234.693 151.642 233.095C152.074 231.499 152.058 229.819 151.678 228.252Z" fill="#263238"/>
<path d="M157.941 233.974C156.583 233.468 155.317 232.832 154.246 231.949C153.698 231.523 153.24 231.001 152.825 230.445C152.392 229.892 152.121 229.241 151.811 228.579C151.892 229.297 152.073 230.034 152.456 230.677C152.811 231.332 153.305 231.918 153.886 232.386C154.468 232.853 155.113 233.238 155.804 233.499C156.491 233.762 157.209 233.951 157.941 233.974Z" fill="#263238"/>
<path d="M148.471 249.478C146.179 249.367 144.159 247.716 143.681 245.367C143.116 242.588 144.917 239.867 147.695 239.302C150.474 238.736 153.194 240.537 153.76 243.316C154.325 246.094 152.524 248.815 149.746 249.381C149.316 249.468 148.889 249.499 148.471 249.478ZM148.936 239.891C148.574 239.873 148.203 239.9 147.832 239.976C145.425 240.466 143.865 242.823 144.354 245.23C144.845 247.636 147.203 249.199 149.608 248.707C152.016 248.217 153.575 245.86 153.086 243.452C152.671 241.417 150.922 239.987 148.936 239.891Z" fill="#0074D9"/>
<path d="M160.241 248.61C158.276 248.515 156.59 246.415 156.406 243.738C156.313 242.387 156.611 241.086 157.245 240.077C157.899 239.032 158.833 238.417 159.875 238.346C160.92 238.272 161.926 238.756 162.717 239.702C163.482 240.617 163.954 241.864 164.046 243.214C164.239 246.043 162.684 248.462 160.578 248.607C160.465 248.614 160.353 248.615 160.241 248.61ZM160.183 239.029C160.096 239.025 160.009 239.026 159.922 239.032C159.106 239.088 158.362 239.589 157.827 240.442C157.271 241.33 157.01 242.484 157.092 243.691C157.261 246.142 158.797 248.041 160.531 247.921C162.259 247.803 163.527 245.712 163.36 243.262C163.277 242.055 162.861 240.947 162.189 240.143C161.612 239.452 160.908 239.064 160.183 239.029Z" fill="#0074D9"/>
<path d="M153.628 243.921L153.151 243.426C153.884 242.719 155.624 241.717 156.968 242.972L156.499 243.474C155.296 242.348 153.696 243.857 153.628 243.921Z" fill="#0074D9"/>
<path d="M131.884 246.925L131.253 246.652C131.381 246.358 132.542 243.768 134.057 243.414C135.473 243.087 143.701 243.201 144.094 243.211L144.076 243.898C141.423 243.829 135.307 243.828 134.214 244.083C133.213 244.317 132.193 246.214 131.884 246.925Z" fill="#0074D9"/>
<path d="M137.41 246.448C137.41 246.448 133.996 240.492 131.328 241.66C128.66 242.828 130.875 251.215 133.76 252.595C136.644 253.975 137.974 251.329 137.974 251.329L137.41 246.448Z" fill="#FFCFC8"/>
<path d="M132.023 244.049C131.976 244.04 131.96 244.107 132 244.127C134.017 245.163 134.944 247.203 135.534 249.285C134.981 248.454 134.172 247.954 133.068 248.601C133.01 248.635 133.054 248.725 133.114 248.718C133.988 248.612 134.593 248.816 135.11 249.555C135.477 250.078 135.701 250.718 135.945 251.306C136.026 251.502 136.373 251.432 136.321 251.21C136.317 251.194 136.312 251.177 136.309 251.16C136.602 248.496 134.864 244.575 132.023 244.049Z" fill="#263238"/>
<path d="M146.942 269.834C146.94 269.799 146.887 269.797 146.885 269.833C146.72 273.167 146.111 280.872 140.742 279.815C138.579 279.389 136.737 277.867 135.221 276.406C133.664 274.907 130.281 270.713 128.048 266.113C128.004 266.023 127.876 266.09 127.905 266.189C128.27 267.444 129.246 269.693 130.517 271.761C131.74 273.752 133.177 275.637 134.916 277.247C136.545 278.755 138.517 280.289 140.819 280.634C143.009 280.962 144.76 279.836 145.628 277.961C146.768 275.498 147.067 272.501 146.942 269.834Z" fill="#263238"/>
<path d="M118.543 271.216C107.099 281.247 77.7709 320.716 84.9719 329.174C92.2249 337.692 137.437 331.761 150.454 327.089C154.326 325.699 142.594 301.249 138.305 300.275C134.734 299.464 115.397 306.066 114.969 304.949C114.485 303.687 118.312 295.108 124.372 279.492C131.358 261.487 123.598 266.785 118.543 271.216Z" fill="#FFCFC8"/>
<path d="M157.412 294.681C166.52 294.331 168.912 295.639 176.441 291.262C181.382 288.39 185.336 290.312 182.177 295.347C177.009 303.582 165.353 306.501 161.021 306.349L157.412 294.681Z" fill="#FFCFC8"/>
<path d="M132.686 300.934C132.686 300.934 143.34 296.342 153.009 295.009C159.695 294.088 174.465 293.704 186.976 309.494C189.943 313.239 191.516 320.68 184.447 316.324C179.426 313.229 177.177 309.75 173.929 308.481C173.929 308.481 174.805 318.184 170.937 321.01C169.209 322.273 164.41 325.61 160.303 327.675C160.303 327.675 159.613 326.902 158.878 325.797C158.878 325.797 155.015 328.096 148.311 326.772L132.686 300.934Z" fill="#FFCFC8"/>
<path d="M159.531 295.148C162.489 297.089 168.689 301.307 172.56 306.521C176.86 312.313 183.583 324.629 179.275 327.76C176.116 330.055 173.136 325.579 173.136 325.579C173.136 325.579 174.842 331.255 171.534 332.705C168.52 334.026 166.422 330.424 166.422 330.424C166.422 330.424 166.865 334.045 163.717 334.758C159.931 335.616 159.624 327.886 155.039 325.441C154.01 324.891 159.531 295.148 159.531 295.148Z" fill="#FFCFC8"/>
<path d="M165.683 310.044C168.165 312.325 172.474 318.952 173.199 325.442C173.215 325.589 173.113 325.68 173.069 325.549C170.754 318.574 167.263 312.551 165.628 310.084C165.606 310.052 165.655 310.019 165.683 310.044Z" fill="#263238"/>
<path d="M159.962 314.555C161.901 316.743 166.037 323.772 166.546 330.374C166.557 330.521 166.448 330.606 166.411 330.473C164.292 323.085 161.39 317.152 159.905 314.592C159.885 314.558 159.937 314.527 159.962 314.555Z" fill="#263238"/>
<path d="M173.938 308.422C176.778 309.577 178.538 311.205 180.836 313.168C181.973 314.139 183.128 315.095 184.367 315.935C185.495 316.7 187.155 317.851 188.527 316.968C189.29 316.477 189.382 315.453 189.306 314.631C189.22 313.707 188.493 311.945 188.031 311.139C188.008 311.098 188.078 311.056 188.102 311.097C188.531 311.816 189.354 313.427 189.564 314.239C189.753 314.974 189.875 315.819 189.599 316.55C189.007 318.121 187.082 318.142 185.779 317.563C184.999 317.217 184.279 316.711 183.587 316.217C182.918 315.739 182.273 315.229 181.64 314.703C180.343 313.623 179.109 312.47 177.825 311.375C176.414 310.172 175.418 309.554 173.882 308.516C173.832 308.48 173.882 308.399 173.938 308.422Z" fill="#263238"/>
<path d="M179.034 319.336C178.444 317.591 175.04 310.228 173.871 308.486C173.841 308.441 173.902 308.394 173.937 308.435C176.002 310.827 179.092 316.939 179.762 318.865C180.424 320.769 181.164 323.191 180.96 325.218C180.654 328.277 178.567 328.652 177.802 328.727C176.889 328.816 176.004 328.537 175.242 328.04C174.394 327.487 173.625 326.438 173.105 325.586C173.078 325.541 173.139 325.49 173.171 325.535C174.11 326.846 175.751 328.212 177.435 328.16C178.166 328.138 178.929 327.883 179.429 327.329C180.017 326.679 180.151 325.759 180.165 324.915C180.196 323.003 179.64 321.128 179.034 319.336Z" fill="#263238"/>
<path d="M132.686 300.934L143.854 332.136C143.854 332.136 87.232 339.017 83.421 328.899C79.61 318.781 104.901 283.212 115.694 273.198C128.202 261.593 129.202 266.067 125.595 277.104C121.819 288.659 115.103 305.245 115.103 305.245L132.686 300.934Z" fill="#0074D9"/>
<path d="M97.476 311.485C100.212 309.949 103.099 308.676 106.027 307.552C108.927 306.439 111.933 305.643 114.962 304.968C116.692 304.583 118.435 304.282 120.179 303.969C120.232 303.959 120.245 304.041 120.192 304.052C117.142 304.682 114.133 305.582 111.178 306.558C108.234 307.531 105.313 308.555 102.408 309.635C100.764 310.246 99.15 310.935 97.528 311.6C97.451 311.631 97.407 311.524 97.476 311.485Z" fill="#263238"/>
<path d="M132.546 300.832C132.26 300.877 116.615 304.357 116.095 304.539C116.181 304.317 119.706 296.537 120.231 295.399C120.283 295.286 120.33 295.17 120.381 295.057C120.71 294.559 121.042 294.063 121.351 293.552C121.747 292.897 122.138 292.238 122.531 291.581C122.543 291.561 122.514 291.54 122.501 291.56C122.08 292.198 121.658 292.835 121.24 293.475C121.047 293.771 120.863 294.073 120.682 294.376C121.032 293.57 121.372 292.761 121.712 291.947C122.254 290.651 122.753 289.341 123.249 288.026C123.265 287.984 123.202 287.962 123.183 288.003C122.144 290.271 121.034 292.505 119.988 294.769C118.944 297.03 114.959 305.364 114.984 305.359C115.009 305.384 132.254 301.147 132.588 301.045C132.719 301.005 132.687 300.81 132.546 300.832Z" fill="#263238"/>
<path d="M131.619 320.362C130.394 316.882 129.196 313.391 127.842 309.955C127.073 308.003 126.314 306.047 125.526 304.102C125.496 304.029 125.367 304.069 125.39 304.146C126.481 307.688 127.584 311.237 128.837 314.729C130.083 318.203 131.301 321.687 132.593 325.145C133.328 327.111 134.119 329.048 134.972 330.968C134.989 331.006 135.055 330.986 135.043 330.945C134.07 327.364 132.852 323.866 131.619 320.362Z" fill="#263238"/>
<path d="M144.522 332.673C144.059 331.701 143.492 330.309 142.989 329.357C142.856 329.105 142.669 329.136 142.77 329.397C143.108 330.271 143.364 331.243 143.696 332.139C142.903 332.216 142.109 332.275 141.316 332.36C140.399 332.458 139.483 332.561 138.567 332.656C136.772 332.842 134.974 333.01 133.175 333.159C129.532 333.461 125.883 333.686 122.23 333.833C114.909 334.128 107.557 334.157 100.243 333.692C98.1969 333.562 96.1519 333.392 94.1149 333.159C92.0459 332.923 89.812 332.654 88.121 332.266C88.067 332.254 88.0469 332.345 88.1009 332.362C89.8409 332.905 91.472 333.297 93.272 333.567C95.109 333.843 96.955 334.068 98.805 334.233C102.49 334.56 106.192 334.691 109.89 334.722C117.224 334.784 124.564 334.527 131.878 333.979C133.927 333.826 135.975 333.648 138.02 333.446C139.052 333.344 140.084 333.242 141.114 333.121C142.144 332.999 144.6 332.839 144.522 332.673Z" fill="#263238"/>
<path d="M217.469 331.98H146.182V335.173H217.469V331.98Z" fill="#C7C7C7"/>
<path d="M217.468 331.98V335.173H169.011L171.454 331.98H217.468Z" fill="#A6A6A6"/>
<path d="M178.813 335.174H241.204L250.232 291.155H187.84L178.813 335.174Z" fill="#A6A6A6"/>
<path d="M181.728 335.174H244.12L253.148 291.155H190.756L181.728 335.174Z" fill="#C7C7C7"/>
<path d="M223.063 311.525C223.128 313.605 221.736 315.592 219.954 315.964C218.172 316.336 216.675 314.952 216.61 312.872C216.545 310.792 217.937 308.805 219.719 308.433C221.501 308.061 222.998 309.445 223.063 311.525Z" fill="white"/>
<path d="M362.757 426.548C361.827 428.968 317.056 483.254 314.041 484.246C312.899 484.628 304.613 478.569 294.808 470.963C292.69 469.321 290.514 467.612 288.313 465.864C274.011 454.534 259.102 442.178 259.102 442.178L288.946 405.777L317.336 430.465L323.572 435.879C323.572 435.879 350.01 422.761 353.434 422.029C356.848 421.309 363.686 424.129 362.757 426.548Z" fill="#FFCFC8"/>
<path d="M362.757 426.548C361.827 428.968 317.056 483.254 314.041 484.246C312.649 484.704 300.705 475.665 288.313 465.864L317.335 430.465L323.571 435.879C323.571 435.879 350.009 422.761 353.433 422.029C356.848 421.309 363.686 424.129 362.757 426.548Z" fill="#EBEBEB"/>
<path d="M362.757 426.548C361.827 428.968 317.056 483.254 314.041 484.246C312.899 484.628 304.613 478.569 294.808 470.963L323.572 435.88C323.572 435.88 350.01 422.762 353.434 422.03C356.848 421.309 363.686 424.129 362.757 426.548Z" fill="#0074D9"/>
<path d="M359.943 425.536C352.215 434.452 321.885 471.141 314.923 480.542C314.866 480.618 314.916 480.659 314.98 480.589C322.833 471.92 352.865 434.985 360.093 425.659C360.245 425.462 360.106 425.348 359.943 425.536Z" fill="#263238"/>
<path d="M348.601 423.911C346.733 425.997 346.019 428.951 346.334 431.188C346.636 433.337 347.575 435.736 349.515 437.229C349.571 437.272 349.655 437.173 349.606 437.119C346.473 433.663 346.017 427.844 348.716 424.006C348.769 423.927 348.665 423.839 348.601 423.911Z" fill="#263238"/>
<path d="M327.387 433.096C324.332 436.697 322.136 441.98 323.248 446.7C323.291 446.883 323.55 446.819 323.584 446.665C324.602 441.972 325.919 437.799 327.887 433.403C328.026 433.093 327.606 432.838 327.387 433.096Z" fill="#263238"/>
<path d="M330.803 431.188C327.748 434.789 325.551 440.072 326.664 444.792C326.707 444.975 326.966 444.911 327 444.756C328.018 440.064 329.335 435.891 331.303 431.494C331.441 431.185 331.021 430.93 330.803 431.188Z" fill="#263238"/>
<path d="M334.218 429.28C331.163 432.881 328.966 438.164 330.079 442.884C330.122 443.067 330.381 443.003 330.415 442.849C331.433 438.157 332.75 433.984 334.719 429.588C334.856 429.278 334.436 429.022 334.218 429.28Z" fill="#263238"/>
<path d="M337.633 427.373C334.578 430.974 332.382 436.256 333.494 440.977C333.537 441.16 333.797 441.096 333.83 440.942C334.848 436.25 336.165 432.077 338.134 427.68C338.271 427.37 337.851 427.115 337.633 427.373Z" fill="#263238"/>
<path d="M308.191 471.096C304.833 475.192 311.193 480.418 314.557 476.315C317.916 472.218 311.555 466.992 308.191 471.096Z" fill="white"/>
<path d="M320.914 421.144C317.865 421.727 317.443 425.282 318.093 427.727C319.145 431.688 321.706 435.926 324.677 438.718C324.751 438.787 324.83 438.753 324.875 438.69C325.2 438.827 325.673 438.7 325.709 438.277C326.054 434.205 326.928 429.893 326.012 425.836C325.479 423.469 323.798 420.593 320.914 421.144ZM324.97 431.997C324.849 434.004 324.63 435.993 324.583 438.004C323.304 435.857 321.94 433.776 320.879 431.501C320.373 430.415 319.873 429.291 319.519 428.144C318.968 426.361 318.872 420.275 323.134 423.181C325.485 424.783 325.114 429.605 324.97 431.997Z" fill="#263238"/>
<path d="M318.565 448.882C321.668 446.112 323.462 442.096 325.549 438.582C325.765 438.218 325.455 437.839 325.11 437.762C325.11 437.684 325.065 437.611 324.965 437.624C320.923 438.169 316.377 440.129 313.219 442.741C311.269 444.354 309.546 447.491 311.688 449.738C313.714 451.862 316.754 450.499 318.565 448.882ZM314.678 449.371C309.521 449.259 313.136 444.362 314.621 443.231C315.575 442.504 316.635 441.879 317.678 441.29C319.864 440.056 322.184 439.155 324.473 438.151C323.342 439.815 322.364 441.56 321.296 443.264C320.023 445.293 317.521 449.433 314.678 449.371Z" fill="#263238"/>
<path d="M315.867 424.9L282.641 464.284L182.415 392.916L172.545 385.884C172.545 385.884 169.704 387.746 165.432 390.041C159.499 393.227 150.812 397.247 143.159 398.279C130.32 400.02 110.997 399.581 100.372 385.006C91.4231 372.734 94.4841 356.901 94.4841 356.901L108.628 351.03C108.628 351.03 142.265 323.691 163.845 323.117C173.011 322.864 186.267 329.97 198.533 337.374C210.789 344.768 315.867 424.9 315.867 424.9Z" fill="#263238"/>
<path d="M172.545 385.883C172.545 385.883 169.704 387.745 165.432 390.04C158.041 380.97 142.359 364.468 141.884 363.883L172.545 385.883Z" fill="#37474F"/>
<path d="M120.943 341.891C118.936 343.249 116.992 344.694 115.011 346.089C113.063 347.461 111.052 348.748 109.198 350.249C107.312 351.776 105.522 353.409 103.742 355.058C102.883 355.853 102.031 356.655 101.201 357.479C100.378 358.296 99.458 359.115 98.772 360.052C98.708 360.139 98.833 360.246 98.917 360.193C99.875 359.595 100.739 358.769 101.611 358.054C102.553 357.282 103.483 356.497 104.421 355.72C106.229 354.22 108.072 352.764 109.876 351.259C111.668 349.765 113.332 348.126 115.107 346.612C117.008 344.992 119.009 343.486 120.981 341.954C121.019 341.926 120.984 341.863 120.943 341.891Z" fill="#37474F"/>
<path d="M305.606 421.108C303.593 423.227 301.728 425.51 299.849 427.75C297.963 429.998 296.089 432.256 294.227 434.524C290.502 439.063 286.747 443.58 283.085 448.169C281.073 450.69 279.087 453.231 277.213 455.857C277.13 455.974 277.316 456.109 277.412 456.007C281.412 451.715 285.076 447.129 288.793 442.594C292.517 438.051 296.228 433.495 299.883 428.897C301.883 426.38 303.943 423.878 305.786 421.244C305.859 421.136 305.693 421.016 305.606 421.108Z" fill="#37474F"/>
<path d="M230.28 426.882C225.193 422.772 213.612 414.727 208.333 410.865C203.081 407.023 197.832 403.171 192.499 399.442C190.968 398.371 189.423 397.322 187.88 396.269C186.34 395.218 184.735 394.245 183.227 393.155C183.139 393.092 183.058 393.238 183.144 393.301C184.529 394.319 185.834 395.459 187.195 396.515C188.494 397.523 189.782 398.544 191.092 399.538C193.648 401.479 196.23 403.384 198.808 405.296C204.036 409.173 209.303 413.003 214.626 416.749C217.648 418.876 226.957 425.171 230.048 427.195C230.23 427.315 230.455 427.023 230.28 426.882Z" fill="#37474F"/>
<path d="M263.193 384.63C258.494 380.638 247.766 372.946 242.836 369.249C237.849 365.509 232.888 361.736 227.881 358.022C222.913 354.338 217.946 350.655 212.978 346.971C208.162 343.4 203.371 339.772 198.278 336.6C195.491 334.864 192.63 333.252 189.687 331.795C186.828 330.38 183.857 328.94 180.793 328.035C180.701 328.008 180.649 328.142 180.73 328.189C183.242 329.632 185.884 330.853 188.427 332.247C190.941 333.625 193.416 335.074 195.849 336.589C200.905 339.739 205.672 343.305 210.462 346.839C220.409 354.178 230.335 361.547 240.355 368.786C245.961 372.837 257.134 381.202 262.963 384.934C263.146 385.052 263.36 384.772 263.193 384.63Z" fill="#37474F"/>
</svg>
