<svg width="30" height="30" viewBox="0 0 30 30" fill="none" xmlns="http://www.w3.org/2000/svg">
<mask id="mask0_3012_104" style="mask-type:alpha" maskUnits="userSpaceOnUse" x="0" y="0" width="30" height="30">
<rect width="30" height="30" fill="#D9D9D9"/>
</mask>
<g mask="url(#mask0_3012_104)">
<path fill-rule="evenodd" clip-rule="evenodd" d="M10.4813 4.77373C10.3886 4.86473 10.298 4.95872 10.2093 5.05571C7.70252 7.79959 7.74814 11.9646 10.2106 14.6518L7.70635 17.3929C3.57897 13.174 3.41331 6.42795 7.43654 2.00891L10.4813 4.77373Z" fill="#378FDA"/>
<path fill-rule="evenodd" clip-rule="evenodd" d="M19.5187 25.2146C19.6113 25.1236 19.7019 25.0297 19.7907 24.9327C22.2974 22.1889 22.2517 18.0239 19.7894 15.3366L22.2936 12.5956C26.4211 16.8144 26.5867 23.5606 22.5633 27.9794L19.5187 25.2146Z" fill="#378FDA"/>
<path fill-rule="evenodd" clip-rule="evenodd" d="M4.83403 13.8733C4.85494 14.0013 4.87941 14.1294 4.90755 14.2576C5.70335 17.8831 9.13815 20.2547 12.7611 19.8056L13.5561 23.4275C7.71696 24.3451 2.1006 20.5788 0.810822 14.751L4.83403 13.8733Z" fill="#0074D9"/>
<path fill-rule="evenodd" clip-rule="evenodd" d="M25.166 16.1149C25.1451 15.987 25.1205 15.8588 25.0923 15.7306C24.2965 12.105 20.8619 9.73365 17.2389 10.1826L16.4439 6.56071C22.283 5.6432 27.8994 9.40943 29.1892 15.2372L25.166 16.1149Z" fill="#0074D9"/>
<path fill-rule="evenodd" clip-rule="evenodd" d="M20.324 4.10497C20.194 4.1007 20.0631 4.09991 19.9315 4.1027C16.2097 4.18114 13.2127 7.08319 12.955 10.7139L9.23694 10.7922C9.46136 4.90322 14.2524 0.136468 20.2368 0L20.324 4.10497Z" fill="#378FDA"/>
<path fill-rule="evenodd" clip-rule="evenodd" d="M9.45068 25.6586C9.58065 25.6629 9.71147 25.6638 9.84304 25.6608C13.565 25.5824 16.562 22.6803 16.8196 19.0497L20.5377 18.9713C20.3132 24.8605 15.5223 29.6271 9.53773 29.7637L9.45068 25.6586Z" fill="#378FDA"/>
</g>
</svg>
